G04 EAGLE Gerber X2 export*
%TF.Part,Single*%
%TF.FileFunction,Legend,Top,1*%
%TF.FilePolarity,Positive*%
%TF.GenerationSoftware,Autodesk,EAGLE,9.6.2*%
%TF.CreationDate,2021-04-24T19:48:17Z*%
G75*
%MOIN*%
%FSLAX36Y36*%
%LPD*%
%INTop Silkscreen *%
%AMOC8*
5,1,8,0,0,1.08239X$1,22.5*%
G01*
%ADD10C,0.008000*%
%ADD11C,0.004000*%
%ADD12C,0.006000*%
%ADD13C,0.005000*%

G36*
X814452Y1014237D02*
X814452Y1014237D01*
X814645Y1014294D01*
X814998Y1014361D01*
X818961Y1015748D01*
X819136Y1015847D01*
X819465Y1015991D01*
X823020Y1018225D01*
X823169Y1018360D01*
X823458Y1018573D01*
X826427Y1021542D01*
X826541Y1021707D01*
X826775Y1021980D01*
X829009Y1025535D01*
X829085Y1025721D01*
X829252Y1026039D01*
X830639Y1030002D01*
X830671Y1030201D01*
X830763Y1030548D01*
X831234Y1034720D01*
X831220Y1034921D01*
X831234Y1035280D01*
X830763Y1039452D01*
X830706Y1039645D01*
X830639Y1039998D01*
X829252Y1043961D01*
X829153Y1044136D01*
X829009Y1044465D01*
X826775Y1048020D01*
X826640Y1048169D01*
X826427Y1048458D01*
X823458Y1051427D01*
X823293Y1051541D01*
X823020Y1051775D01*
X819465Y1054009D01*
X819279Y1054085D01*
X818961Y1054252D01*
X814998Y1055639D01*
X814799Y1055671D01*
X814452Y1055763D01*
X810280Y1056234D01*
X810175Y1056227D01*
X810098Y1056238D01*
X809902Y1056238D01*
X809849Y1056229D01*
X809720Y1056234D01*
X805548Y1055763D01*
X805355Y1055706D01*
X805002Y1055639D01*
X801039Y1054252D01*
X800864Y1054153D01*
X800535Y1054009D01*
X796980Y1051775D01*
X796831Y1051640D01*
X796542Y1051427D01*
X793573Y1048458D01*
X793459Y1048293D01*
X793225Y1048020D01*
X790991Y1044465D01*
X790915Y1044279D01*
X790748Y1043961D01*
X789361Y1039998D01*
X789329Y1039799D01*
X789237Y1039452D01*
X788766Y1035280D01*
X788780Y1035079D01*
X788766Y1034720D01*
X789237Y1030548D01*
X789294Y1030355D01*
X789361Y1030002D01*
X790748Y1026039D01*
X790847Y1025864D01*
X790991Y1025535D01*
X793225Y1021980D01*
X793360Y1021831D01*
X793573Y1021542D01*
X796542Y1018573D01*
X796707Y1018459D01*
X796980Y1018225D01*
X800535Y1015991D01*
X800721Y1015915D01*
X801039Y1015748D01*
X805002Y1014361D01*
X805201Y1014329D01*
X805548Y1014237D01*
X809720Y1013766D01*
X809921Y1013780D01*
X810280Y1013766D01*
X814452Y1014237D01*
G37*
D10*
X476575Y960000D02*
X476605Y962415D01*
X476694Y964829D01*
X476842Y967241D01*
X477049Y969647D01*
X477315Y972048D01*
X477640Y974442D01*
X478024Y976827D01*
X478466Y979202D01*
X478967Y981565D01*
X479525Y983915D01*
X480140Y986251D01*
X480813Y988571D01*
X481543Y990874D01*
X482329Y993158D01*
X483170Y995423D01*
X484067Y997666D01*
X485019Y999886D01*
X486025Y1002082D01*
X487084Y1004253D01*
X488197Y1006397D01*
X489362Y1008514D01*
X490578Y1010601D01*
X491845Y1012657D01*
X493163Y1014682D01*
X494529Y1016674D01*
X495944Y1018632D01*
X497407Y1020554D01*
X498916Y1022440D01*
X500472Y1024289D01*
X502072Y1026098D01*
X503716Y1027868D01*
X505403Y1029597D01*
X507132Y1031284D01*
X508902Y1032928D01*
X510711Y1034528D01*
X512560Y1036084D01*
X514446Y1037593D01*
X516368Y1039056D01*
X518326Y1040471D01*
X520318Y1041837D01*
X522343Y1043155D01*
X524399Y1044422D01*
X526486Y1045638D01*
X528603Y1046803D01*
X530747Y1047916D01*
X532918Y1048975D01*
X535114Y1049981D01*
X537334Y1050933D01*
X539577Y1051830D01*
X541842Y1052671D01*
X544126Y1053457D01*
X546429Y1054187D01*
X548749Y1054860D01*
X551085Y1055475D01*
X553435Y1056033D01*
X555798Y1056534D01*
X558173Y1056976D01*
X560558Y1057360D01*
X562952Y1057685D01*
X565353Y1057951D01*
X567759Y1058158D01*
X570171Y1058306D01*
X572585Y1058395D01*
X575000Y1058425D01*
X577415Y1058395D01*
X579829Y1058306D01*
X582241Y1058158D01*
X584647Y1057951D01*
X587048Y1057685D01*
X589442Y1057360D01*
X591827Y1056976D01*
X594202Y1056534D01*
X596565Y1056033D01*
X598915Y1055475D01*
X601251Y1054860D01*
X603571Y1054187D01*
X605874Y1053457D01*
X608158Y1052671D01*
X610423Y1051830D01*
X612666Y1050933D01*
X614886Y1049981D01*
X617082Y1048975D01*
X619253Y1047916D01*
X621397Y1046803D01*
X623514Y1045638D01*
X625601Y1044422D01*
X627657Y1043155D01*
X629682Y1041837D01*
X631674Y1040471D01*
X633632Y1039056D01*
X635554Y1037593D01*
X637440Y1036084D01*
X639289Y1034528D01*
X641098Y1032928D01*
X642868Y1031284D01*
X644597Y1029597D01*
X646284Y1027868D01*
X647928Y1026098D01*
X649528Y1024289D01*
X651084Y1022440D01*
X652593Y1020554D01*
X654056Y1018632D01*
X655471Y1016674D01*
X656837Y1014682D01*
X658155Y1012657D01*
X659422Y1010601D01*
X660638Y1008514D01*
X661803Y1006397D01*
X662916Y1004253D01*
X663975Y1002082D01*
X664981Y999886D01*
X665933Y997666D01*
X666830Y995423D01*
X667671Y993158D01*
X668457Y990874D01*
X669187Y988571D01*
X669860Y986251D01*
X670475Y983915D01*
X671033Y981565D01*
X671534Y979202D01*
X671976Y976827D01*
X672360Y974442D01*
X672685Y972048D01*
X672951Y969647D01*
X673158Y967241D01*
X673306Y964829D01*
X673395Y962415D01*
X673425Y960000D01*
X673395Y957585D01*
X673306Y955171D01*
X673158Y952759D01*
X672951Y950353D01*
X672685Y947952D01*
X672360Y945558D01*
X671976Y943173D01*
X671534Y940798D01*
X671033Y938435D01*
X670475Y936085D01*
X669860Y933749D01*
X669187Y931429D01*
X668457Y929126D01*
X667671Y926842D01*
X666830Y924577D01*
X665933Y922334D01*
X664981Y920114D01*
X663975Y917918D01*
X662916Y915747D01*
X661803Y913603D01*
X660638Y911486D01*
X659422Y909399D01*
X658155Y907343D01*
X656837Y905318D01*
X655471Y903326D01*
X654056Y901368D01*
X652593Y899446D01*
X651084Y897560D01*
X649528Y895711D01*
X647928Y893902D01*
X646284Y892132D01*
X644597Y890403D01*
X642868Y888716D01*
X641098Y887072D01*
X639289Y885472D01*
X637440Y883916D01*
X635554Y882407D01*
X633632Y880944D01*
X631674Y879529D01*
X629682Y878163D01*
X627657Y876845D01*
X625601Y875578D01*
X623514Y874362D01*
X621397Y873197D01*
X619253Y872084D01*
X617082Y871025D01*
X614886Y870019D01*
X612666Y869067D01*
X610423Y868170D01*
X608158Y867329D01*
X605874Y866543D01*
X603571Y865813D01*
X601251Y865140D01*
X598915Y864525D01*
X596565Y863967D01*
X594202Y863466D01*
X591827Y863024D01*
X589442Y862640D01*
X587048Y862315D01*
X584647Y862049D01*
X582241Y861842D01*
X579829Y861694D01*
X577415Y861605D01*
X575000Y861575D01*
X572585Y861605D01*
X570171Y861694D01*
X567759Y861842D01*
X565353Y862049D01*
X562952Y862315D01*
X560558Y862640D01*
X558173Y863024D01*
X555798Y863466D01*
X553435Y863967D01*
X551085Y864525D01*
X548749Y865140D01*
X546429Y865813D01*
X544126Y866543D01*
X541842Y867329D01*
X539577Y868170D01*
X537334Y869067D01*
X535114Y870019D01*
X532918Y871025D01*
X530747Y872084D01*
X528603Y873197D01*
X526486Y874362D01*
X524399Y875578D01*
X522343Y876845D01*
X520318Y878163D01*
X518326Y879529D01*
X516368Y880944D01*
X514446Y882407D01*
X512560Y883916D01*
X510711Y885472D01*
X508902Y887072D01*
X507132Y888716D01*
X505403Y890403D01*
X503716Y892132D01*
X502072Y893902D01*
X500472Y895711D01*
X498916Y897560D01*
X497407Y899446D01*
X495944Y901368D01*
X494529Y903326D01*
X493163Y905318D01*
X491845Y907343D01*
X490578Y909399D01*
X489362Y911486D01*
X488197Y913603D01*
X487084Y915747D01*
X486025Y917918D01*
X485019Y920114D01*
X484067Y922334D01*
X483170Y924577D01*
X482329Y926842D01*
X481543Y929126D01*
X480813Y931429D01*
X480140Y933749D01*
X479525Y936085D01*
X478967Y938435D01*
X478466Y940798D01*
X478024Y943173D01*
X477640Y945558D01*
X477315Y947952D01*
X477049Y950353D01*
X476842Y952759D01*
X476694Y955171D01*
X476605Y957585D01*
X476575Y960000D01*
X505787Y1015000D02*
X545787Y1015000D01*
X604213Y1015000D02*
X644213Y1015000D01*
X624213Y1035000D02*
X624213Y995000D01*
D11*
X566073Y1067000D02*
X558213Y1067000D01*
X558023Y1067002D01*
X557833Y1067009D01*
X557644Y1067021D01*
X557454Y1067037D01*
X557266Y1067057D01*
X557077Y1067082D01*
X556890Y1067112D01*
X556703Y1067146D01*
X556517Y1067185D01*
X556332Y1067228D01*
X556148Y1067276D01*
X555965Y1067328D01*
X555784Y1067385D01*
X555604Y1067446D01*
X555426Y1067511D01*
X555249Y1067580D01*
X555074Y1067654D01*
X554901Y1067732D01*
X554730Y1067814D01*
X554560Y1067900D01*
X554393Y1067991D01*
X554228Y1068085D01*
X554066Y1068183D01*
X553906Y1068285D01*
X553748Y1068391D01*
X553593Y1068501D01*
X553441Y1068615D01*
X553291Y1068732D01*
X553145Y1068852D01*
X553001Y1068977D01*
X552860Y1069104D01*
X552723Y1069235D01*
X552588Y1069370D01*
X552457Y1069507D01*
X552330Y1069648D01*
X552205Y1069792D01*
X552085Y1069938D01*
X551968Y1070088D01*
X551854Y1070240D01*
X551744Y1070395D01*
X551638Y1070553D01*
X551536Y1070713D01*
X551438Y1070875D01*
X551344Y1071040D01*
X551253Y1071207D01*
X551167Y1071377D01*
X551085Y1071548D01*
X551007Y1071721D01*
X550933Y1071896D01*
X550864Y1072073D01*
X550799Y1072251D01*
X550738Y1072431D01*
X550681Y1072612D01*
X550629Y1072795D01*
X550581Y1072979D01*
X550538Y1073164D01*
X550499Y1073350D01*
X550465Y1073537D01*
X550435Y1073724D01*
X550410Y1073913D01*
X550390Y1074101D01*
X550374Y1074291D01*
X550362Y1074480D01*
X550355Y1074670D01*
X550353Y1074860D01*
X550353Y1094510D01*
X550355Y1094703D01*
X550362Y1094896D01*
X550374Y1095088D01*
X550391Y1095280D01*
X550412Y1095472D01*
X550438Y1095663D01*
X550469Y1095854D01*
X550504Y1096043D01*
X550544Y1096232D01*
X550589Y1096420D01*
X550638Y1096606D01*
X550691Y1096792D01*
X550750Y1096976D01*
X550812Y1097158D01*
X550880Y1097339D01*
X550951Y1097518D01*
X551027Y1097695D01*
X551108Y1097871D01*
X551192Y1098044D01*
X551281Y1098215D01*
X551374Y1098384D01*
X551471Y1098551D01*
X551572Y1098715D01*
X551678Y1098877D01*
X551787Y1099036D01*
X551900Y1099192D01*
X552017Y1099346D01*
X552137Y1099496D01*
X552261Y1099644D01*
X552389Y1099788D01*
X552520Y1099930D01*
X552655Y1100068D01*
X552793Y1100203D01*
X552934Y1100334D01*
X553079Y1100462D01*
X553227Y1100586D01*
X553377Y1100706D01*
X553531Y1100823D01*
X553687Y1100936D01*
X553846Y1101045D01*
X554008Y1101151D01*
X554172Y1101252D01*
X554339Y1101349D01*
X554508Y1101442D01*
X554679Y1101531D01*
X554852Y1101615D01*
X555028Y1101696D01*
X555205Y1101772D01*
X555384Y1101843D01*
X555565Y1101911D01*
X555747Y1101973D01*
X555931Y1102032D01*
X556117Y1102085D01*
X556303Y1102134D01*
X556491Y1102179D01*
X556679Y1102219D01*
X556869Y1102254D01*
X557060Y1102285D01*
X557251Y1102311D01*
X557442Y1102332D01*
X557635Y1102349D01*
X557827Y1102361D01*
X558020Y1102368D01*
X558213Y1102370D01*
X566073Y1102370D01*
X587857Y1102370D02*
X579997Y1074860D01*
X599647Y1074860D01*
X593752Y1082720D02*
X593752Y1067000D01*
D10*
X401575Y700000D02*
X401605Y702415D01*
X401694Y704829D01*
X401842Y707241D01*
X402049Y709647D01*
X402315Y712048D01*
X402640Y714442D01*
X403024Y716827D01*
X403466Y719202D01*
X403967Y721565D01*
X404525Y723915D01*
X405140Y726251D01*
X405813Y728571D01*
X406543Y730874D01*
X407329Y733158D01*
X408170Y735423D01*
X409067Y737666D01*
X410019Y739886D01*
X411025Y742082D01*
X412084Y744253D01*
X413197Y746397D01*
X414362Y748514D01*
X415578Y750601D01*
X416845Y752657D01*
X418163Y754682D01*
X419529Y756674D01*
X420944Y758632D01*
X422407Y760554D01*
X423916Y762440D01*
X425472Y764289D01*
X427072Y766098D01*
X428716Y767868D01*
X430403Y769597D01*
X432132Y771284D01*
X433902Y772928D01*
X435711Y774528D01*
X437560Y776084D01*
X439446Y777593D01*
X441368Y779056D01*
X443326Y780471D01*
X445318Y781837D01*
X447343Y783155D01*
X449399Y784422D01*
X451486Y785638D01*
X453603Y786803D01*
X455747Y787916D01*
X457918Y788975D01*
X460114Y789981D01*
X462334Y790933D01*
X464577Y791830D01*
X466842Y792671D01*
X469126Y793457D01*
X471429Y794187D01*
X473749Y794860D01*
X476085Y795475D01*
X478435Y796033D01*
X480798Y796534D01*
X483173Y796976D01*
X485558Y797360D01*
X487952Y797685D01*
X490353Y797951D01*
X492759Y798158D01*
X495171Y798306D01*
X497585Y798395D01*
X500000Y798425D01*
X502415Y798395D01*
X504829Y798306D01*
X507241Y798158D01*
X509647Y797951D01*
X512048Y797685D01*
X514442Y797360D01*
X516827Y796976D01*
X519202Y796534D01*
X521565Y796033D01*
X523915Y795475D01*
X526251Y794860D01*
X528571Y794187D01*
X530874Y793457D01*
X533158Y792671D01*
X535423Y791830D01*
X537666Y790933D01*
X539886Y789981D01*
X542082Y788975D01*
X544253Y787916D01*
X546397Y786803D01*
X548514Y785638D01*
X550601Y784422D01*
X552657Y783155D01*
X554682Y781837D01*
X556674Y780471D01*
X558632Y779056D01*
X560554Y777593D01*
X562440Y776084D01*
X564289Y774528D01*
X566098Y772928D01*
X567868Y771284D01*
X569597Y769597D01*
X571284Y767868D01*
X572928Y766098D01*
X574528Y764289D01*
X576084Y762440D01*
X577593Y760554D01*
X579056Y758632D01*
X580471Y756674D01*
X581837Y754682D01*
X583155Y752657D01*
X584422Y750601D01*
X585638Y748514D01*
X586803Y746397D01*
X587916Y744253D01*
X588975Y742082D01*
X589981Y739886D01*
X590933Y737666D01*
X591830Y735423D01*
X592671Y733158D01*
X593457Y730874D01*
X594187Y728571D01*
X594860Y726251D01*
X595475Y723915D01*
X596033Y721565D01*
X596534Y719202D01*
X596976Y716827D01*
X597360Y714442D01*
X597685Y712048D01*
X597951Y709647D01*
X598158Y707241D01*
X598306Y704829D01*
X598395Y702415D01*
X598425Y700000D01*
X598395Y697585D01*
X598306Y695171D01*
X598158Y692759D01*
X597951Y690353D01*
X597685Y687952D01*
X597360Y685558D01*
X596976Y683173D01*
X596534Y680798D01*
X596033Y678435D01*
X595475Y676085D01*
X594860Y673749D01*
X594187Y671429D01*
X593457Y669126D01*
X592671Y666842D01*
X591830Y664577D01*
X590933Y662334D01*
X589981Y660114D01*
X588975Y657918D01*
X587916Y655747D01*
X586803Y653603D01*
X585638Y651486D01*
X584422Y649399D01*
X583155Y647343D01*
X581837Y645318D01*
X580471Y643326D01*
X579056Y641368D01*
X577593Y639446D01*
X576084Y637560D01*
X574528Y635711D01*
X572928Y633902D01*
X571284Y632132D01*
X569597Y630403D01*
X567868Y628716D01*
X566098Y627072D01*
X564289Y625472D01*
X562440Y623916D01*
X560554Y622407D01*
X558632Y620944D01*
X556674Y619529D01*
X554682Y618163D01*
X552657Y616845D01*
X550601Y615578D01*
X548514Y614362D01*
X546397Y613197D01*
X544253Y612084D01*
X542082Y611025D01*
X539886Y610019D01*
X537666Y609067D01*
X535423Y608170D01*
X533158Y607329D01*
X530874Y606543D01*
X528571Y605813D01*
X526251Y605140D01*
X523915Y604525D01*
X521565Y603967D01*
X519202Y603466D01*
X516827Y603024D01*
X514442Y602640D01*
X512048Y602315D01*
X509647Y602049D01*
X507241Y601842D01*
X504829Y601694D01*
X502415Y601605D01*
X500000Y601575D01*
X497585Y601605D01*
X495171Y601694D01*
X492759Y601842D01*
X490353Y602049D01*
X487952Y602315D01*
X485558Y602640D01*
X483173Y603024D01*
X480798Y603466D01*
X478435Y603967D01*
X476085Y604525D01*
X473749Y605140D01*
X471429Y605813D01*
X469126Y606543D01*
X466842Y607329D01*
X464577Y608170D01*
X462334Y609067D01*
X460114Y610019D01*
X457918Y611025D01*
X455747Y612084D01*
X453603Y613197D01*
X451486Y614362D01*
X449399Y615578D01*
X447343Y616845D01*
X445318Y618163D01*
X443326Y619529D01*
X441368Y620944D01*
X439446Y622407D01*
X437560Y623916D01*
X435711Y625472D01*
X433902Y627072D01*
X432132Y628716D01*
X430403Y630403D01*
X428716Y632132D01*
X427072Y633902D01*
X425472Y635711D01*
X423916Y637560D01*
X422407Y639446D01*
X420944Y641368D01*
X419529Y643326D01*
X418163Y645318D01*
X416845Y647343D01*
X415578Y649399D01*
X414362Y651486D01*
X413197Y653603D01*
X412084Y655747D01*
X411025Y657918D01*
X410019Y660114D01*
X409067Y662334D01*
X408170Y664577D01*
X407329Y666842D01*
X406543Y669126D01*
X405813Y671429D01*
X405140Y673749D01*
X404525Y676085D01*
X403967Y678435D01*
X403466Y680798D01*
X403024Y683173D01*
X402640Y685558D01*
X402315Y687952D01*
X402049Y690353D01*
X401842Y692759D01*
X401694Y695171D01*
X401605Y697585D01*
X401575Y700000D01*
X555000Y729213D02*
X555000Y769213D01*
X555000Y670787D02*
X555000Y630787D01*
X575000Y650787D02*
X535000Y650787D01*
D11*
X642370Y683213D02*
X642370Y691073D01*
X642370Y683213D02*
X642368Y683023D01*
X642361Y682833D01*
X642349Y682644D01*
X642333Y682454D01*
X642313Y682266D01*
X642288Y682077D01*
X642258Y681890D01*
X642224Y681703D01*
X642185Y681517D01*
X642142Y681332D01*
X642094Y681148D01*
X642042Y680965D01*
X641985Y680784D01*
X641924Y680604D01*
X641859Y680426D01*
X641790Y680249D01*
X641716Y680074D01*
X641638Y679901D01*
X641556Y679730D01*
X641470Y679560D01*
X641379Y679393D01*
X641285Y679228D01*
X641187Y679066D01*
X641085Y678906D01*
X640979Y678748D01*
X640869Y678593D01*
X640755Y678441D01*
X640638Y678291D01*
X640518Y678145D01*
X640393Y678001D01*
X640266Y677860D01*
X640135Y677723D01*
X640000Y677588D01*
X639863Y677457D01*
X639722Y677330D01*
X639578Y677205D01*
X639432Y677085D01*
X639282Y676968D01*
X639130Y676854D01*
X638975Y676744D01*
X638817Y676638D01*
X638657Y676536D01*
X638495Y676438D01*
X638330Y676344D01*
X638163Y676253D01*
X637993Y676167D01*
X637822Y676085D01*
X637649Y676007D01*
X637474Y675933D01*
X637297Y675864D01*
X637119Y675799D01*
X636939Y675738D01*
X636758Y675681D01*
X636575Y675629D01*
X636391Y675581D01*
X636206Y675538D01*
X636020Y675499D01*
X635833Y675465D01*
X635646Y675435D01*
X635457Y675410D01*
X635269Y675390D01*
X635079Y675374D01*
X634890Y675362D01*
X634700Y675355D01*
X634510Y675353D01*
X614860Y675353D01*
X614667Y675355D01*
X614474Y675362D01*
X614282Y675374D01*
X614090Y675391D01*
X613898Y675412D01*
X613707Y675438D01*
X613516Y675469D01*
X613327Y675504D01*
X613138Y675544D01*
X612950Y675589D01*
X612764Y675638D01*
X612578Y675691D01*
X612395Y675750D01*
X612212Y675812D01*
X612031Y675880D01*
X611852Y675951D01*
X611675Y676027D01*
X611499Y676108D01*
X611326Y676192D01*
X611155Y676281D01*
X610986Y676374D01*
X610819Y676471D01*
X610655Y676572D01*
X610493Y676678D01*
X610334Y676787D01*
X610178Y676900D01*
X610024Y677017D01*
X609874Y677137D01*
X609726Y677261D01*
X609582Y677389D01*
X609440Y677520D01*
X609302Y677655D01*
X609168Y677793D01*
X609036Y677934D01*
X608908Y678079D01*
X608784Y678227D01*
X608664Y678377D01*
X608547Y678531D01*
X608434Y678687D01*
X608325Y678846D01*
X608220Y679008D01*
X608118Y679172D01*
X608021Y679339D01*
X607928Y679508D01*
X607839Y679679D01*
X607755Y679852D01*
X607674Y680028D01*
X607598Y680205D01*
X607527Y680384D01*
X607460Y680565D01*
X607397Y680747D01*
X607339Y680931D01*
X607285Y681116D01*
X607236Y681303D01*
X607191Y681491D01*
X607151Y681679D01*
X607116Y681869D01*
X607085Y682059D01*
X607059Y682251D01*
X607038Y682442D01*
X607021Y682635D01*
X607009Y682827D01*
X607002Y683020D01*
X607000Y683213D01*
X607000Y691073D01*
X642370Y704997D02*
X642370Y716787D01*
X642368Y716977D01*
X642361Y717167D01*
X642349Y717356D01*
X642333Y717546D01*
X642313Y717734D01*
X642288Y717923D01*
X642258Y718110D01*
X642224Y718297D01*
X642185Y718483D01*
X642142Y718668D01*
X642094Y718852D01*
X642042Y719035D01*
X641985Y719216D01*
X641924Y719396D01*
X641859Y719574D01*
X641790Y719751D01*
X641716Y719926D01*
X641638Y720099D01*
X641556Y720270D01*
X641470Y720440D01*
X641379Y720607D01*
X641285Y720772D01*
X641187Y720934D01*
X641085Y721094D01*
X640979Y721252D01*
X640869Y721407D01*
X640755Y721559D01*
X640638Y721709D01*
X640518Y721855D01*
X640393Y721999D01*
X640266Y722140D01*
X640135Y722277D01*
X640000Y722412D01*
X639863Y722543D01*
X639722Y722670D01*
X639578Y722795D01*
X639432Y722915D01*
X639282Y723032D01*
X639130Y723146D01*
X638975Y723256D01*
X638817Y723362D01*
X638657Y723464D01*
X638495Y723562D01*
X638330Y723656D01*
X638163Y723747D01*
X637993Y723833D01*
X637822Y723915D01*
X637649Y723993D01*
X637474Y724067D01*
X637297Y724136D01*
X637119Y724201D01*
X636939Y724262D01*
X636758Y724319D01*
X636575Y724371D01*
X636391Y724419D01*
X636206Y724462D01*
X636020Y724501D01*
X635833Y724535D01*
X635646Y724565D01*
X635457Y724590D01*
X635269Y724610D01*
X635079Y724626D01*
X634890Y724638D01*
X634700Y724645D01*
X634510Y724647D01*
X630580Y724647D01*
X630390Y724645D01*
X630200Y724638D01*
X630011Y724626D01*
X629821Y724610D01*
X629633Y724590D01*
X629444Y724565D01*
X629257Y724535D01*
X629070Y724501D01*
X628884Y724462D01*
X628699Y724419D01*
X628515Y724371D01*
X628332Y724319D01*
X628151Y724262D01*
X627971Y724201D01*
X627793Y724136D01*
X627616Y724067D01*
X627441Y723993D01*
X627268Y723915D01*
X627097Y723833D01*
X626927Y723747D01*
X626760Y723656D01*
X626595Y723562D01*
X626433Y723464D01*
X626273Y723362D01*
X626115Y723256D01*
X625960Y723146D01*
X625808Y723032D01*
X625658Y722915D01*
X625512Y722795D01*
X625368Y722670D01*
X625227Y722543D01*
X625090Y722412D01*
X624955Y722277D01*
X624824Y722140D01*
X624697Y721999D01*
X624572Y721855D01*
X624452Y721709D01*
X624335Y721559D01*
X624221Y721407D01*
X624111Y721252D01*
X624005Y721094D01*
X623903Y720934D01*
X623805Y720772D01*
X623711Y720607D01*
X623620Y720440D01*
X623534Y720270D01*
X623452Y720099D01*
X623374Y719926D01*
X623300Y719751D01*
X623231Y719574D01*
X623166Y719396D01*
X623105Y719216D01*
X623048Y719035D01*
X622996Y718852D01*
X622948Y718668D01*
X622905Y718483D01*
X622866Y718297D01*
X622832Y718110D01*
X622802Y717923D01*
X622777Y717734D01*
X622757Y717546D01*
X622741Y717356D01*
X622729Y717167D01*
X622722Y716977D01*
X622720Y716787D01*
X622720Y704997D01*
X607000Y704997D01*
X607000Y724647D01*
D10*
X1236575Y1010000D02*
X1236605Y1012415D01*
X1236694Y1014829D01*
X1236842Y1017241D01*
X1237049Y1019647D01*
X1237315Y1022048D01*
X1237640Y1024442D01*
X1238024Y1026827D01*
X1238466Y1029202D01*
X1238967Y1031565D01*
X1239525Y1033915D01*
X1240140Y1036251D01*
X1240813Y1038571D01*
X1241543Y1040874D01*
X1242329Y1043158D01*
X1243170Y1045423D01*
X1244067Y1047666D01*
X1245019Y1049886D01*
X1246025Y1052082D01*
X1247084Y1054253D01*
X1248197Y1056397D01*
X1249362Y1058514D01*
X1250578Y1060601D01*
X1251845Y1062657D01*
X1253163Y1064682D01*
X1254529Y1066674D01*
X1255944Y1068632D01*
X1257407Y1070554D01*
X1258916Y1072440D01*
X1260472Y1074289D01*
X1262072Y1076098D01*
X1263716Y1077868D01*
X1265403Y1079597D01*
X1267132Y1081284D01*
X1268902Y1082928D01*
X1270711Y1084528D01*
X1272560Y1086084D01*
X1274446Y1087593D01*
X1276368Y1089056D01*
X1278326Y1090471D01*
X1280318Y1091837D01*
X1282343Y1093155D01*
X1284399Y1094422D01*
X1286486Y1095638D01*
X1288603Y1096803D01*
X1290747Y1097916D01*
X1292918Y1098975D01*
X1295114Y1099981D01*
X1297334Y1100933D01*
X1299577Y1101830D01*
X1301842Y1102671D01*
X1304126Y1103457D01*
X1306429Y1104187D01*
X1308749Y1104860D01*
X1311085Y1105475D01*
X1313435Y1106033D01*
X1315798Y1106534D01*
X1318173Y1106976D01*
X1320558Y1107360D01*
X1322952Y1107685D01*
X1325353Y1107951D01*
X1327759Y1108158D01*
X1330171Y1108306D01*
X1332585Y1108395D01*
X1335000Y1108425D01*
X1337415Y1108395D01*
X1339829Y1108306D01*
X1342241Y1108158D01*
X1344647Y1107951D01*
X1347048Y1107685D01*
X1349442Y1107360D01*
X1351827Y1106976D01*
X1354202Y1106534D01*
X1356565Y1106033D01*
X1358915Y1105475D01*
X1361251Y1104860D01*
X1363571Y1104187D01*
X1365874Y1103457D01*
X1368158Y1102671D01*
X1370423Y1101830D01*
X1372666Y1100933D01*
X1374886Y1099981D01*
X1377082Y1098975D01*
X1379253Y1097916D01*
X1381397Y1096803D01*
X1383514Y1095638D01*
X1385601Y1094422D01*
X1387657Y1093155D01*
X1389682Y1091837D01*
X1391674Y1090471D01*
X1393632Y1089056D01*
X1395554Y1087593D01*
X1397440Y1086084D01*
X1399289Y1084528D01*
X1401098Y1082928D01*
X1402868Y1081284D01*
X1404597Y1079597D01*
X1406284Y1077868D01*
X1407928Y1076098D01*
X1409528Y1074289D01*
X1411084Y1072440D01*
X1412593Y1070554D01*
X1414056Y1068632D01*
X1415471Y1066674D01*
X1416837Y1064682D01*
X1418155Y1062657D01*
X1419422Y1060601D01*
X1420638Y1058514D01*
X1421803Y1056397D01*
X1422916Y1054253D01*
X1423975Y1052082D01*
X1424981Y1049886D01*
X1425933Y1047666D01*
X1426830Y1045423D01*
X1427671Y1043158D01*
X1428457Y1040874D01*
X1429187Y1038571D01*
X1429860Y1036251D01*
X1430475Y1033915D01*
X1431033Y1031565D01*
X1431534Y1029202D01*
X1431976Y1026827D01*
X1432360Y1024442D01*
X1432685Y1022048D01*
X1432951Y1019647D01*
X1433158Y1017241D01*
X1433306Y1014829D01*
X1433395Y1012415D01*
X1433425Y1010000D01*
X1433395Y1007585D01*
X1433306Y1005171D01*
X1433158Y1002759D01*
X1432951Y1000353D01*
X1432685Y997952D01*
X1432360Y995558D01*
X1431976Y993173D01*
X1431534Y990798D01*
X1431033Y988435D01*
X1430475Y986085D01*
X1429860Y983749D01*
X1429187Y981429D01*
X1428457Y979126D01*
X1427671Y976842D01*
X1426830Y974577D01*
X1425933Y972334D01*
X1424981Y970114D01*
X1423975Y967918D01*
X1422916Y965747D01*
X1421803Y963603D01*
X1420638Y961486D01*
X1419422Y959399D01*
X1418155Y957343D01*
X1416837Y955318D01*
X1415471Y953326D01*
X1414056Y951368D01*
X1412593Y949446D01*
X1411084Y947560D01*
X1409528Y945711D01*
X1407928Y943902D01*
X1406284Y942132D01*
X1404597Y940403D01*
X1402868Y938716D01*
X1401098Y937072D01*
X1399289Y935472D01*
X1397440Y933916D01*
X1395554Y932407D01*
X1393632Y930944D01*
X1391674Y929529D01*
X1389682Y928163D01*
X1387657Y926845D01*
X1385601Y925578D01*
X1383514Y924362D01*
X1381397Y923197D01*
X1379253Y922084D01*
X1377082Y921025D01*
X1374886Y920019D01*
X1372666Y919067D01*
X1370423Y918170D01*
X1368158Y917329D01*
X1365874Y916543D01*
X1363571Y915813D01*
X1361251Y915140D01*
X1358915Y914525D01*
X1356565Y913967D01*
X1354202Y913466D01*
X1351827Y913024D01*
X1349442Y912640D01*
X1347048Y912315D01*
X1344647Y912049D01*
X1342241Y911842D01*
X1339829Y911694D01*
X1337415Y911605D01*
X1335000Y911575D01*
X1332585Y911605D01*
X1330171Y911694D01*
X1327759Y911842D01*
X1325353Y912049D01*
X1322952Y912315D01*
X1320558Y912640D01*
X1318173Y913024D01*
X1315798Y913466D01*
X1313435Y913967D01*
X1311085Y914525D01*
X1308749Y915140D01*
X1306429Y915813D01*
X1304126Y916543D01*
X1301842Y917329D01*
X1299577Y918170D01*
X1297334Y919067D01*
X1295114Y920019D01*
X1292918Y921025D01*
X1290747Y922084D01*
X1288603Y923197D01*
X1286486Y924362D01*
X1284399Y925578D01*
X1282343Y926845D01*
X1280318Y928163D01*
X1278326Y929529D01*
X1276368Y930944D01*
X1274446Y932407D01*
X1272560Y933916D01*
X1270711Y935472D01*
X1268902Y937072D01*
X1267132Y938716D01*
X1265403Y940403D01*
X1263716Y942132D01*
X1262072Y943902D01*
X1260472Y945711D01*
X1258916Y947560D01*
X1257407Y949446D01*
X1255944Y951368D01*
X1254529Y953326D01*
X1253163Y955318D01*
X1251845Y957343D01*
X1250578Y959399D01*
X1249362Y961486D01*
X1248197Y963603D01*
X1247084Y965747D01*
X1246025Y967918D01*
X1245019Y970114D01*
X1244067Y972334D01*
X1243170Y974577D01*
X1242329Y976842D01*
X1241543Y979126D01*
X1240813Y981429D01*
X1240140Y983749D01*
X1239525Y986085D01*
X1238967Y988435D01*
X1238466Y990798D01*
X1238024Y993173D01*
X1237640Y995558D01*
X1237315Y997952D01*
X1237049Y1000353D01*
X1236842Y1002759D01*
X1236694Y1005171D01*
X1236605Y1007585D01*
X1236575Y1010000D01*
X1280000Y980787D02*
X1280000Y940787D01*
X1280000Y1039213D02*
X1280000Y1079213D01*
X1260000Y1059213D02*
X1300000Y1059213D01*
D11*
X1228000Y1001073D02*
X1228000Y993213D01*
X1227998Y993023D01*
X1227991Y992833D01*
X1227979Y992644D01*
X1227963Y992454D01*
X1227943Y992266D01*
X1227918Y992077D01*
X1227888Y991890D01*
X1227854Y991703D01*
X1227815Y991517D01*
X1227772Y991332D01*
X1227724Y991148D01*
X1227672Y990965D01*
X1227615Y990784D01*
X1227554Y990604D01*
X1227489Y990426D01*
X1227420Y990249D01*
X1227346Y990074D01*
X1227268Y989901D01*
X1227186Y989730D01*
X1227100Y989560D01*
X1227009Y989393D01*
X1226915Y989228D01*
X1226817Y989066D01*
X1226715Y988906D01*
X1226609Y988748D01*
X1226499Y988593D01*
X1226385Y988441D01*
X1226268Y988291D01*
X1226148Y988145D01*
X1226023Y988001D01*
X1225896Y987860D01*
X1225765Y987723D01*
X1225630Y987588D01*
X1225493Y987457D01*
X1225352Y987330D01*
X1225208Y987205D01*
X1225062Y987085D01*
X1224912Y986968D01*
X1224760Y986854D01*
X1224605Y986744D01*
X1224447Y986638D01*
X1224287Y986536D01*
X1224125Y986438D01*
X1223960Y986344D01*
X1223793Y986253D01*
X1223623Y986167D01*
X1223452Y986085D01*
X1223279Y986007D01*
X1223104Y985933D01*
X1222927Y985864D01*
X1222749Y985799D01*
X1222569Y985738D01*
X1222388Y985681D01*
X1222205Y985629D01*
X1222021Y985581D01*
X1221836Y985538D01*
X1221650Y985499D01*
X1221463Y985465D01*
X1221276Y985435D01*
X1221087Y985410D01*
X1220899Y985390D01*
X1220709Y985374D01*
X1220520Y985362D01*
X1220330Y985355D01*
X1220140Y985353D01*
X1200490Y985353D01*
X1200297Y985355D01*
X1200104Y985362D01*
X1199912Y985374D01*
X1199720Y985391D01*
X1199528Y985412D01*
X1199337Y985438D01*
X1199146Y985469D01*
X1198957Y985504D01*
X1198768Y985544D01*
X1198580Y985589D01*
X1198394Y985638D01*
X1198208Y985691D01*
X1198025Y985750D01*
X1197842Y985812D01*
X1197661Y985880D01*
X1197482Y985951D01*
X1197305Y986027D01*
X1197129Y986108D01*
X1196956Y986192D01*
X1196785Y986281D01*
X1196616Y986374D01*
X1196449Y986471D01*
X1196285Y986572D01*
X1196123Y986678D01*
X1195964Y986787D01*
X1195808Y986900D01*
X1195654Y987017D01*
X1195504Y987137D01*
X1195356Y987261D01*
X1195212Y987389D01*
X1195070Y987520D01*
X1194932Y987655D01*
X1194798Y987793D01*
X1194666Y987934D01*
X1194538Y988079D01*
X1194414Y988227D01*
X1194294Y988377D01*
X1194177Y988531D01*
X1194064Y988687D01*
X1193955Y988846D01*
X1193850Y989008D01*
X1193748Y989172D01*
X1193651Y989339D01*
X1193558Y989508D01*
X1193469Y989679D01*
X1193385Y989852D01*
X1193304Y990028D01*
X1193228Y990205D01*
X1193157Y990384D01*
X1193090Y990565D01*
X1193027Y990747D01*
X1192969Y990931D01*
X1192915Y991116D01*
X1192866Y991303D01*
X1192821Y991491D01*
X1192781Y991679D01*
X1192746Y991869D01*
X1192715Y992059D01*
X1192689Y992251D01*
X1192668Y992442D01*
X1192651Y992635D01*
X1192639Y992827D01*
X1192632Y993020D01*
X1192630Y993213D01*
X1192630Y1001073D01*
X1208350Y1014997D02*
X1208350Y1026787D01*
X1208352Y1026977D01*
X1208359Y1027167D01*
X1208371Y1027356D01*
X1208387Y1027546D01*
X1208407Y1027734D01*
X1208432Y1027923D01*
X1208462Y1028110D01*
X1208496Y1028297D01*
X1208535Y1028483D01*
X1208578Y1028668D01*
X1208626Y1028852D01*
X1208678Y1029035D01*
X1208735Y1029216D01*
X1208796Y1029396D01*
X1208861Y1029574D01*
X1208930Y1029751D01*
X1209004Y1029926D01*
X1209082Y1030099D01*
X1209164Y1030270D01*
X1209250Y1030440D01*
X1209341Y1030607D01*
X1209435Y1030772D01*
X1209533Y1030934D01*
X1209635Y1031094D01*
X1209741Y1031252D01*
X1209851Y1031407D01*
X1209965Y1031559D01*
X1210082Y1031709D01*
X1210202Y1031855D01*
X1210327Y1031999D01*
X1210454Y1032140D01*
X1210585Y1032277D01*
X1210720Y1032412D01*
X1210857Y1032543D01*
X1210998Y1032670D01*
X1211142Y1032795D01*
X1211288Y1032915D01*
X1211438Y1033032D01*
X1211590Y1033146D01*
X1211745Y1033256D01*
X1211903Y1033362D01*
X1212063Y1033464D01*
X1212225Y1033562D01*
X1212390Y1033656D01*
X1212557Y1033747D01*
X1212727Y1033833D01*
X1212898Y1033915D01*
X1213071Y1033993D01*
X1213246Y1034067D01*
X1213423Y1034136D01*
X1213601Y1034201D01*
X1213781Y1034262D01*
X1213962Y1034319D01*
X1214145Y1034371D01*
X1214329Y1034419D01*
X1214514Y1034462D01*
X1214700Y1034501D01*
X1214887Y1034535D01*
X1215074Y1034565D01*
X1215263Y1034590D01*
X1215451Y1034610D01*
X1215641Y1034626D01*
X1215830Y1034638D01*
X1216020Y1034645D01*
X1216210Y1034647D01*
X1218175Y1034647D01*
X1218414Y1034644D01*
X1218653Y1034635D01*
X1218892Y1034621D01*
X1219131Y1034600D01*
X1219368Y1034574D01*
X1219606Y1034542D01*
X1219842Y1034505D01*
X1220077Y1034461D01*
X1220311Y1034412D01*
X1220544Y1034357D01*
X1220776Y1034297D01*
X1221006Y1034230D01*
X1221234Y1034159D01*
X1221460Y1034081D01*
X1221685Y1033999D01*
X1221907Y1033911D01*
X1222127Y1033817D01*
X1222345Y1033718D01*
X1222561Y1033614D01*
X1222773Y1033504D01*
X1222984Y1033390D01*
X1223191Y1033270D01*
X1223395Y1033146D01*
X1223596Y1033016D01*
X1223794Y1032882D01*
X1223989Y1032742D01*
X1224180Y1032598D01*
X1224367Y1032450D01*
X1224551Y1032297D01*
X1224731Y1032139D01*
X1224908Y1031978D01*
X1225080Y1031811D01*
X1225248Y1031641D01*
X1225412Y1031467D01*
X1225572Y1031289D01*
X1225727Y1031107D01*
X1225878Y1030921D01*
X1226024Y1030732D01*
X1226166Y1030539D01*
X1226302Y1030342D01*
X1226434Y1030143D01*
X1226562Y1029940D01*
X1226684Y1029735D01*
X1226801Y1029526D01*
X1226913Y1029314D01*
X1227020Y1029100D01*
X1227121Y1028884D01*
X1227217Y1028665D01*
X1227308Y1028443D01*
X1227394Y1028220D01*
X1227474Y1027994D01*
X1227548Y1027767D01*
X1227617Y1027538D01*
X1227681Y1027307D01*
X1227738Y1027075D01*
X1227790Y1026841D01*
X1227837Y1026607D01*
X1227877Y1026371D01*
X1227912Y1026134D01*
X1227941Y1025897D01*
X1227964Y1025658D01*
X1227982Y1025420D01*
X1227993Y1025181D01*
X1227999Y1024942D01*
X1227999Y1024702D01*
X1227993Y1024463D01*
X1227982Y1024224D01*
X1227964Y1023986D01*
X1227941Y1023747D01*
X1227912Y1023510D01*
X1227877Y1023273D01*
X1227837Y1023037D01*
X1227790Y1022803D01*
X1227738Y1022569D01*
X1227681Y1022337D01*
X1227617Y1022106D01*
X1227548Y1021877D01*
X1227474Y1021650D01*
X1227394Y1021424D01*
X1227308Y1021201D01*
X1227217Y1020979D01*
X1227121Y1020760D01*
X1227020Y1020544D01*
X1226913Y1020330D01*
X1226801Y1020118D01*
X1226684Y1019910D01*
X1226562Y1019704D01*
X1226434Y1019501D01*
X1226302Y1019302D01*
X1226166Y1019105D01*
X1226024Y1018912D01*
X1225878Y1018723D01*
X1225727Y1018537D01*
X1225572Y1018355D01*
X1225412Y1018177D01*
X1225248Y1018003D01*
X1225080Y1017833D01*
X1224908Y1017666D01*
X1224731Y1017505D01*
X1224551Y1017347D01*
X1224367Y1017194D01*
X1224180Y1017046D01*
X1223989Y1016902D01*
X1223794Y1016762D01*
X1223596Y1016628D01*
X1223395Y1016498D01*
X1223191Y1016374D01*
X1222984Y1016254D01*
X1222773Y1016140D01*
X1222561Y1016030D01*
X1222345Y1015926D01*
X1222127Y1015827D01*
X1221907Y1015733D01*
X1221685Y1015645D01*
X1221460Y1015563D01*
X1221234Y1015485D01*
X1221006Y1015414D01*
X1220776Y1015347D01*
X1220544Y1015287D01*
X1220311Y1015232D01*
X1220077Y1015183D01*
X1219842Y1015139D01*
X1219606Y1015102D01*
X1219368Y1015070D01*
X1219131Y1015044D01*
X1218892Y1015023D01*
X1218653Y1015009D01*
X1218414Y1015000D01*
X1218175Y1014997D01*
X1208350Y1014997D01*
X1207964Y1015002D01*
X1207579Y1015016D01*
X1207194Y1015040D01*
X1206809Y1015073D01*
X1206426Y1015115D01*
X1206043Y1015167D01*
X1205663Y1015228D01*
X1205283Y1015299D01*
X1204906Y1015379D01*
X1204530Y1015468D01*
X1204157Y1015566D01*
X1203787Y1015674D01*
X1203419Y1015790D01*
X1203054Y1015916D01*
X1202693Y1016050D01*
X1202334Y1016194D01*
X1201980Y1016346D01*
X1201629Y1016506D01*
X1201282Y1016675D01*
X1200940Y1016853D01*
X1200602Y1017039D01*
X1200268Y1017233D01*
X1199940Y1017436D01*
X1199617Y1017646D01*
X1199298Y1017865D01*
X1198986Y1018091D01*
X1198679Y1018324D01*
X1198377Y1018565D01*
X1198082Y1018814D01*
X1197793Y1019069D01*
X1197511Y1019332D01*
X1197234Y1019601D01*
X1196965Y1019877D01*
X1196702Y1020160D01*
X1196447Y1020449D01*
X1196198Y1020744D01*
X1195957Y1021045D01*
X1195724Y1021352D01*
X1195498Y1021665D01*
X1195279Y1021983D01*
X1195069Y1022307D01*
X1194867Y1022635D01*
X1194672Y1022968D01*
X1194486Y1023306D01*
X1194309Y1023649D01*
X1194139Y1023996D01*
X1193979Y1024346D01*
X1193827Y1024701D01*
X1193683Y1025059D01*
X1193549Y1025421D01*
X1193423Y1025786D01*
X1193307Y1026154D01*
X1193199Y1026524D01*
X1193101Y1026897D01*
X1193012Y1027273D01*
X1192932Y1027650D01*
X1192861Y1028029D01*
X1192800Y1028410D01*
X1192748Y1028792D01*
X1192706Y1029176D01*
X1192673Y1029560D01*
X1192649Y1029945D01*
X1192635Y1030331D01*
X1192630Y1030717D01*
D10*
X1081575Y285000D02*
X1081605Y287415D01*
X1081694Y289829D01*
X1081842Y292241D01*
X1082049Y294647D01*
X1082315Y297048D01*
X1082640Y299442D01*
X1083024Y301827D01*
X1083466Y304202D01*
X1083967Y306565D01*
X1084525Y308915D01*
X1085140Y311251D01*
X1085813Y313571D01*
X1086543Y315874D01*
X1087329Y318158D01*
X1088170Y320423D01*
X1089067Y322666D01*
X1090019Y324886D01*
X1091025Y327082D01*
X1092084Y329253D01*
X1093197Y331397D01*
X1094362Y333514D01*
X1095578Y335601D01*
X1096845Y337657D01*
X1098163Y339682D01*
X1099529Y341674D01*
X1100944Y343632D01*
X1102407Y345554D01*
X1103916Y347440D01*
X1105472Y349289D01*
X1107072Y351098D01*
X1108716Y352868D01*
X1110403Y354597D01*
X1112132Y356284D01*
X1113902Y357928D01*
X1115711Y359528D01*
X1117560Y361084D01*
X1119446Y362593D01*
X1121368Y364056D01*
X1123326Y365471D01*
X1125318Y366837D01*
X1127343Y368155D01*
X1129399Y369422D01*
X1131486Y370638D01*
X1133603Y371803D01*
X1135747Y372916D01*
X1137918Y373975D01*
X1140114Y374981D01*
X1142334Y375933D01*
X1144577Y376830D01*
X1146842Y377671D01*
X1149126Y378457D01*
X1151429Y379187D01*
X1153749Y379860D01*
X1156085Y380475D01*
X1158435Y381033D01*
X1160798Y381534D01*
X1163173Y381976D01*
X1165558Y382360D01*
X1167952Y382685D01*
X1170353Y382951D01*
X1172759Y383158D01*
X1175171Y383306D01*
X1177585Y383395D01*
X1180000Y383425D01*
X1182415Y383395D01*
X1184829Y383306D01*
X1187241Y383158D01*
X1189647Y382951D01*
X1192048Y382685D01*
X1194442Y382360D01*
X1196827Y381976D01*
X1199202Y381534D01*
X1201565Y381033D01*
X1203915Y380475D01*
X1206251Y379860D01*
X1208571Y379187D01*
X1210874Y378457D01*
X1213158Y377671D01*
X1215423Y376830D01*
X1217666Y375933D01*
X1219886Y374981D01*
X1222082Y373975D01*
X1224253Y372916D01*
X1226397Y371803D01*
X1228514Y370638D01*
X1230601Y369422D01*
X1232657Y368155D01*
X1234682Y366837D01*
X1236674Y365471D01*
X1238632Y364056D01*
X1240554Y362593D01*
X1242440Y361084D01*
X1244289Y359528D01*
X1246098Y357928D01*
X1247868Y356284D01*
X1249597Y354597D01*
X1251284Y352868D01*
X1252928Y351098D01*
X1254528Y349289D01*
X1256084Y347440D01*
X1257593Y345554D01*
X1259056Y343632D01*
X1260471Y341674D01*
X1261837Y339682D01*
X1263155Y337657D01*
X1264422Y335601D01*
X1265638Y333514D01*
X1266803Y331397D01*
X1267916Y329253D01*
X1268975Y327082D01*
X1269981Y324886D01*
X1270933Y322666D01*
X1271830Y320423D01*
X1272671Y318158D01*
X1273457Y315874D01*
X1274187Y313571D01*
X1274860Y311251D01*
X1275475Y308915D01*
X1276033Y306565D01*
X1276534Y304202D01*
X1276976Y301827D01*
X1277360Y299442D01*
X1277685Y297048D01*
X1277951Y294647D01*
X1278158Y292241D01*
X1278306Y289829D01*
X1278395Y287415D01*
X1278425Y285000D01*
X1278395Y282585D01*
X1278306Y280171D01*
X1278158Y277759D01*
X1277951Y275353D01*
X1277685Y272952D01*
X1277360Y270558D01*
X1276976Y268173D01*
X1276534Y265798D01*
X1276033Y263435D01*
X1275475Y261085D01*
X1274860Y258749D01*
X1274187Y256429D01*
X1273457Y254126D01*
X1272671Y251842D01*
X1271830Y249577D01*
X1270933Y247334D01*
X1269981Y245114D01*
X1268975Y242918D01*
X1267916Y240747D01*
X1266803Y238603D01*
X1265638Y236486D01*
X1264422Y234399D01*
X1263155Y232343D01*
X1261837Y230318D01*
X1260471Y228326D01*
X1259056Y226368D01*
X1257593Y224446D01*
X1256084Y222560D01*
X1254528Y220711D01*
X1252928Y218902D01*
X1251284Y217132D01*
X1249597Y215403D01*
X1247868Y213716D01*
X1246098Y212072D01*
X1244289Y210472D01*
X1242440Y208916D01*
X1240554Y207407D01*
X1238632Y205944D01*
X1236674Y204529D01*
X1234682Y203163D01*
X1232657Y201845D01*
X1230601Y200578D01*
X1228514Y199362D01*
X1226397Y198197D01*
X1224253Y197084D01*
X1222082Y196025D01*
X1219886Y195019D01*
X1217666Y194067D01*
X1215423Y193170D01*
X1213158Y192329D01*
X1210874Y191543D01*
X1208571Y190813D01*
X1206251Y190140D01*
X1203915Y189525D01*
X1201565Y188967D01*
X1199202Y188466D01*
X1196827Y188024D01*
X1194442Y187640D01*
X1192048Y187315D01*
X1189647Y187049D01*
X1187241Y186842D01*
X1184829Y186694D01*
X1182415Y186605D01*
X1180000Y186575D01*
X1177585Y186605D01*
X1175171Y186694D01*
X1172759Y186842D01*
X1170353Y187049D01*
X1167952Y187315D01*
X1165558Y187640D01*
X1163173Y188024D01*
X1160798Y188466D01*
X1158435Y188967D01*
X1156085Y189525D01*
X1153749Y190140D01*
X1151429Y190813D01*
X1149126Y191543D01*
X1146842Y192329D01*
X1144577Y193170D01*
X1142334Y194067D01*
X1140114Y195019D01*
X1137918Y196025D01*
X1135747Y197084D01*
X1133603Y198197D01*
X1131486Y199362D01*
X1129399Y200578D01*
X1127343Y201845D01*
X1125318Y203163D01*
X1123326Y204529D01*
X1121368Y205944D01*
X1119446Y207407D01*
X1117560Y208916D01*
X1115711Y210472D01*
X1113902Y212072D01*
X1112132Y213716D01*
X1110403Y215403D01*
X1108716Y217132D01*
X1107072Y218902D01*
X1105472Y220711D01*
X1103916Y222560D01*
X1102407Y224446D01*
X1100944Y226368D01*
X1099529Y228326D01*
X1098163Y230318D01*
X1096845Y232343D01*
X1095578Y234399D01*
X1094362Y236486D01*
X1093197Y238603D01*
X1092084Y240747D01*
X1091025Y242918D01*
X1090019Y245114D01*
X1089067Y247334D01*
X1088170Y249577D01*
X1087329Y251842D01*
X1086543Y254126D01*
X1085813Y256429D01*
X1085140Y258749D01*
X1084525Y261085D01*
X1083967Y263435D01*
X1083466Y265798D01*
X1083024Y268173D01*
X1082640Y270558D01*
X1082315Y272952D01*
X1082049Y275353D01*
X1081842Y277759D01*
X1081694Y280171D01*
X1081605Y282585D01*
X1081575Y285000D01*
X1125000Y255787D02*
X1125000Y215787D01*
X1125000Y314213D02*
X1125000Y354213D01*
X1105000Y334213D02*
X1145000Y334213D01*
D11*
X1073000Y276073D02*
X1073000Y268213D01*
X1072998Y268023D01*
X1072991Y267833D01*
X1072979Y267644D01*
X1072963Y267454D01*
X1072943Y267266D01*
X1072918Y267077D01*
X1072888Y266890D01*
X1072854Y266703D01*
X1072815Y266517D01*
X1072772Y266332D01*
X1072724Y266148D01*
X1072672Y265965D01*
X1072615Y265784D01*
X1072554Y265604D01*
X1072489Y265426D01*
X1072420Y265249D01*
X1072346Y265074D01*
X1072268Y264901D01*
X1072186Y264730D01*
X1072100Y264560D01*
X1072009Y264393D01*
X1071915Y264228D01*
X1071817Y264066D01*
X1071715Y263906D01*
X1071609Y263748D01*
X1071499Y263593D01*
X1071385Y263441D01*
X1071268Y263291D01*
X1071148Y263145D01*
X1071023Y263001D01*
X1070896Y262860D01*
X1070765Y262723D01*
X1070630Y262588D01*
X1070493Y262457D01*
X1070352Y262330D01*
X1070208Y262205D01*
X1070062Y262085D01*
X1069912Y261968D01*
X1069760Y261854D01*
X1069605Y261744D01*
X1069447Y261638D01*
X1069287Y261536D01*
X1069125Y261438D01*
X1068960Y261344D01*
X1068793Y261253D01*
X1068623Y261167D01*
X1068452Y261085D01*
X1068279Y261007D01*
X1068104Y260933D01*
X1067927Y260864D01*
X1067749Y260799D01*
X1067569Y260738D01*
X1067388Y260681D01*
X1067205Y260629D01*
X1067021Y260581D01*
X1066836Y260538D01*
X1066650Y260499D01*
X1066463Y260465D01*
X1066276Y260435D01*
X1066087Y260410D01*
X1065899Y260390D01*
X1065709Y260374D01*
X1065520Y260362D01*
X1065330Y260355D01*
X1065140Y260353D01*
X1045490Y260353D01*
X1045297Y260355D01*
X1045104Y260362D01*
X1044912Y260374D01*
X1044720Y260391D01*
X1044528Y260412D01*
X1044337Y260438D01*
X1044146Y260469D01*
X1043957Y260504D01*
X1043768Y260544D01*
X1043580Y260589D01*
X1043394Y260638D01*
X1043208Y260691D01*
X1043025Y260750D01*
X1042842Y260812D01*
X1042661Y260880D01*
X1042482Y260951D01*
X1042305Y261027D01*
X1042129Y261108D01*
X1041956Y261192D01*
X1041785Y261281D01*
X1041616Y261374D01*
X1041449Y261471D01*
X1041285Y261572D01*
X1041123Y261678D01*
X1040964Y261787D01*
X1040808Y261900D01*
X1040654Y262017D01*
X1040504Y262137D01*
X1040356Y262261D01*
X1040212Y262389D01*
X1040070Y262520D01*
X1039932Y262655D01*
X1039798Y262793D01*
X1039666Y262934D01*
X1039538Y263079D01*
X1039414Y263227D01*
X1039294Y263377D01*
X1039177Y263531D01*
X1039064Y263687D01*
X1038955Y263846D01*
X1038850Y264008D01*
X1038748Y264172D01*
X1038651Y264339D01*
X1038558Y264508D01*
X1038469Y264679D01*
X1038385Y264852D01*
X1038304Y265028D01*
X1038228Y265205D01*
X1038157Y265384D01*
X1038090Y265565D01*
X1038027Y265747D01*
X1037969Y265931D01*
X1037915Y266116D01*
X1037866Y266303D01*
X1037821Y266491D01*
X1037781Y266679D01*
X1037746Y266869D01*
X1037715Y267059D01*
X1037689Y267251D01*
X1037668Y267442D01*
X1037651Y267635D01*
X1037639Y267827D01*
X1037632Y268020D01*
X1037630Y268213D01*
X1037630Y276073D01*
X1037630Y289997D02*
X1041560Y289997D01*
X1037630Y289997D02*
X1037630Y309647D01*
X1073000Y299822D01*
D10*
X1101575Y1270000D02*
X1101605Y1272415D01*
X1101694Y1274829D01*
X1101842Y1277241D01*
X1102049Y1279647D01*
X1102315Y1282048D01*
X1102640Y1284442D01*
X1103024Y1286827D01*
X1103466Y1289202D01*
X1103967Y1291565D01*
X1104525Y1293915D01*
X1105140Y1296251D01*
X1105813Y1298571D01*
X1106543Y1300874D01*
X1107329Y1303158D01*
X1108170Y1305423D01*
X1109067Y1307666D01*
X1110019Y1309886D01*
X1111025Y1312082D01*
X1112084Y1314253D01*
X1113197Y1316397D01*
X1114362Y1318514D01*
X1115578Y1320601D01*
X1116845Y1322657D01*
X1118163Y1324682D01*
X1119529Y1326674D01*
X1120944Y1328632D01*
X1122407Y1330554D01*
X1123916Y1332440D01*
X1125472Y1334289D01*
X1127072Y1336098D01*
X1128716Y1337868D01*
X1130403Y1339597D01*
X1132132Y1341284D01*
X1133902Y1342928D01*
X1135711Y1344528D01*
X1137560Y1346084D01*
X1139446Y1347593D01*
X1141368Y1349056D01*
X1143326Y1350471D01*
X1145318Y1351837D01*
X1147343Y1353155D01*
X1149399Y1354422D01*
X1151486Y1355638D01*
X1153603Y1356803D01*
X1155747Y1357916D01*
X1157918Y1358975D01*
X1160114Y1359981D01*
X1162334Y1360933D01*
X1164577Y1361830D01*
X1166842Y1362671D01*
X1169126Y1363457D01*
X1171429Y1364187D01*
X1173749Y1364860D01*
X1176085Y1365475D01*
X1178435Y1366033D01*
X1180798Y1366534D01*
X1183173Y1366976D01*
X1185558Y1367360D01*
X1187952Y1367685D01*
X1190353Y1367951D01*
X1192759Y1368158D01*
X1195171Y1368306D01*
X1197585Y1368395D01*
X1200000Y1368425D01*
X1202415Y1368395D01*
X1204829Y1368306D01*
X1207241Y1368158D01*
X1209647Y1367951D01*
X1212048Y1367685D01*
X1214442Y1367360D01*
X1216827Y1366976D01*
X1219202Y1366534D01*
X1221565Y1366033D01*
X1223915Y1365475D01*
X1226251Y1364860D01*
X1228571Y1364187D01*
X1230874Y1363457D01*
X1233158Y1362671D01*
X1235423Y1361830D01*
X1237666Y1360933D01*
X1239886Y1359981D01*
X1242082Y1358975D01*
X1244253Y1357916D01*
X1246397Y1356803D01*
X1248514Y1355638D01*
X1250601Y1354422D01*
X1252657Y1353155D01*
X1254682Y1351837D01*
X1256674Y1350471D01*
X1258632Y1349056D01*
X1260554Y1347593D01*
X1262440Y1346084D01*
X1264289Y1344528D01*
X1266098Y1342928D01*
X1267868Y1341284D01*
X1269597Y1339597D01*
X1271284Y1337868D01*
X1272928Y1336098D01*
X1274528Y1334289D01*
X1276084Y1332440D01*
X1277593Y1330554D01*
X1279056Y1328632D01*
X1280471Y1326674D01*
X1281837Y1324682D01*
X1283155Y1322657D01*
X1284422Y1320601D01*
X1285638Y1318514D01*
X1286803Y1316397D01*
X1287916Y1314253D01*
X1288975Y1312082D01*
X1289981Y1309886D01*
X1290933Y1307666D01*
X1291830Y1305423D01*
X1292671Y1303158D01*
X1293457Y1300874D01*
X1294187Y1298571D01*
X1294860Y1296251D01*
X1295475Y1293915D01*
X1296033Y1291565D01*
X1296534Y1289202D01*
X1296976Y1286827D01*
X1297360Y1284442D01*
X1297685Y1282048D01*
X1297951Y1279647D01*
X1298158Y1277241D01*
X1298306Y1274829D01*
X1298395Y1272415D01*
X1298425Y1270000D01*
X1298395Y1267585D01*
X1298306Y1265171D01*
X1298158Y1262759D01*
X1297951Y1260353D01*
X1297685Y1257952D01*
X1297360Y1255558D01*
X1296976Y1253173D01*
X1296534Y1250798D01*
X1296033Y1248435D01*
X1295475Y1246085D01*
X1294860Y1243749D01*
X1294187Y1241429D01*
X1293457Y1239126D01*
X1292671Y1236842D01*
X1291830Y1234577D01*
X1290933Y1232334D01*
X1289981Y1230114D01*
X1288975Y1227918D01*
X1287916Y1225747D01*
X1286803Y1223603D01*
X1285638Y1221486D01*
X1284422Y1219399D01*
X1283155Y1217343D01*
X1281837Y1215318D01*
X1280471Y1213326D01*
X1279056Y1211368D01*
X1277593Y1209446D01*
X1276084Y1207560D01*
X1274528Y1205711D01*
X1272928Y1203902D01*
X1271284Y1202132D01*
X1269597Y1200403D01*
X1267868Y1198716D01*
X1266098Y1197072D01*
X1264289Y1195472D01*
X1262440Y1193916D01*
X1260554Y1192407D01*
X1258632Y1190944D01*
X1256674Y1189529D01*
X1254682Y1188163D01*
X1252657Y1186845D01*
X1250601Y1185578D01*
X1248514Y1184362D01*
X1246397Y1183197D01*
X1244253Y1182084D01*
X1242082Y1181025D01*
X1239886Y1180019D01*
X1237666Y1179067D01*
X1235423Y1178170D01*
X1233158Y1177329D01*
X1230874Y1176543D01*
X1228571Y1175813D01*
X1226251Y1175140D01*
X1223915Y1174525D01*
X1221565Y1173967D01*
X1219202Y1173466D01*
X1216827Y1173024D01*
X1214442Y1172640D01*
X1212048Y1172315D01*
X1209647Y1172049D01*
X1207241Y1171842D01*
X1204829Y1171694D01*
X1202415Y1171605D01*
X1200000Y1171575D01*
X1197585Y1171605D01*
X1195171Y1171694D01*
X1192759Y1171842D01*
X1190353Y1172049D01*
X1187952Y1172315D01*
X1185558Y1172640D01*
X1183173Y1173024D01*
X1180798Y1173466D01*
X1178435Y1173967D01*
X1176085Y1174525D01*
X1173749Y1175140D01*
X1171429Y1175813D01*
X1169126Y1176543D01*
X1166842Y1177329D01*
X1164577Y1178170D01*
X1162334Y1179067D01*
X1160114Y1180019D01*
X1157918Y1181025D01*
X1155747Y1182084D01*
X1153603Y1183197D01*
X1151486Y1184362D01*
X1149399Y1185578D01*
X1147343Y1186845D01*
X1145318Y1188163D01*
X1143326Y1189529D01*
X1141368Y1190944D01*
X1139446Y1192407D01*
X1137560Y1193916D01*
X1135711Y1195472D01*
X1133902Y1197072D01*
X1132132Y1198716D01*
X1130403Y1200403D01*
X1128716Y1202132D01*
X1127072Y1203902D01*
X1125472Y1205711D01*
X1123916Y1207560D01*
X1122407Y1209446D01*
X1120944Y1211368D01*
X1119529Y1213326D01*
X1118163Y1215318D01*
X1116845Y1217343D01*
X1115578Y1219399D01*
X1114362Y1221486D01*
X1113197Y1223603D01*
X1112084Y1225747D01*
X1111025Y1227918D01*
X1110019Y1230114D01*
X1109067Y1232334D01*
X1108170Y1234577D01*
X1107329Y1236842D01*
X1106543Y1239126D01*
X1105813Y1241429D01*
X1105140Y1243749D01*
X1104525Y1246085D01*
X1103967Y1248435D01*
X1103466Y1250798D01*
X1103024Y1253173D01*
X1102640Y1255558D01*
X1102315Y1257952D01*
X1102049Y1260353D01*
X1101842Y1262759D01*
X1101694Y1265171D01*
X1101605Y1267585D01*
X1101575Y1270000D01*
X1145000Y1240787D02*
X1145000Y1200787D01*
X1145000Y1299213D02*
X1145000Y1339213D01*
X1125000Y1319213D02*
X1165000Y1319213D01*
D11*
X1093000Y1261073D02*
X1093000Y1253213D01*
X1092998Y1253023D01*
X1092991Y1252833D01*
X1092979Y1252644D01*
X1092963Y1252454D01*
X1092943Y1252266D01*
X1092918Y1252077D01*
X1092888Y1251890D01*
X1092854Y1251703D01*
X1092815Y1251517D01*
X1092772Y1251332D01*
X1092724Y1251148D01*
X1092672Y1250965D01*
X1092615Y1250784D01*
X1092554Y1250604D01*
X1092489Y1250426D01*
X1092420Y1250249D01*
X1092346Y1250074D01*
X1092268Y1249901D01*
X1092186Y1249730D01*
X1092100Y1249560D01*
X1092009Y1249393D01*
X1091915Y1249228D01*
X1091817Y1249066D01*
X1091715Y1248906D01*
X1091609Y1248748D01*
X1091499Y1248593D01*
X1091385Y1248441D01*
X1091268Y1248291D01*
X1091148Y1248145D01*
X1091023Y1248001D01*
X1090896Y1247860D01*
X1090765Y1247723D01*
X1090630Y1247588D01*
X1090493Y1247457D01*
X1090352Y1247330D01*
X1090208Y1247205D01*
X1090062Y1247085D01*
X1089912Y1246968D01*
X1089760Y1246854D01*
X1089605Y1246744D01*
X1089447Y1246638D01*
X1089287Y1246536D01*
X1089125Y1246438D01*
X1088960Y1246344D01*
X1088793Y1246253D01*
X1088623Y1246167D01*
X1088452Y1246085D01*
X1088279Y1246007D01*
X1088104Y1245933D01*
X1087927Y1245864D01*
X1087749Y1245799D01*
X1087569Y1245738D01*
X1087388Y1245681D01*
X1087205Y1245629D01*
X1087021Y1245581D01*
X1086836Y1245538D01*
X1086650Y1245499D01*
X1086463Y1245465D01*
X1086276Y1245435D01*
X1086087Y1245410D01*
X1085899Y1245390D01*
X1085709Y1245374D01*
X1085520Y1245362D01*
X1085330Y1245355D01*
X1085140Y1245353D01*
X1065490Y1245353D01*
X1065297Y1245355D01*
X1065104Y1245362D01*
X1064912Y1245374D01*
X1064720Y1245391D01*
X1064528Y1245412D01*
X1064337Y1245438D01*
X1064146Y1245469D01*
X1063957Y1245504D01*
X1063768Y1245544D01*
X1063580Y1245589D01*
X1063394Y1245638D01*
X1063208Y1245691D01*
X1063025Y1245750D01*
X1062842Y1245812D01*
X1062661Y1245880D01*
X1062482Y1245951D01*
X1062305Y1246027D01*
X1062129Y1246108D01*
X1061956Y1246192D01*
X1061785Y1246281D01*
X1061616Y1246374D01*
X1061449Y1246471D01*
X1061285Y1246572D01*
X1061123Y1246678D01*
X1060964Y1246787D01*
X1060808Y1246900D01*
X1060654Y1247017D01*
X1060504Y1247137D01*
X1060356Y1247261D01*
X1060212Y1247389D01*
X1060070Y1247520D01*
X1059932Y1247655D01*
X1059798Y1247793D01*
X1059666Y1247934D01*
X1059538Y1248079D01*
X1059414Y1248227D01*
X1059294Y1248377D01*
X1059177Y1248531D01*
X1059064Y1248687D01*
X1058955Y1248846D01*
X1058850Y1249008D01*
X1058748Y1249172D01*
X1058651Y1249339D01*
X1058558Y1249508D01*
X1058469Y1249679D01*
X1058385Y1249852D01*
X1058304Y1250028D01*
X1058228Y1250205D01*
X1058157Y1250384D01*
X1058090Y1250565D01*
X1058027Y1250747D01*
X1057969Y1250931D01*
X1057915Y1251116D01*
X1057866Y1251303D01*
X1057821Y1251491D01*
X1057781Y1251679D01*
X1057746Y1251869D01*
X1057715Y1252059D01*
X1057689Y1252251D01*
X1057668Y1252442D01*
X1057651Y1252635D01*
X1057639Y1252827D01*
X1057632Y1253020D01*
X1057630Y1253213D01*
X1057630Y1261073D01*
X1083175Y1274997D02*
X1082936Y1275000D01*
X1082697Y1275009D01*
X1082458Y1275023D01*
X1082219Y1275044D01*
X1081982Y1275070D01*
X1081744Y1275102D01*
X1081508Y1275139D01*
X1081273Y1275183D01*
X1081039Y1275232D01*
X1080806Y1275287D01*
X1080574Y1275347D01*
X1080344Y1275414D01*
X1080116Y1275485D01*
X1079890Y1275563D01*
X1079665Y1275645D01*
X1079443Y1275733D01*
X1079223Y1275827D01*
X1079005Y1275926D01*
X1078789Y1276030D01*
X1078577Y1276140D01*
X1078366Y1276254D01*
X1078159Y1276374D01*
X1077955Y1276498D01*
X1077754Y1276628D01*
X1077556Y1276762D01*
X1077361Y1276902D01*
X1077170Y1277046D01*
X1076983Y1277194D01*
X1076799Y1277347D01*
X1076619Y1277505D01*
X1076442Y1277666D01*
X1076270Y1277833D01*
X1076102Y1278003D01*
X1075938Y1278177D01*
X1075778Y1278355D01*
X1075623Y1278537D01*
X1075472Y1278723D01*
X1075326Y1278912D01*
X1075184Y1279105D01*
X1075048Y1279302D01*
X1074916Y1279501D01*
X1074788Y1279704D01*
X1074666Y1279910D01*
X1074549Y1280118D01*
X1074437Y1280330D01*
X1074330Y1280544D01*
X1074229Y1280760D01*
X1074133Y1280979D01*
X1074042Y1281201D01*
X1073956Y1281424D01*
X1073876Y1281650D01*
X1073802Y1281877D01*
X1073733Y1282106D01*
X1073669Y1282337D01*
X1073612Y1282569D01*
X1073560Y1282803D01*
X1073513Y1283037D01*
X1073473Y1283273D01*
X1073438Y1283510D01*
X1073409Y1283747D01*
X1073386Y1283986D01*
X1073368Y1284224D01*
X1073357Y1284463D01*
X1073351Y1284702D01*
X1073351Y1284942D01*
X1073357Y1285181D01*
X1073368Y1285420D01*
X1073386Y1285658D01*
X1073409Y1285897D01*
X1073438Y1286134D01*
X1073473Y1286371D01*
X1073513Y1286607D01*
X1073560Y1286841D01*
X1073612Y1287075D01*
X1073669Y1287307D01*
X1073733Y1287538D01*
X1073802Y1287767D01*
X1073876Y1287994D01*
X1073956Y1288220D01*
X1074042Y1288443D01*
X1074133Y1288665D01*
X1074229Y1288884D01*
X1074330Y1289100D01*
X1074437Y1289314D01*
X1074549Y1289526D01*
X1074666Y1289735D01*
X1074788Y1289940D01*
X1074916Y1290143D01*
X1075048Y1290342D01*
X1075184Y1290539D01*
X1075326Y1290732D01*
X1075472Y1290921D01*
X1075623Y1291107D01*
X1075778Y1291289D01*
X1075938Y1291467D01*
X1076102Y1291641D01*
X1076270Y1291811D01*
X1076442Y1291978D01*
X1076619Y1292139D01*
X1076799Y1292297D01*
X1076983Y1292450D01*
X1077170Y1292598D01*
X1077361Y1292742D01*
X1077556Y1292882D01*
X1077754Y1293016D01*
X1077955Y1293146D01*
X1078159Y1293270D01*
X1078366Y1293390D01*
X1078577Y1293504D01*
X1078789Y1293614D01*
X1079005Y1293718D01*
X1079223Y1293817D01*
X1079443Y1293911D01*
X1079665Y1293999D01*
X1079890Y1294081D01*
X1080116Y1294159D01*
X1080344Y1294230D01*
X1080574Y1294297D01*
X1080806Y1294357D01*
X1081039Y1294412D01*
X1081273Y1294461D01*
X1081508Y1294505D01*
X1081744Y1294542D01*
X1081982Y1294574D01*
X1082219Y1294600D01*
X1082458Y1294621D01*
X1082697Y1294635D01*
X1082936Y1294644D01*
X1083175Y1294647D01*
X1083414Y1294644D01*
X1083653Y1294635D01*
X1083892Y1294621D01*
X1084131Y1294600D01*
X1084368Y1294574D01*
X1084606Y1294542D01*
X1084842Y1294505D01*
X1085077Y1294461D01*
X1085311Y1294412D01*
X1085544Y1294357D01*
X1085776Y1294297D01*
X1086006Y1294230D01*
X1086234Y1294159D01*
X1086460Y1294081D01*
X1086685Y1293999D01*
X1086907Y1293911D01*
X1087127Y1293817D01*
X1087345Y1293718D01*
X1087561Y1293614D01*
X1087773Y1293504D01*
X1087984Y1293390D01*
X1088191Y1293270D01*
X1088395Y1293146D01*
X1088596Y1293016D01*
X1088794Y1292882D01*
X1088989Y1292742D01*
X1089180Y1292598D01*
X1089367Y1292450D01*
X1089551Y1292297D01*
X1089731Y1292139D01*
X1089908Y1291978D01*
X1090080Y1291811D01*
X1090248Y1291641D01*
X1090412Y1291467D01*
X1090572Y1291289D01*
X1090727Y1291107D01*
X1090878Y1290921D01*
X1091024Y1290732D01*
X1091166Y1290539D01*
X1091302Y1290342D01*
X1091434Y1290143D01*
X1091562Y1289940D01*
X1091684Y1289735D01*
X1091801Y1289526D01*
X1091913Y1289314D01*
X1092020Y1289100D01*
X1092121Y1288884D01*
X1092217Y1288665D01*
X1092308Y1288443D01*
X1092394Y1288220D01*
X1092474Y1287994D01*
X1092548Y1287767D01*
X1092617Y1287538D01*
X1092681Y1287307D01*
X1092738Y1287075D01*
X1092790Y1286841D01*
X1092837Y1286607D01*
X1092877Y1286371D01*
X1092912Y1286134D01*
X1092941Y1285897D01*
X1092964Y1285658D01*
X1092982Y1285420D01*
X1092993Y1285181D01*
X1092999Y1284942D01*
X1092999Y1284702D01*
X1092993Y1284463D01*
X1092982Y1284224D01*
X1092964Y1283986D01*
X1092941Y1283747D01*
X1092912Y1283510D01*
X1092877Y1283273D01*
X1092837Y1283037D01*
X1092790Y1282803D01*
X1092738Y1282569D01*
X1092681Y1282337D01*
X1092617Y1282106D01*
X1092548Y1281877D01*
X1092474Y1281650D01*
X1092394Y1281424D01*
X1092308Y1281201D01*
X1092217Y1280979D01*
X1092121Y1280760D01*
X1092020Y1280544D01*
X1091913Y1280330D01*
X1091801Y1280118D01*
X1091684Y1279910D01*
X1091562Y1279704D01*
X1091434Y1279501D01*
X1091302Y1279302D01*
X1091166Y1279105D01*
X1091024Y1278912D01*
X1090878Y1278723D01*
X1090727Y1278537D01*
X1090572Y1278355D01*
X1090412Y1278177D01*
X1090248Y1278003D01*
X1090080Y1277833D01*
X1089908Y1277666D01*
X1089731Y1277505D01*
X1089551Y1277347D01*
X1089367Y1277194D01*
X1089180Y1277046D01*
X1088989Y1276902D01*
X1088794Y1276762D01*
X1088596Y1276628D01*
X1088395Y1276498D01*
X1088191Y1276374D01*
X1087984Y1276254D01*
X1087773Y1276140D01*
X1087561Y1276030D01*
X1087345Y1275926D01*
X1087127Y1275827D01*
X1086907Y1275733D01*
X1086685Y1275645D01*
X1086460Y1275563D01*
X1086234Y1275485D01*
X1086006Y1275414D01*
X1085776Y1275347D01*
X1085544Y1275287D01*
X1085311Y1275232D01*
X1085077Y1275183D01*
X1084842Y1275139D01*
X1084606Y1275102D01*
X1084368Y1275070D01*
X1084131Y1275044D01*
X1083892Y1275023D01*
X1083653Y1275009D01*
X1083414Y1275000D01*
X1083175Y1274997D01*
X1065490Y1276962D02*
X1065299Y1276964D01*
X1065107Y1276971D01*
X1064916Y1276983D01*
X1064726Y1276999D01*
X1064535Y1277020D01*
X1064346Y1277046D01*
X1064157Y1277076D01*
X1063968Y1277111D01*
X1063781Y1277150D01*
X1063595Y1277194D01*
X1063409Y1277242D01*
X1063226Y1277295D01*
X1063043Y1277353D01*
X1062862Y1277414D01*
X1062682Y1277481D01*
X1062504Y1277551D01*
X1062328Y1277626D01*
X1062154Y1277705D01*
X1061981Y1277789D01*
X1061811Y1277876D01*
X1061643Y1277968D01*
X1061477Y1278063D01*
X1061314Y1278163D01*
X1061153Y1278267D01*
X1060995Y1278374D01*
X1060839Y1278486D01*
X1060686Y1278601D01*
X1060536Y1278720D01*
X1060389Y1278842D01*
X1060245Y1278968D01*
X1060104Y1279098D01*
X1059966Y1279230D01*
X1059832Y1279367D01*
X1059700Y1279506D01*
X1059573Y1279649D01*
X1059448Y1279794D01*
X1059328Y1279943D01*
X1059211Y1280094D01*
X1059098Y1280249D01*
X1058988Y1280406D01*
X1058882Y1280565D01*
X1058781Y1280727D01*
X1058683Y1280892D01*
X1058589Y1281059D01*
X1058500Y1281228D01*
X1058414Y1281399D01*
X1058333Y1281573D01*
X1058256Y1281748D01*
X1058183Y1281925D01*
X1058115Y1282104D01*
X1058051Y1282284D01*
X1057991Y1282466D01*
X1057936Y1282649D01*
X1057886Y1282834D01*
X1057839Y1283020D01*
X1057798Y1283207D01*
X1057761Y1283394D01*
X1057728Y1283583D01*
X1057700Y1283772D01*
X1057677Y1283962D01*
X1057659Y1284153D01*
X1057645Y1284344D01*
X1057635Y1284535D01*
X1057631Y1284726D01*
X1057631Y1284918D01*
X1057635Y1285109D01*
X1057645Y1285300D01*
X1057659Y1285491D01*
X1057677Y1285682D01*
X1057700Y1285872D01*
X1057728Y1286061D01*
X1057761Y1286250D01*
X1057798Y1286437D01*
X1057839Y1286624D01*
X1057886Y1286810D01*
X1057936Y1286995D01*
X1057991Y1287178D01*
X1058051Y1287360D01*
X1058115Y1287540D01*
X1058183Y1287719D01*
X1058256Y1287896D01*
X1058333Y1288071D01*
X1058414Y1288245D01*
X1058500Y1288416D01*
X1058589Y1288585D01*
X1058683Y1288752D01*
X1058781Y1288917D01*
X1058882Y1289079D01*
X1058988Y1289238D01*
X1059098Y1289395D01*
X1059211Y1289550D01*
X1059328Y1289701D01*
X1059448Y1289850D01*
X1059573Y1289995D01*
X1059700Y1290138D01*
X1059832Y1290277D01*
X1059966Y1290414D01*
X1060104Y1290546D01*
X1060245Y1290676D01*
X1060389Y1290802D01*
X1060536Y1290924D01*
X1060686Y1291043D01*
X1060839Y1291158D01*
X1060995Y1291270D01*
X1061153Y1291377D01*
X1061314Y1291481D01*
X1061477Y1291581D01*
X1061643Y1291676D01*
X1061811Y1291768D01*
X1061981Y1291855D01*
X1062154Y1291939D01*
X1062328Y1292018D01*
X1062504Y1292093D01*
X1062682Y1292163D01*
X1062862Y1292230D01*
X1063043Y1292291D01*
X1063226Y1292349D01*
X1063409Y1292402D01*
X1063595Y1292450D01*
X1063781Y1292494D01*
X1063968Y1292533D01*
X1064157Y1292568D01*
X1064346Y1292598D01*
X1064535Y1292624D01*
X1064726Y1292645D01*
X1064916Y1292661D01*
X1065107Y1292673D01*
X1065299Y1292680D01*
X1065490Y1292682D01*
X1065681Y1292680D01*
X1065873Y1292673D01*
X1066064Y1292661D01*
X1066254Y1292645D01*
X1066445Y1292624D01*
X1066634Y1292598D01*
X1066823Y1292568D01*
X1067012Y1292533D01*
X1067199Y1292494D01*
X1067385Y1292450D01*
X1067571Y1292402D01*
X1067754Y1292349D01*
X1067937Y1292291D01*
X1068118Y1292230D01*
X1068298Y1292163D01*
X1068476Y1292093D01*
X1068652Y1292018D01*
X1068826Y1291939D01*
X1068999Y1291855D01*
X1069169Y1291768D01*
X1069337Y1291676D01*
X1069503Y1291581D01*
X1069666Y1291481D01*
X1069827Y1291377D01*
X1069985Y1291270D01*
X1070141Y1291158D01*
X1070294Y1291043D01*
X1070444Y1290924D01*
X1070591Y1290802D01*
X1070735Y1290676D01*
X1070876Y1290546D01*
X1071014Y1290414D01*
X1071148Y1290277D01*
X1071280Y1290138D01*
X1071407Y1289995D01*
X1071532Y1289850D01*
X1071652Y1289701D01*
X1071769Y1289550D01*
X1071882Y1289395D01*
X1071992Y1289238D01*
X1072098Y1289079D01*
X1072199Y1288917D01*
X1072297Y1288752D01*
X1072391Y1288585D01*
X1072480Y1288416D01*
X1072566Y1288245D01*
X1072647Y1288071D01*
X1072724Y1287896D01*
X1072797Y1287719D01*
X1072865Y1287540D01*
X1072929Y1287360D01*
X1072989Y1287178D01*
X1073044Y1286995D01*
X1073094Y1286810D01*
X1073141Y1286624D01*
X1073182Y1286437D01*
X1073219Y1286250D01*
X1073252Y1286061D01*
X1073280Y1285872D01*
X1073303Y1285682D01*
X1073321Y1285491D01*
X1073335Y1285300D01*
X1073345Y1285109D01*
X1073349Y1284918D01*
X1073349Y1284726D01*
X1073345Y1284535D01*
X1073335Y1284344D01*
X1073321Y1284153D01*
X1073303Y1283962D01*
X1073280Y1283772D01*
X1073252Y1283583D01*
X1073219Y1283394D01*
X1073182Y1283207D01*
X1073141Y1283020D01*
X1073094Y1282834D01*
X1073044Y1282649D01*
X1072989Y1282466D01*
X1072929Y1282284D01*
X1072865Y1282104D01*
X1072797Y1281925D01*
X1072724Y1281748D01*
X1072647Y1281573D01*
X1072566Y1281399D01*
X1072480Y1281228D01*
X1072391Y1281059D01*
X1072297Y1280892D01*
X1072199Y1280727D01*
X1072098Y1280565D01*
X1071992Y1280406D01*
X1071882Y1280249D01*
X1071769Y1280094D01*
X1071652Y1279943D01*
X1071532Y1279794D01*
X1071407Y1279649D01*
X1071280Y1279506D01*
X1071148Y1279367D01*
X1071014Y1279230D01*
X1070876Y1279098D01*
X1070735Y1278968D01*
X1070591Y1278842D01*
X1070444Y1278720D01*
X1070294Y1278601D01*
X1070141Y1278486D01*
X1069985Y1278374D01*
X1069827Y1278267D01*
X1069666Y1278163D01*
X1069503Y1278063D01*
X1069337Y1277968D01*
X1069169Y1277876D01*
X1068999Y1277789D01*
X1068826Y1277705D01*
X1068652Y1277626D01*
X1068476Y1277551D01*
X1068298Y1277481D01*
X1068118Y1277414D01*
X1067937Y1277353D01*
X1067754Y1277295D01*
X1067571Y1277242D01*
X1067385Y1277194D01*
X1067199Y1277150D01*
X1067012Y1277111D01*
X1066823Y1277076D01*
X1066634Y1277046D01*
X1066445Y1277020D01*
X1066254Y1276999D01*
X1066064Y1276983D01*
X1065873Y1276971D01*
X1065681Y1276964D01*
X1065490Y1276962D01*
D10*
X1201575Y775000D02*
X1201605Y777415D01*
X1201694Y779829D01*
X1201842Y782241D01*
X1202049Y784647D01*
X1202315Y787048D01*
X1202640Y789442D01*
X1203024Y791827D01*
X1203466Y794202D01*
X1203967Y796565D01*
X1204525Y798915D01*
X1205140Y801251D01*
X1205813Y803571D01*
X1206543Y805874D01*
X1207329Y808158D01*
X1208170Y810423D01*
X1209067Y812666D01*
X1210019Y814886D01*
X1211025Y817082D01*
X1212084Y819253D01*
X1213197Y821397D01*
X1214362Y823514D01*
X1215578Y825601D01*
X1216845Y827657D01*
X1218163Y829682D01*
X1219529Y831674D01*
X1220944Y833632D01*
X1222407Y835554D01*
X1223916Y837440D01*
X1225472Y839289D01*
X1227072Y841098D01*
X1228716Y842868D01*
X1230403Y844597D01*
X1232132Y846284D01*
X1233902Y847928D01*
X1235711Y849528D01*
X1237560Y851084D01*
X1239446Y852593D01*
X1241368Y854056D01*
X1243326Y855471D01*
X1245318Y856837D01*
X1247343Y858155D01*
X1249399Y859422D01*
X1251486Y860638D01*
X1253603Y861803D01*
X1255747Y862916D01*
X1257918Y863975D01*
X1260114Y864981D01*
X1262334Y865933D01*
X1264577Y866830D01*
X1266842Y867671D01*
X1269126Y868457D01*
X1271429Y869187D01*
X1273749Y869860D01*
X1276085Y870475D01*
X1278435Y871033D01*
X1280798Y871534D01*
X1283173Y871976D01*
X1285558Y872360D01*
X1287952Y872685D01*
X1290353Y872951D01*
X1292759Y873158D01*
X1295171Y873306D01*
X1297585Y873395D01*
X1300000Y873425D01*
X1302415Y873395D01*
X1304829Y873306D01*
X1307241Y873158D01*
X1309647Y872951D01*
X1312048Y872685D01*
X1314442Y872360D01*
X1316827Y871976D01*
X1319202Y871534D01*
X1321565Y871033D01*
X1323915Y870475D01*
X1326251Y869860D01*
X1328571Y869187D01*
X1330874Y868457D01*
X1333158Y867671D01*
X1335423Y866830D01*
X1337666Y865933D01*
X1339886Y864981D01*
X1342082Y863975D01*
X1344253Y862916D01*
X1346397Y861803D01*
X1348514Y860638D01*
X1350601Y859422D01*
X1352657Y858155D01*
X1354682Y856837D01*
X1356674Y855471D01*
X1358632Y854056D01*
X1360554Y852593D01*
X1362440Y851084D01*
X1364289Y849528D01*
X1366098Y847928D01*
X1367868Y846284D01*
X1369597Y844597D01*
X1371284Y842868D01*
X1372928Y841098D01*
X1374528Y839289D01*
X1376084Y837440D01*
X1377593Y835554D01*
X1379056Y833632D01*
X1380471Y831674D01*
X1381837Y829682D01*
X1383155Y827657D01*
X1384422Y825601D01*
X1385638Y823514D01*
X1386803Y821397D01*
X1387916Y819253D01*
X1388975Y817082D01*
X1389981Y814886D01*
X1390933Y812666D01*
X1391830Y810423D01*
X1392671Y808158D01*
X1393457Y805874D01*
X1394187Y803571D01*
X1394860Y801251D01*
X1395475Y798915D01*
X1396033Y796565D01*
X1396534Y794202D01*
X1396976Y791827D01*
X1397360Y789442D01*
X1397685Y787048D01*
X1397951Y784647D01*
X1398158Y782241D01*
X1398306Y779829D01*
X1398395Y777415D01*
X1398425Y775000D01*
X1398395Y772585D01*
X1398306Y770171D01*
X1398158Y767759D01*
X1397951Y765353D01*
X1397685Y762952D01*
X1397360Y760558D01*
X1396976Y758173D01*
X1396534Y755798D01*
X1396033Y753435D01*
X1395475Y751085D01*
X1394860Y748749D01*
X1394187Y746429D01*
X1393457Y744126D01*
X1392671Y741842D01*
X1391830Y739577D01*
X1390933Y737334D01*
X1389981Y735114D01*
X1388975Y732918D01*
X1387916Y730747D01*
X1386803Y728603D01*
X1385638Y726486D01*
X1384422Y724399D01*
X1383155Y722343D01*
X1381837Y720318D01*
X1380471Y718326D01*
X1379056Y716368D01*
X1377593Y714446D01*
X1376084Y712560D01*
X1374528Y710711D01*
X1372928Y708902D01*
X1371284Y707132D01*
X1369597Y705403D01*
X1367868Y703716D01*
X1366098Y702072D01*
X1364289Y700472D01*
X1362440Y698916D01*
X1360554Y697407D01*
X1358632Y695944D01*
X1356674Y694529D01*
X1354682Y693163D01*
X1352657Y691845D01*
X1350601Y690578D01*
X1348514Y689362D01*
X1346397Y688197D01*
X1344253Y687084D01*
X1342082Y686025D01*
X1339886Y685019D01*
X1337666Y684067D01*
X1335423Y683170D01*
X1333158Y682329D01*
X1330874Y681543D01*
X1328571Y680813D01*
X1326251Y680140D01*
X1323915Y679525D01*
X1321565Y678967D01*
X1319202Y678466D01*
X1316827Y678024D01*
X1314442Y677640D01*
X1312048Y677315D01*
X1309647Y677049D01*
X1307241Y676842D01*
X1304829Y676694D01*
X1302415Y676605D01*
X1300000Y676575D01*
X1297585Y676605D01*
X1295171Y676694D01*
X1292759Y676842D01*
X1290353Y677049D01*
X1287952Y677315D01*
X1285558Y677640D01*
X1283173Y678024D01*
X1280798Y678466D01*
X1278435Y678967D01*
X1276085Y679525D01*
X1273749Y680140D01*
X1271429Y680813D01*
X1269126Y681543D01*
X1266842Y682329D01*
X1264577Y683170D01*
X1262334Y684067D01*
X1260114Y685019D01*
X1257918Y686025D01*
X1255747Y687084D01*
X1253603Y688197D01*
X1251486Y689362D01*
X1249399Y690578D01*
X1247343Y691845D01*
X1245318Y693163D01*
X1243326Y694529D01*
X1241368Y695944D01*
X1239446Y697407D01*
X1237560Y698916D01*
X1235711Y700472D01*
X1233902Y702072D01*
X1232132Y703716D01*
X1230403Y705403D01*
X1228716Y707132D01*
X1227072Y708902D01*
X1225472Y710711D01*
X1223916Y712560D01*
X1222407Y714446D01*
X1220944Y716368D01*
X1219529Y718326D01*
X1218163Y720318D01*
X1216845Y722343D01*
X1215578Y724399D01*
X1214362Y726486D01*
X1213197Y728603D01*
X1212084Y730747D01*
X1211025Y732918D01*
X1210019Y735114D01*
X1209067Y737334D01*
X1208170Y739577D01*
X1207329Y741842D01*
X1206543Y744126D01*
X1205813Y746429D01*
X1205140Y748749D01*
X1204525Y751085D01*
X1203967Y753435D01*
X1203466Y755798D01*
X1203024Y758173D01*
X1202640Y760558D01*
X1202315Y762952D01*
X1202049Y765353D01*
X1201842Y767759D01*
X1201694Y770171D01*
X1201605Y772585D01*
X1201575Y775000D01*
X1245000Y745787D02*
X1245000Y705787D01*
X1245000Y804213D02*
X1245000Y844213D01*
X1225000Y824213D02*
X1265000Y824213D01*
D11*
X1193000Y766073D02*
X1193000Y758213D01*
X1192998Y758023D01*
X1192991Y757833D01*
X1192979Y757644D01*
X1192963Y757454D01*
X1192943Y757266D01*
X1192918Y757077D01*
X1192888Y756890D01*
X1192854Y756703D01*
X1192815Y756517D01*
X1192772Y756332D01*
X1192724Y756148D01*
X1192672Y755965D01*
X1192615Y755784D01*
X1192554Y755604D01*
X1192489Y755426D01*
X1192420Y755249D01*
X1192346Y755074D01*
X1192268Y754901D01*
X1192186Y754730D01*
X1192100Y754560D01*
X1192009Y754393D01*
X1191915Y754228D01*
X1191817Y754066D01*
X1191715Y753906D01*
X1191609Y753748D01*
X1191499Y753593D01*
X1191385Y753441D01*
X1191268Y753291D01*
X1191148Y753145D01*
X1191023Y753001D01*
X1190896Y752860D01*
X1190765Y752723D01*
X1190630Y752588D01*
X1190493Y752457D01*
X1190352Y752330D01*
X1190208Y752205D01*
X1190062Y752085D01*
X1189912Y751968D01*
X1189760Y751854D01*
X1189605Y751744D01*
X1189447Y751638D01*
X1189287Y751536D01*
X1189125Y751438D01*
X1188960Y751344D01*
X1188793Y751253D01*
X1188623Y751167D01*
X1188452Y751085D01*
X1188279Y751007D01*
X1188104Y750933D01*
X1187927Y750864D01*
X1187749Y750799D01*
X1187569Y750738D01*
X1187388Y750681D01*
X1187205Y750629D01*
X1187021Y750581D01*
X1186836Y750538D01*
X1186650Y750499D01*
X1186463Y750465D01*
X1186276Y750435D01*
X1186087Y750410D01*
X1185899Y750390D01*
X1185709Y750374D01*
X1185520Y750362D01*
X1185330Y750355D01*
X1185140Y750353D01*
X1165490Y750353D01*
X1165297Y750355D01*
X1165104Y750362D01*
X1164912Y750374D01*
X1164720Y750391D01*
X1164528Y750412D01*
X1164337Y750438D01*
X1164146Y750469D01*
X1163957Y750504D01*
X1163768Y750544D01*
X1163580Y750589D01*
X1163394Y750638D01*
X1163208Y750691D01*
X1163025Y750750D01*
X1162842Y750812D01*
X1162661Y750880D01*
X1162482Y750951D01*
X1162305Y751027D01*
X1162129Y751108D01*
X1161956Y751192D01*
X1161785Y751281D01*
X1161616Y751374D01*
X1161449Y751471D01*
X1161285Y751572D01*
X1161123Y751678D01*
X1160964Y751787D01*
X1160808Y751900D01*
X1160654Y752017D01*
X1160504Y752137D01*
X1160356Y752261D01*
X1160212Y752389D01*
X1160070Y752520D01*
X1159932Y752655D01*
X1159798Y752793D01*
X1159666Y752934D01*
X1159538Y753079D01*
X1159414Y753227D01*
X1159294Y753377D01*
X1159177Y753531D01*
X1159064Y753687D01*
X1158955Y753846D01*
X1158850Y754008D01*
X1158748Y754172D01*
X1158651Y754339D01*
X1158558Y754508D01*
X1158469Y754679D01*
X1158385Y754852D01*
X1158304Y755028D01*
X1158228Y755205D01*
X1158157Y755384D01*
X1158090Y755565D01*
X1158027Y755747D01*
X1157969Y755931D01*
X1157915Y756116D01*
X1157866Y756303D01*
X1157821Y756491D01*
X1157781Y756679D01*
X1157746Y756869D01*
X1157715Y757059D01*
X1157689Y757251D01*
X1157668Y757442D01*
X1157651Y757635D01*
X1157639Y757827D01*
X1157632Y758020D01*
X1157630Y758213D01*
X1157630Y766073D01*
X1177280Y787857D02*
X1177280Y799647D01*
X1177280Y787857D02*
X1177278Y787667D01*
X1177271Y787477D01*
X1177259Y787288D01*
X1177243Y787098D01*
X1177223Y786910D01*
X1177198Y786721D01*
X1177168Y786534D01*
X1177134Y786347D01*
X1177095Y786161D01*
X1177052Y785976D01*
X1177004Y785792D01*
X1176952Y785609D01*
X1176895Y785428D01*
X1176834Y785248D01*
X1176769Y785070D01*
X1176700Y784893D01*
X1176626Y784718D01*
X1176548Y784545D01*
X1176466Y784374D01*
X1176380Y784204D01*
X1176289Y784037D01*
X1176195Y783872D01*
X1176097Y783710D01*
X1175995Y783550D01*
X1175889Y783392D01*
X1175779Y783237D01*
X1175665Y783085D01*
X1175548Y782935D01*
X1175428Y782789D01*
X1175303Y782645D01*
X1175176Y782504D01*
X1175045Y782367D01*
X1174910Y782232D01*
X1174773Y782101D01*
X1174632Y781974D01*
X1174488Y781849D01*
X1174342Y781729D01*
X1174192Y781612D01*
X1174040Y781498D01*
X1173885Y781388D01*
X1173727Y781282D01*
X1173567Y781180D01*
X1173405Y781082D01*
X1173240Y780988D01*
X1173073Y780897D01*
X1172903Y780811D01*
X1172732Y780729D01*
X1172559Y780651D01*
X1172384Y780577D01*
X1172207Y780508D01*
X1172029Y780443D01*
X1171849Y780382D01*
X1171668Y780325D01*
X1171485Y780273D01*
X1171301Y780225D01*
X1171116Y780182D01*
X1170930Y780143D01*
X1170743Y780109D01*
X1170556Y780079D01*
X1170367Y780054D01*
X1170179Y780034D01*
X1169989Y780018D01*
X1169800Y780006D01*
X1169610Y779999D01*
X1169420Y779997D01*
X1167455Y779997D01*
X1167216Y780000D01*
X1166977Y780009D01*
X1166738Y780023D01*
X1166499Y780044D01*
X1166262Y780070D01*
X1166024Y780102D01*
X1165788Y780139D01*
X1165553Y780183D01*
X1165319Y780232D01*
X1165086Y780287D01*
X1164854Y780347D01*
X1164624Y780414D01*
X1164396Y780485D01*
X1164170Y780563D01*
X1163945Y780645D01*
X1163723Y780733D01*
X1163503Y780827D01*
X1163285Y780926D01*
X1163069Y781030D01*
X1162857Y781140D01*
X1162646Y781254D01*
X1162439Y781374D01*
X1162235Y781498D01*
X1162034Y781628D01*
X1161836Y781762D01*
X1161641Y781902D01*
X1161450Y782046D01*
X1161263Y782194D01*
X1161079Y782347D01*
X1160899Y782505D01*
X1160722Y782666D01*
X1160550Y782833D01*
X1160382Y783003D01*
X1160218Y783177D01*
X1160058Y783355D01*
X1159903Y783537D01*
X1159752Y783723D01*
X1159606Y783912D01*
X1159464Y784105D01*
X1159328Y784302D01*
X1159196Y784501D01*
X1159068Y784704D01*
X1158946Y784910D01*
X1158829Y785118D01*
X1158717Y785330D01*
X1158610Y785544D01*
X1158509Y785760D01*
X1158413Y785979D01*
X1158322Y786201D01*
X1158236Y786424D01*
X1158156Y786650D01*
X1158082Y786877D01*
X1158013Y787106D01*
X1157949Y787337D01*
X1157892Y787569D01*
X1157840Y787803D01*
X1157793Y788037D01*
X1157753Y788273D01*
X1157718Y788510D01*
X1157689Y788747D01*
X1157666Y788986D01*
X1157648Y789224D01*
X1157637Y789463D01*
X1157631Y789702D01*
X1157631Y789942D01*
X1157637Y790181D01*
X1157648Y790420D01*
X1157666Y790658D01*
X1157689Y790897D01*
X1157718Y791134D01*
X1157753Y791371D01*
X1157793Y791607D01*
X1157840Y791841D01*
X1157892Y792075D01*
X1157949Y792307D01*
X1158013Y792538D01*
X1158082Y792767D01*
X1158156Y792994D01*
X1158236Y793220D01*
X1158322Y793443D01*
X1158413Y793665D01*
X1158509Y793884D01*
X1158610Y794100D01*
X1158717Y794314D01*
X1158829Y794526D01*
X1158946Y794735D01*
X1159068Y794940D01*
X1159196Y795143D01*
X1159328Y795342D01*
X1159464Y795539D01*
X1159606Y795732D01*
X1159752Y795921D01*
X1159903Y796107D01*
X1160058Y796289D01*
X1160218Y796467D01*
X1160382Y796641D01*
X1160550Y796811D01*
X1160722Y796978D01*
X1160899Y797139D01*
X1161079Y797297D01*
X1161263Y797450D01*
X1161450Y797598D01*
X1161641Y797742D01*
X1161836Y797882D01*
X1162034Y798016D01*
X1162235Y798146D01*
X1162439Y798270D01*
X1162646Y798390D01*
X1162857Y798504D01*
X1163069Y798614D01*
X1163285Y798718D01*
X1163503Y798817D01*
X1163723Y798911D01*
X1163945Y798999D01*
X1164170Y799081D01*
X1164396Y799159D01*
X1164624Y799230D01*
X1164854Y799297D01*
X1165086Y799357D01*
X1165319Y799412D01*
X1165553Y799461D01*
X1165788Y799505D01*
X1166024Y799542D01*
X1166262Y799574D01*
X1166499Y799600D01*
X1166738Y799621D01*
X1166977Y799635D01*
X1167216Y799644D01*
X1167455Y799647D01*
X1177280Y799647D01*
X1177660Y799642D01*
X1178039Y799629D01*
X1178419Y799606D01*
X1178797Y799574D01*
X1179175Y799532D01*
X1179551Y799482D01*
X1179927Y799423D01*
X1180300Y799354D01*
X1180672Y799277D01*
X1181042Y799190D01*
X1181410Y799095D01*
X1181775Y798991D01*
X1182138Y798878D01*
X1182498Y798756D01*
X1182854Y798625D01*
X1183208Y798486D01*
X1183558Y798339D01*
X1183904Y798183D01*
X1184247Y798019D01*
X1184585Y797846D01*
X1184920Y797666D01*
X1185249Y797477D01*
X1185575Y797281D01*
X1185895Y797076D01*
X1186210Y796864D01*
X1186520Y796645D01*
X1186825Y796418D01*
X1187124Y796183D01*
X1187417Y795942D01*
X1187704Y795694D01*
X1187986Y795438D01*
X1188261Y795176D01*
X1188529Y794908D01*
X1188791Y794633D01*
X1189047Y794351D01*
X1189295Y794064D01*
X1189536Y793771D01*
X1189771Y793472D01*
X1189998Y793167D01*
X1190217Y792857D01*
X1190429Y792542D01*
X1190634Y792222D01*
X1190830Y791896D01*
X1191019Y791567D01*
X1191199Y791232D01*
X1191372Y790894D01*
X1191536Y790551D01*
X1191692Y790205D01*
X1191839Y789855D01*
X1191978Y789501D01*
X1192109Y789145D01*
X1192231Y788785D01*
X1192344Y788422D01*
X1192448Y788057D01*
X1192543Y787689D01*
X1192630Y787319D01*
X1192707Y786947D01*
X1192776Y786574D01*
X1192835Y786198D01*
X1192885Y785822D01*
X1192927Y785444D01*
X1192959Y785066D01*
X1192982Y784686D01*
X1192995Y784307D01*
X1193000Y783927D01*
D12*
X1435000Y550000D02*
X1435000Y500000D01*
X1410000Y475000D01*
X1360000Y475000D01*
X1335000Y500000D01*
X1360000Y575000D02*
X1410000Y575000D01*
X1435000Y550000D01*
X1360000Y575000D02*
X1335000Y550000D01*
X1335000Y500000D01*
X1410000Y475000D02*
X1435000Y450000D01*
X1435000Y400000D01*
X1410000Y375000D01*
X1360000Y375000D01*
X1335000Y400000D01*
X1335000Y450000D01*
X1360000Y475000D01*
D11*
X1459000Y504117D02*
X1486510Y504117D01*
X1486700Y504115D01*
X1486890Y504108D01*
X1487079Y504096D01*
X1487269Y504080D01*
X1487457Y504060D01*
X1487646Y504035D01*
X1487833Y504005D01*
X1488020Y503971D01*
X1488206Y503932D01*
X1488391Y503889D01*
X1488575Y503841D01*
X1488758Y503789D01*
X1488939Y503732D01*
X1489119Y503671D01*
X1489297Y503606D01*
X1489474Y503537D01*
X1489649Y503463D01*
X1489822Y503385D01*
X1489993Y503303D01*
X1490163Y503217D01*
X1490330Y503126D01*
X1490495Y503032D01*
X1490657Y502934D01*
X1490817Y502832D01*
X1490975Y502726D01*
X1491130Y502616D01*
X1491282Y502502D01*
X1491432Y502385D01*
X1491578Y502265D01*
X1491722Y502140D01*
X1491863Y502013D01*
X1492000Y501882D01*
X1492135Y501747D01*
X1492266Y501610D01*
X1492393Y501469D01*
X1492518Y501325D01*
X1492638Y501179D01*
X1492755Y501029D01*
X1492869Y500877D01*
X1492979Y500722D01*
X1493085Y500564D01*
X1493187Y500404D01*
X1493285Y500242D01*
X1493379Y500077D01*
X1493470Y499910D01*
X1493556Y499740D01*
X1493638Y499569D01*
X1493716Y499396D01*
X1493790Y499221D01*
X1493859Y499044D01*
X1493924Y498866D01*
X1493985Y498686D01*
X1494042Y498505D01*
X1494094Y498322D01*
X1494142Y498138D01*
X1494185Y497953D01*
X1494224Y497767D01*
X1494258Y497580D01*
X1494288Y497393D01*
X1494313Y497204D01*
X1494333Y497016D01*
X1494349Y496826D01*
X1494361Y496637D01*
X1494368Y496447D01*
X1494370Y496257D01*
X1494370Y492327D01*
X1494370Y522694D02*
X1459000Y522694D01*
X1459000Y532519D01*
X1459003Y532758D01*
X1459012Y532997D01*
X1459026Y533236D01*
X1459047Y533475D01*
X1459073Y533712D01*
X1459105Y533950D01*
X1459142Y534186D01*
X1459186Y534421D01*
X1459235Y534655D01*
X1459290Y534888D01*
X1459350Y535120D01*
X1459417Y535350D01*
X1459488Y535578D01*
X1459566Y535804D01*
X1459648Y536029D01*
X1459736Y536251D01*
X1459830Y536471D01*
X1459929Y536689D01*
X1460033Y536905D01*
X1460143Y537117D01*
X1460257Y537328D01*
X1460377Y537535D01*
X1460501Y537739D01*
X1460631Y537940D01*
X1460765Y538138D01*
X1460905Y538333D01*
X1461049Y538524D01*
X1461197Y538711D01*
X1461350Y538895D01*
X1461508Y539075D01*
X1461669Y539252D01*
X1461836Y539424D01*
X1462006Y539592D01*
X1462180Y539756D01*
X1462358Y539916D01*
X1462540Y540071D01*
X1462726Y540222D01*
X1462915Y540368D01*
X1463108Y540510D01*
X1463305Y540646D01*
X1463504Y540778D01*
X1463707Y540906D01*
X1463913Y541028D01*
X1464121Y541145D01*
X1464333Y541257D01*
X1464547Y541364D01*
X1464763Y541465D01*
X1464982Y541561D01*
X1465204Y541652D01*
X1465427Y541738D01*
X1465653Y541818D01*
X1465880Y541892D01*
X1466109Y541961D01*
X1466340Y542025D01*
X1466572Y542082D01*
X1466806Y542134D01*
X1467040Y542181D01*
X1467276Y542221D01*
X1467513Y542256D01*
X1467750Y542285D01*
X1467989Y542308D01*
X1468227Y542326D01*
X1468466Y542337D01*
X1468705Y542343D01*
X1468945Y542343D01*
X1469184Y542337D01*
X1469423Y542326D01*
X1469661Y542308D01*
X1469900Y542285D01*
X1470137Y542256D01*
X1470374Y542221D01*
X1470610Y542181D01*
X1470844Y542134D01*
X1471078Y542082D01*
X1471310Y542025D01*
X1471541Y541961D01*
X1471770Y541892D01*
X1471997Y541818D01*
X1472223Y541738D01*
X1472446Y541652D01*
X1472668Y541561D01*
X1472887Y541465D01*
X1473103Y541364D01*
X1473317Y541257D01*
X1473529Y541145D01*
X1473738Y541028D01*
X1473943Y540906D01*
X1474146Y540778D01*
X1474345Y540646D01*
X1474542Y540510D01*
X1474735Y540368D01*
X1474924Y540222D01*
X1475110Y540071D01*
X1475292Y539916D01*
X1475470Y539756D01*
X1475644Y539592D01*
X1475814Y539424D01*
X1475981Y539252D01*
X1476142Y539075D01*
X1476300Y538895D01*
X1476453Y538711D01*
X1476601Y538524D01*
X1476745Y538333D01*
X1476885Y538138D01*
X1477019Y537940D01*
X1477149Y537739D01*
X1477273Y537535D01*
X1477393Y537328D01*
X1477507Y537117D01*
X1477617Y536905D01*
X1477721Y536689D01*
X1477820Y536471D01*
X1477914Y536251D01*
X1478002Y536029D01*
X1478084Y535804D01*
X1478162Y535578D01*
X1478233Y535350D01*
X1478300Y535120D01*
X1478360Y534888D01*
X1478415Y534655D01*
X1478464Y534421D01*
X1478508Y534186D01*
X1478545Y533950D01*
X1478577Y533712D01*
X1478603Y533475D01*
X1478624Y533236D01*
X1478638Y532997D01*
X1478647Y532758D01*
X1478650Y532519D01*
X1478650Y522694D01*
X1494370Y556350D02*
X1494370Y566175D01*
X1494367Y566414D01*
X1494358Y566653D01*
X1494344Y566892D01*
X1494323Y567131D01*
X1494297Y567368D01*
X1494265Y567606D01*
X1494228Y567842D01*
X1494184Y568077D01*
X1494135Y568311D01*
X1494080Y568544D01*
X1494020Y568776D01*
X1493953Y569006D01*
X1493882Y569234D01*
X1493804Y569460D01*
X1493722Y569685D01*
X1493634Y569907D01*
X1493540Y570127D01*
X1493441Y570345D01*
X1493337Y570561D01*
X1493227Y570773D01*
X1493113Y570984D01*
X1492993Y571191D01*
X1492869Y571395D01*
X1492739Y571596D01*
X1492605Y571794D01*
X1492465Y571989D01*
X1492321Y572180D01*
X1492173Y572367D01*
X1492020Y572551D01*
X1491862Y572731D01*
X1491701Y572908D01*
X1491534Y573080D01*
X1491364Y573248D01*
X1491190Y573412D01*
X1491012Y573572D01*
X1490830Y573727D01*
X1490644Y573878D01*
X1490455Y574024D01*
X1490262Y574166D01*
X1490065Y574302D01*
X1489866Y574434D01*
X1489663Y574562D01*
X1489458Y574684D01*
X1489249Y574801D01*
X1489037Y574913D01*
X1488823Y575020D01*
X1488607Y575121D01*
X1488388Y575217D01*
X1488166Y575308D01*
X1487943Y575394D01*
X1487717Y575474D01*
X1487490Y575548D01*
X1487261Y575617D01*
X1487030Y575681D01*
X1486798Y575738D01*
X1486564Y575790D01*
X1486330Y575837D01*
X1486094Y575877D01*
X1485857Y575912D01*
X1485620Y575941D01*
X1485381Y575964D01*
X1485143Y575982D01*
X1484904Y575993D01*
X1484665Y575999D01*
X1484425Y575999D01*
X1484186Y575993D01*
X1483947Y575982D01*
X1483709Y575964D01*
X1483470Y575941D01*
X1483233Y575912D01*
X1482996Y575877D01*
X1482760Y575837D01*
X1482526Y575790D01*
X1482292Y575738D01*
X1482060Y575681D01*
X1481829Y575617D01*
X1481600Y575548D01*
X1481373Y575474D01*
X1481147Y575394D01*
X1480924Y575308D01*
X1480702Y575217D01*
X1480483Y575121D01*
X1480267Y575020D01*
X1480053Y574913D01*
X1479841Y574801D01*
X1479633Y574684D01*
X1479427Y574562D01*
X1479224Y574434D01*
X1479025Y574302D01*
X1478828Y574166D01*
X1478635Y574024D01*
X1478446Y573878D01*
X1478260Y573727D01*
X1478078Y573572D01*
X1477900Y573412D01*
X1477726Y573248D01*
X1477556Y573080D01*
X1477389Y572908D01*
X1477228Y572731D01*
X1477070Y572551D01*
X1476917Y572367D01*
X1476769Y572180D01*
X1476625Y571989D01*
X1476485Y571794D01*
X1476351Y571596D01*
X1476221Y571395D01*
X1476097Y571191D01*
X1475977Y570984D01*
X1475863Y570773D01*
X1475753Y570561D01*
X1475649Y570345D01*
X1475550Y570127D01*
X1475456Y569907D01*
X1475368Y569685D01*
X1475286Y569460D01*
X1475208Y569234D01*
X1475137Y569006D01*
X1475070Y568776D01*
X1475010Y568544D01*
X1474955Y568311D01*
X1474906Y568077D01*
X1474862Y567842D01*
X1474825Y567606D01*
X1474793Y567368D01*
X1474767Y567131D01*
X1474746Y566892D01*
X1474732Y566653D01*
X1474723Y566414D01*
X1474720Y566175D01*
X1459000Y568140D02*
X1459000Y556350D01*
X1459000Y568140D02*
X1459002Y568331D01*
X1459009Y568523D01*
X1459021Y568714D01*
X1459037Y568904D01*
X1459058Y569095D01*
X1459084Y569284D01*
X1459114Y569473D01*
X1459149Y569662D01*
X1459188Y569849D01*
X1459232Y570035D01*
X1459280Y570221D01*
X1459333Y570404D01*
X1459391Y570587D01*
X1459452Y570768D01*
X1459519Y570948D01*
X1459589Y571126D01*
X1459664Y571302D01*
X1459743Y571476D01*
X1459827Y571649D01*
X1459914Y571819D01*
X1460006Y571987D01*
X1460101Y572153D01*
X1460201Y572316D01*
X1460305Y572477D01*
X1460412Y572635D01*
X1460524Y572791D01*
X1460639Y572944D01*
X1460758Y573094D01*
X1460880Y573241D01*
X1461006Y573385D01*
X1461136Y573526D01*
X1461268Y573664D01*
X1461405Y573798D01*
X1461544Y573930D01*
X1461687Y574057D01*
X1461832Y574182D01*
X1461981Y574302D01*
X1462132Y574419D01*
X1462287Y574532D01*
X1462444Y574642D01*
X1462603Y574748D01*
X1462765Y574849D01*
X1462930Y574947D01*
X1463097Y575041D01*
X1463266Y575130D01*
X1463437Y575216D01*
X1463611Y575297D01*
X1463786Y575374D01*
X1463963Y575447D01*
X1464142Y575515D01*
X1464322Y575579D01*
X1464504Y575639D01*
X1464687Y575694D01*
X1464872Y575744D01*
X1465058Y575791D01*
X1465245Y575832D01*
X1465432Y575869D01*
X1465621Y575902D01*
X1465810Y575930D01*
X1466000Y575953D01*
X1466191Y575971D01*
X1466382Y575985D01*
X1466573Y575995D01*
X1466764Y575999D01*
X1466956Y575999D01*
X1467147Y575995D01*
X1467338Y575985D01*
X1467529Y575971D01*
X1467720Y575953D01*
X1467910Y575930D01*
X1468099Y575902D01*
X1468288Y575869D01*
X1468475Y575832D01*
X1468662Y575791D01*
X1468848Y575744D01*
X1469033Y575694D01*
X1469216Y575639D01*
X1469398Y575579D01*
X1469578Y575515D01*
X1469757Y575447D01*
X1469934Y575374D01*
X1470109Y575297D01*
X1470283Y575216D01*
X1470454Y575130D01*
X1470623Y575041D01*
X1470790Y574947D01*
X1470955Y574849D01*
X1471117Y574748D01*
X1471276Y574642D01*
X1471433Y574532D01*
X1471588Y574419D01*
X1471739Y574302D01*
X1471888Y574182D01*
X1472033Y574057D01*
X1472176Y573930D01*
X1472315Y573798D01*
X1472452Y573664D01*
X1472584Y573526D01*
X1472714Y573385D01*
X1472840Y573241D01*
X1472962Y573094D01*
X1473081Y572944D01*
X1473196Y572791D01*
X1473308Y572635D01*
X1473415Y572477D01*
X1473519Y572316D01*
X1473619Y572153D01*
X1473714Y571987D01*
X1473806Y571819D01*
X1473893Y571649D01*
X1473977Y571476D01*
X1474056Y571302D01*
X1474131Y571126D01*
X1474201Y570948D01*
X1474268Y570768D01*
X1474329Y570587D01*
X1474387Y570404D01*
X1474440Y570221D01*
X1474488Y570035D01*
X1474532Y569849D01*
X1474571Y569662D01*
X1474606Y569473D01*
X1474636Y569284D01*
X1474662Y569095D01*
X1474683Y568904D01*
X1474699Y568714D01*
X1474711Y568523D01*
X1474718Y568331D01*
X1474720Y568140D01*
X1474720Y560280D01*
D13*
X70984Y955000D02*
X71041Y959639D01*
X71212Y964275D01*
X71496Y968905D01*
X71894Y973527D01*
X72405Y978138D01*
X73030Y982734D01*
X73767Y987315D01*
X74616Y991875D01*
X75577Y996414D01*
X76649Y1000927D01*
X77831Y1005413D01*
X79123Y1009868D01*
X80524Y1014291D01*
X82033Y1018678D01*
X83649Y1023026D01*
X85372Y1027333D01*
X87200Y1031597D01*
X89132Y1035815D01*
X91166Y1039984D01*
X93303Y1044102D01*
X95540Y1048166D01*
X97876Y1052174D01*
X100309Y1056123D01*
X102839Y1060012D01*
X105463Y1063837D01*
X108181Y1067597D01*
X110990Y1071289D01*
X113889Y1074910D01*
X116875Y1078460D01*
X119948Y1081935D01*
X123106Y1085334D01*
X126346Y1088654D01*
X129666Y1091894D01*
X133065Y1095052D01*
X136540Y1098125D01*
X140090Y1101111D01*
X143711Y1104010D01*
X147403Y1106819D01*
X151163Y1109537D01*
X154988Y1112161D01*
X158877Y1114691D01*
X162826Y1117124D01*
X166834Y1119460D01*
X170898Y1121697D01*
X175016Y1123834D01*
X179185Y1125868D01*
X183403Y1127800D01*
X187667Y1129628D01*
X191974Y1131351D01*
X196322Y1132967D01*
X200709Y1134476D01*
X205132Y1135877D01*
X209587Y1137169D01*
X214073Y1138351D01*
X218586Y1139423D01*
X223125Y1140384D01*
X227685Y1141233D01*
X232266Y1141970D01*
X236862Y1142595D01*
X241473Y1143106D01*
X246095Y1143504D01*
X250725Y1143788D01*
X255361Y1143959D01*
X260000Y1144016D01*
X264639Y1143959D01*
X269275Y1143788D01*
X273905Y1143504D01*
X278527Y1143106D01*
X283138Y1142595D01*
X287734Y1141970D01*
X292315Y1141233D01*
X296875Y1140384D01*
X301414Y1139423D01*
X305927Y1138351D01*
X310413Y1137169D01*
X314868Y1135877D01*
X319291Y1134476D01*
X323678Y1132967D01*
X328026Y1131351D01*
X332333Y1129628D01*
X336597Y1127800D01*
X340815Y1125868D01*
X344984Y1123834D01*
X349102Y1121697D01*
X353166Y1119460D01*
X357174Y1117124D01*
X361123Y1114691D01*
X365012Y1112161D01*
X368837Y1109537D01*
X372597Y1106819D01*
X376289Y1104010D01*
X379910Y1101111D01*
X383460Y1098125D01*
X386935Y1095052D01*
X390334Y1091894D01*
X393654Y1088654D01*
X396894Y1085334D01*
X400052Y1081935D01*
X403125Y1078460D01*
X406111Y1074910D01*
X409010Y1071289D01*
X411819Y1067597D01*
X414537Y1063837D01*
X417161Y1060012D01*
X419691Y1056123D01*
X422124Y1052174D01*
X424460Y1048166D01*
X426697Y1044102D01*
X428834Y1039984D01*
X430868Y1035815D01*
X432800Y1031597D01*
X434628Y1027333D01*
X436351Y1023026D01*
X437967Y1018678D01*
X439476Y1014291D01*
X440877Y1009868D01*
X442169Y1005413D01*
X443351Y1000927D01*
X444423Y996414D01*
X445384Y991875D01*
X446233Y987315D01*
X446970Y982734D01*
X447595Y978138D01*
X448106Y973527D01*
X448504Y968905D01*
X448788Y964275D01*
X448959Y959639D01*
X449016Y955000D01*
X448959Y950361D01*
X448788Y945725D01*
X448504Y941095D01*
X448106Y936473D01*
X447595Y931862D01*
X446970Y927266D01*
X446233Y922685D01*
X445384Y918125D01*
X444423Y913586D01*
X443351Y909073D01*
X442169Y904587D01*
X440877Y900132D01*
X439476Y895709D01*
X437967Y891322D01*
X436351Y886974D01*
X434628Y882667D01*
X432800Y878403D01*
X430868Y874185D01*
X428834Y870016D01*
X426697Y865898D01*
X424460Y861834D01*
X422124Y857826D01*
X419691Y853877D01*
X417161Y849988D01*
X414537Y846163D01*
X411819Y842403D01*
X409010Y838711D01*
X406111Y835090D01*
X403125Y831540D01*
X400052Y828065D01*
X396894Y824666D01*
X393654Y821346D01*
X390334Y818106D01*
X386935Y814948D01*
X383460Y811875D01*
X379910Y808889D01*
X376289Y805990D01*
X372597Y803181D01*
X368837Y800463D01*
X365012Y797839D01*
X361123Y795309D01*
X357174Y792876D01*
X353166Y790540D01*
X349102Y788303D01*
X344984Y786166D01*
X340815Y784132D01*
X336597Y782200D01*
X332333Y780372D01*
X328026Y778649D01*
X323678Y777033D01*
X319291Y775524D01*
X314868Y774123D01*
X310413Y772831D01*
X305927Y771649D01*
X301414Y770577D01*
X296875Y769616D01*
X292315Y768767D01*
X287734Y768030D01*
X283138Y767405D01*
X278527Y766894D01*
X273905Y766496D01*
X269275Y766212D01*
X264639Y766041D01*
X260000Y765984D01*
X255361Y766041D01*
X250725Y766212D01*
X246095Y766496D01*
X241473Y766894D01*
X236862Y767405D01*
X232266Y768030D01*
X227685Y768767D01*
X223125Y769616D01*
X218586Y770577D01*
X214073Y771649D01*
X209587Y772831D01*
X205132Y774123D01*
X200709Y775524D01*
X196322Y777033D01*
X191974Y778649D01*
X187667Y780372D01*
X183403Y782200D01*
X179185Y784132D01*
X175016Y786166D01*
X170898Y788303D01*
X166834Y790540D01*
X162826Y792876D01*
X158877Y795309D01*
X154988Y797839D01*
X151163Y800463D01*
X147403Y803181D01*
X143711Y805990D01*
X140090Y808889D01*
X136540Y811875D01*
X133065Y814948D01*
X129666Y818106D01*
X126346Y821346D01*
X123106Y824666D01*
X119948Y828065D01*
X116875Y831540D01*
X113889Y835090D01*
X110990Y838711D01*
X108181Y842403D01*
X105463Y846163D01*
X102839Y849988D01*
X100309Y853877D01*
X97876Y857826D01*
X95540Y861834D01*
X93303Y865898D01*
X91166Y870016D01*
X89132Y874185D01*
X87200Y878403D01*
X85372Y882667D01*
X83649Y886974D01*
X82033Y891322D01*
X80524Y895709D01*
X79123Y900132D01*
X77831Y904587D01*
X76649Y909073D01*
X75577Y913586D01*
X74616Y918125D01*
X73767Y922685D01*
X73030Y927266D01*
X72405Y931862D01*
X71894Y936473D01*
X71496Y941095D01*
X71212Y945725D01*
X71041Y950361D01*
X70984Y955000D01*
X90709Y955000D02*
X90760Y959155D01*
X90913Y963307D01*
X91168Y967454D01*
X91524Y971593D01*
X91982Y975723D01*
X92541Y979840D01*
X93201Y983942D01*
X93962Y988027D01*
X94822Y992092D01*
X95782Y996134D01*
X96841Y1000152D01*
X97999Y1004143D01*
X99253Y1008103D01*
X100605Y1012032D01*
X102053Y1015927D01*
X103596Y1019785D01*
X105233Y1023604D01*
X106963Y1027381D01*
X108785Y1031115D01*
X110699Y1034803D01*
X112702Y1038443D01*
X114794Y1042033D01*
X116974Y1045570D01*
X119240Y1049053D01*
X121590Y1052479D01*
X124024Y1055847D01*
X126540Y1059153D01*
X129136Y1062397D01*
X131811Y1065576D01*
X134564Y1068689D01*
X137391Y1071733D01*
X140293Y1074707D01*
X143267Y1077609D01*
X146311Y1080436D01*
X149424Y1083189D01*
X152603Y1085864D01*
X155847Y1088460D01*
X159153Y1090976D01*
X162521Y1093410D01*
X165947Y1095760D01*
X169430Y1098026D01*
X172967Y1100206D01*
X176557Y1102298D01*
X180197Y1104301D01*
X183885Y1106215D01*
X187619Y1108037D01*
X191396Y1109767D01*
X195215Y1111404D01*
X199073Y1112947D01*
X202968Y1114395D01*
X206897Y1115747D01*
X210857Y1117001D01*
X214848Y1118159D01*
X218866Y1119218D01*
X222908Y1120178D01*
X226973Y1121038D01*
X231058Y1121799D01*
X235160Y1122459D01*
X239277Y1123018D01*
X243407Y1123476D01*
X247546Y1123832D01*
X251693Y1124087D01*
X255845Y1124240D01*
X260000Y1124291D01*
X264155Y1124240D01*
X268307Y1124087D01*
X272454Y1123832D01*
X276593Y1123476D01*
X280723Y1123018D01*
X284840Y1122459D01*
X288942Y1121799D01*
X293027Y1121038D01*
X297092Y1120178D01*
X301134Y1119218D01*
X305152Y1118159D01*
X309143Y1117001D01*
X313103Y1115747D01*
X317032Y1114395D01*
X320927Y1112947D01*
X324785Y1111404D01*
X328604Y1109767D01*
X332381Y1108037D01*
X336115Y1106215D01*
X339803Y1104301D01*
X343443Y1102298D01*
X347033Y1100206D01*
X350570Y1098026D01*
X354053Y1095760D01*
X357479Y1093410D01*
X360847Y1090976D01*
X364153Y1088460D01*
X367397Y1085864D01*
X370576Y1083189D01*
X373689Y1080436D01*
X376733Y1077609D01*
X379707Y1074707D01*
X382609Y1071733D01*
X385436Y1068689D01*
X388189Y1065576D01*
X390864Y1062397D01*
X393460Y1059153D01*
X395976Y1055847D01*
X398410Y1052479D01*
X400760Y1049053D01*
X403026Y1045570D01*
X405206Y1042033D01*
X407298Y1038443D01*
X409301Y1034803D01*
X411215Y1031115D01*
X413037Y1027381D01*
X414767Y1023604D01*
X416404Y1019785D01*
X417947Y1015927D01*
X419395Y1012032D01*
X420747Y1008103D01*
X422001Y1004143D01*
X423159Y1000152D01*
X424218Y996134D01*
X425178Y992092D01*
X426038Y988027D01*
X426799Y983942D01*
X427459Y979840D01*
X428018Y975723D01*
X428476Y971593D01*
X428832Y967454D01*
X429087Y963307D01*
X429240Y959155D01*
X429291Y955000D01*
X429240Y950845D01*
X429087Y946693D01*
X428832Y942546D01*
X428476Y938407D01*
X428018Y934277D01*
X427459Y930160D01*
X426799Y926058D01*
X426038Y921973D01*
X425178Y917908D01*
X424218Y913866D01*
X423159Y909848D01*
X422001Y905857D01*
X420747Y901897D01*
X419395Y897968D01*
X417947Y894073D01*
X416404Y890215D01*
X414767Y886396D01*
X413037Y882619D01*
X411215Y878885D01*
X409301Y875197D01*
X407298Y871557D01*
X405206Y867967D01*
X403026Y864430D01*
X400760Y860947D01*
X398410Y857521D01*
X395976Y854153D01*
X393460Y850847D01*
X390864Y847603D01*
X388189Y844424D01*
X385436Y841311D01*
X382609Y838267D01*
X379707Y835293D01*
X376733Y832391D01*
X373689Y829564D01*
X370576Y826811D01*
X367397Y824136D01*
X364153Y821540D01*
X360847Y819024D01*
X357479Y816590D01*
X354053Y814240D01*
X350570Y811974D01*
X347033Y809794D01*
X343443Y807702D01*
X339803Y805699D01*
X336115Y803785D01*
X332381Y801963D01*
X328604Y800233D01*
X324785Y798596D01*
X320927Y797053D01*
X317032Y795605D01*
X313103Y794253D01*
X309143Y792999D01*
X305152Y791841D01*
X301134Y790782D01*
X297092Y789822D01*
X293027Y788962D01*
X288942Y788201D01*
X284840Y787541D01*
X280723Y786982D01*
X276593Y786524D01*
X272454Y786168D01*
X268307Y785913D01*
X264155Y785760D01*
X260000Y785709D01*
X255845Y785760D01*
X251693Y785913D01*
X247546Y786168D01*
X243407Y786524D01*
X239277Y786982D01*
X235160Y787541D01*
X231058Y788201D01*
X226973Y788962D01*
X222908Y789822D01*
X218866Y790782D01*
X214848Y791841D01*
X210857Y792999D01*
X206897Y794253D01*
X202968Y795605D01*
X199073Y797053D01*
X195215Y798596D01*
X191396Y800233D01*
X187619Y801963D01*
X183885Y803785D01*
X180197Y805699D01*
X176557Y807702D01*
X172967Y809794D01*
X169430Y811974D01*
X165947Y814240D01*
X162521Y816590D01*
X159153Y819024D01*
X155847Y821540D01*
X152603Y824136D01*
X149424Y826811D01*
X146311Y829564D01*
X143267Y832391D01*
X140293Y835293D01*
X137391Y838267D01*
X134564Y841311D01*
X131811Y844424D01*
X129136Y847603D01*
X126540Y850847D01*
X124024Y854153D01*
X121590Y857521D01*
X119240Y860947D01*
X116974Y864430D01*
X114794Y867967D01*
X112702Y871557D01*
X110699Y875197D01*
X108785Y878885D01*
X106963Y882619D01*
X105233Y886396D01*
X103596Y890215D01*
X102053Y894073D01*
X100605Y897968D01*
X99253Y901897D01*
X97999Y905857D01*
X96841Y909848D01*
X95782Y913866D01*
X94822Y917908D01*
X93962Y921973D01*
X93201Y926058D01*
X92541Y930160D01*
X91982Y934277D01*
X91524Y938407D01*
X91168Y942546D01*
X90913Y946693D01*
X90760Y950845D01*
X90709Y955000D01*
D11*
X212551Y1182376D02*
X212551Y1202821D01*
X212555Y1203132D01*
X212566Y1203443D01*
X212585Y1203754D01*
X212612Y1204064D01*
X212646Y1204373D01*
X212687Y1204681D01*
X212736Y1204989D01*
X212793Y1205295D01*
X212857Y1205599D01*
X212928Y1205902D01*
X213007Y1206203D01*
X213093Y1206502D01*
X213186Y1206799D01*
X213287Y1207094D01*
X213394Y1207386D01*
X213509Y1207675D01*
X213631Y1207961D01*
X213759Y1208245D01*
X213895Y1208525D01*
X214037Y1208802D01*
X214186Y1209075D01*
X214342Y1209344D01*
X214504Y1209610D01*
X214672Y1209871D01*
X214847Y1210129D01*
X215028Y1210382D01*
X215215Y1210631D01*
X215408Y1210875D01*
X215607Y1211114D01*
X215812Y1211348D01*
X216023Y1211577D01*
X216239Y1211801D01*
X216460Y1212020D01*
X216687Y1212233D01*
X216919Y1212441D01*
X217155Y1212643D01*
X217397Y1212839D01*
X217643Y1213029D01*
X217894Y1213213D01*
X218149Y1213391D01*
X218409Y1213563D01*
X218672Y1213728D01*
X218940Y1213887D01*
X219211Y1214039D01*
X219486Y1214185D01*
X219765Y1214324D01*
X220047Y1214456D01*
X220331Y1214581D01*
X220619Y1214699D01*
X220910Y1214811D01*
X221203Y1214915D01*
X221499Y1215011D01*
X221797Y1215101D01*
X222097Y1215184D01*
X222399Y1215259D01*
X222703Y1215326D01*
X223008Y1215386D01*
X223315Y1215439D01*
X223623Y1215485D01*
X223931Y1215522D01*
X224241Y1215553D01*
X224552Y1215575D01*
X224862Y1215590D01*
X225173Y1215598D01*
X225485Y1215598D01*
X225796Y1215590D01*
X226106Y1215575D01*
X226417Y1215553D01*
X226727Y1215522D01*
X227035Y1215485D01*
X227343Y1215439D01*
X227650Y1215386D01*
X227955Y1215326D01*
X228259Y1215259D01*
X228561Y1215184D01*
X228861Y1215101D01*
X229159Y1215011D01*
X229455Y1214915D01*
X229748Y1214811D01*
X230039Y1214699D01*
X230327Y1214581D01*
X230611Y1214456D01*
X230893Y1214324D01*
X231172Y1214185D01*
X231447Y1214039D01*
X231718Y1213887D01*
X231986Y1213728D01*
X232249Y1213563D01*
X232509Y1213391D01*
X232764Y1213213D01*
X233015Y1213029D01*
X233261Y1212839D01*
X233503Y1212643D01*
X233739Y1212441D01*
X233971Y1212233D01*
X234198Y1212020D01*
X234419Y1211801D01*
X234635Y1211577D01*
X234846Y1211348D01*
X235051Y1211114D01*
X235250Y1210875D01*
X235443Y1210631D01*
X235630Y1210382D01*
X235811Y1210129D01*
X235986Y1209871D01*
X236154Y1209610D01*
X236316Y1209344D01*
X236472Y1209075D01*
X236621Y1208802D01*
X236763Y1208525D01*
X236899Y1208245D01*
X237027Y1207961D01*
X237149Y1207675D01*
X237264Y1207386D01*
X237371Y1207094D01*
X237472Y1206799D01*
X237565Y1206502D01*
X237651Y1206203D01*
X237730Y1205902D01*
X237801Y1205599D01*
X237865Y1205295D01*
X237922Y1204989D01*
X237971Y1204681D01*
X238012Y1204373D01*
X238046Y1204064D01*
X238073Y1203754D01*
X238092Y1203443D01*
X238103Y1203132D01*
X238107Y1202821D01*
X238107Y1182376D01*
X238103Y1182065D01*
X238092Y1181754D01*
X238073Y1181443D01*
X238046Y1181133D01*
X238012Y1180824D01*
X237971Y1180516D01*
X237922Y1180208D01*
X237865Y1179902D01*
X237801Y1179598D01*
X237730Y1179295D01*
X237651Y1178994D01*
X237565Y1178695D01*
X237472Y1178398D01*
X237371Y1178103D01*
X237264Y1177811D01*
X237149Y1177522D01*
X237027Y1177236D01*
X236899Y1176952D01*
X236763Y1176672D01*
X236621Y1176395D01*
X236472Y1176122D01*
X236316Y1175853D01*
X236154Y1175587D01*
X235986Y1175326D01*
X235811Y1175068D01*
X235630Y1174815D01*
X235443Y1174566D01*
X235250Y1174322D01*
X235051Y1174083D01*
X234846Y1173849D01*
X234635Y1173620D01*
X234419Y1173396D01*
X234198Y1173177D01*
X233971Y1172964D01*
X233739Y1172756D01*
X233503Y1172554D01*
X233261Y1172358D01*
X233015Y1172168D01*
X232764Y1171984D01*
X232509Y1171806D01*
X232249Y1171634D01*
X231986Y1171469D01*
X231718Y1171310D01*
X231447Y1171158D01*
X231172Y1171012D01*
X230893Y1170873D01*
X230611Y1170741D01*
X230327Y1170616D01*
X230039Y1170498D01*
X229748Y1170386D01*
X229455Y1170282D01*
X229159Y1170186D01*
X228861Y1170096D01*
X228561Y1170013D01*
X228259Y1169938D01*
X227955Y1169871D01*
X227650Y1169811D01*
X227343Y1169758D01*
X227035Y1169712D01*
X226727Y1169675D01*
X226417Y1169644D01*
X226106Y1169622D01*
X225796Y1169607D01*
X225485Y1169599D01*
X225173Y1169599D01*
X224862Y1169607D01*
X224552Y1169622D01*
X224241Y1169644D01*
X223931Y1169675D01*
X223623Y1169712D01*
X223315Y1169758D01*
X223008Y1169811D01*
X222703Y1169871D01*
X222399Y1169938D01*
X222097Y1170013D01*
X221797Y1170096D01*
X221499Y1170186D01*
X221203Y1170282D01*
X220910Y1170386D01*
X220619Y1170498D01*
X220331Y1170616D01*
X220047Y1170741D01*
X219765Y1170873D01*
X219486Y1171012D01*
X219211Y1171158D01*
X218940Y1171310D01*
X218672Y1171469D01*
X218409Y1171634D01*
X218149Y1171806D01*
X217894Y1171984D01*
X217643Y1172168D01*
X217397Y1172358D01*
X217155Y1172554D01*
X216919Y1172756D01*
X216687Y1172964D01*
X216460Y1173177D01*
X216239Y1173396D01*
X216023Y1173620D01*
X215812Y1173849D01*
X215607Y1174083D01*
X215408Y1174322D01*
X215215Y1174566D01*
X215028Y1174815D01*
X214847Y1175068D01*
X214672Y1175326D01*
X214504Y1175587D01*
X214342Y1175853D01*
X214186Y1176122D01*
X214037Y1176395D01*
X213895Y1176672D01*
X213759Y1176952D01*
X213631Y1177236D01*
X213509Y1177522D01*
X213394Y1177811D01*
X213287Y1178103D01*
X213186Y1178398D01*
X213093Y1178695D01*
X213007Y1178994D01*
X212928Y1179295D01*
X212857Y1179598D01*
X212793Y1179902D01*
X212736Y1180208D01*
X212687Y1180516D01*
X212646Y1180824D01*
X212612Y1181133D01*
X212585Y1181443D01*
X212566Y1181754D01*
X212555Y1182065D01*
X212551Y1182376D01*
X232996Y1179821D02*
X243218Y1169598D01*
X256425Y1205376D02*
X269202Y1215598D01*
X269202Y1169598D01*
X256425Y1169598D02*
X281980Y1169598D01*
D10*
X910000Y275000D02*
X940000Y275000D01*
X910000Y275000D02*
X880000Y275000D01*
X910000Y275000D02*
X910000Y285000D01*
X910000Y275000D02*
X910000Y265000D01*
D11*
X863000Y247588D02*
X827630Y247588D01*
X827630Y257413D01*
X827633Y257652D01*
X827642Y257891D01*
X827656Y258130D01*
X827677Y258369D01*
X827703Y258606D01*
X827735Y258844D01*
X827772Y259080D01*
X827816Y259315D01*
X827865Y259549D01*
X827920Y259782D01*
X827980Y260014D01*
X828047Y260244D01*
X828118Y260472D01*
X828196Y260698D01*
X828278Y260923D01*
X828366Y261145D01*
X828460Y261365D01*
X828559Y261583D01*
X828663Y261799D01*
X828773Y262011D01*
X828887Y262222D01*
X829007Y262429D01*
X829131Y262633D01*
X829261Y262834D01*
X829395Y263032D01*
X829535Y263227D01*
X829679Y263418D01*
X829827Y263605D01*
X829980Y263789D01*
X830138Y263969D01*
X830299Y264146D01*
X830466Y264318D01*
X830636Y264486D01*
X830810Y264650D01*
X830988Y264810D01*
X831170Y264965D01*
X831356Y265116D01*
X831545Y265262D01*
X831738Y265404D01*
X831935Y265540D01*
X832134Y265672D01*
X832337Y265800D01*
X832543Y265922D01*
X832751Y266039D01*
X832963Y266151D01*
X833177Y266258D01*
X833393Y266359D01*
X833612Y266455D01*
X833834Y266546D01*
X834057Y266632D01*
X834283Y266712D01*
X834510Y266786D01*
X834739Y266855D01*
X834970Y266919D01*
X835202Y266976D01*
X835436Y267028D01*
X835670Y267075D01*
X835906Y267115D01*
X836143Y267150D01*
X836380Y267179D01*
X836619Y267202D01*
X836857Y267220D01*
X837096Y267231D01*
X837335Y267237D01*
X837575Y267237D01*
X837814Y267231D01*
X838053Y267220D01*
X838291Y267202D01*
X838530Y267179D01*
X838767Y267150D01*
X839004Y267115D01*
X839240Y267075D01*
X839474Y267028D01*
X839708Y266976D01*
X839940Y266919D01*
X840171Y266855D01*
X840400Y266786D01*
X840627Y266712D01*
X840853Y266632D01*
X841076Y266546D01*
X841298Y266455D01*
X841517Y266359D01*
X841733Y266258D01*
X841947Y266151D01*
X842159Y266039D01*
X842368Y265922D01*
X842573Y265800D01*
X842776Y265672D01*
X842975Y265540D01*
X843172Y265404D01*
X843365Y265262D01*
X843554Y265116D01*
X843740Y264965D01*
X843922Y264810D01*
X844100Y264650D01*
X844274Y264486D01*
X844444Y264318D01*
X844611Y264146D01*
X844772Y263969D01*
X844930Y263789D01*
X845083Y263605D01*
X845231Y263418D01*
X845375Y263227D01*
X845515Y263032D01*
X845649Y262834D01*
X845779Y262633D01*
X845903Y262429D01*
X846023Y262222D01*
X846137Y262011D01*
X846247Y261799D01*
X846351Y261583D01*
X846450Y261365D01*
X846544Y261145D01*
X846632Y260923D01*
X846714Y260698D01*
X846792Y260472D01*
X846863Y260244D01*
X846930Y260014D01*
X846990Y259782D01*
X847045Y259549D01*
X847094Y259315D01*
X847138Y259080D01*
X847175Y258844D01*
X847207Y258606D01*
X847233Y258369D01*
X847254Y258130D01*
X847268Y257891D01*
X847277Y257652D01*
X847280Y257413D01*
X847280Y247588D01*
X847280Y259378D02*
X863000Y267238D01*
X835490Y282762D02*
X827630Y292587D01*
X863000Y292587D01*
X863000Y282762D02*
X863000Y302412D01*
D10*
X1225000Y545000D02*
X1255000Y545000D01*
X1225000Y545000D02*
X1195000Y545000D01*
X1225000Y545000D02*
X1225000Y555000D01*
X1225000Y545000D02*
X1225000Y535000D01*
D11*
X1178000Y517588D02*
X1142630Y517588D01*
X1142630Y527413D01*
X1142633Y527652D01*
X1142642Y527891D01*
X1142656Y528130D01*
X1142677Y528369D01*
X1142703Y528606D01*
X1142735Y528844D01*
X1142772Y529080D01*
X1142816Y529315D01*
X1142865Y529549D01*
X1142920Y529782D01*
X1142980Y530014D01*
X1143047Y530244D01*
X1143118Y530472D01*
X1143196Y530698D01*
X1143278Y530923D01*
X1143366Y531145D01*
X1143460Y531365D01*
X1143559Y531583D01*
X1143663Y531799D01*
X1143773Y532011D01*
X1143887Y532222D01*
X1144007Y532429D01*
X1144131Y532633D01*
X1144261Y532834D01*
X1144395Y533032D01*
X1144535Y533227D01*
X1144679Y533418D01*
X1144827Y533605D01*
X1144980Y533789D01*
X1145138Y533969D01*
X1145299Y534146D01*
X1145466Y534318D01*
X1145636Y534486D01*
X1145810Y534650D01*
X1145988Y534810D01*
X1146170Y534965D01*
X1146356Y535116D01*
X1146545Y535262D01*
X1146738Y535404D01*
X1146935Y535540D01*
X1147134Y535672D01*
X1147337Y535800D01*
X1147543Y535922D01*
X1147751Y536039D01*
X1147963Y536151D01*
X1148177Y536258D01*
X1148393Y536359D01*
X1148612Y536455D01*
X1148834Y536546D01*
X1149057Y536632D01*
X1149283Y536712D01*
X1149510Y536786D01*
X1149739Y536855D01*
X1149970Y536919D01*
X1150202Y536976D01*
X1150436Y537028D01*
X1150670Y537075D01*
X1150906Y537115D01*
X1151143Y537150D01*
X1151380Y537179D01*
X1151619Y537202D01*
X1151857Y537220D01*
X1152096Y537231D01*
X1152335Y537237D01*
X1152575Y537237D01*
X1152814Y537231D01*
X1153053Y537220D01*
X1153291Y537202D01*
X1153530Y537179D01*
X1153767Y537150D01*
X1154004Y537115D01*
X1154240Y537075D01*
X1154474Y537028D01*
X1154708Y536976D01*
X1154940Y536919D01*
X1155171Y536855D01*
X1155400Y536786D01*
X1155627Y536712D01*
X1155853Y536632D01*
X1156076Y536546D01*
X1156298Y536455D01*
X1156517Y536359D01*
X1156733Y536258D01*
X1156947Y536151D01*
X1157159Y536039D01*
X1157368Y535922D01*
X1157573Y535800D01*
X1157776Y535672D01*
X1157975Y535540D01*
X1158172Y535404D01*
X1158365Y535262D01*
X1158554Y535116D01*
X1158740Y534965D01*
X1158922Y534810D01*
X1159100Y534650D01*
X1159274Y534486D01*
X1159444Y534318D01*
X1159611Y534146D01*
X1159772Y533969D01*
X1159930Y533789D01*
X1160083Y533605D01*
X1160231Y533418D01*
X1160375Y533227D01*
X1160515Y533032D01*
X1160649Y532834D01*
X1160779Y532633D01*
X1160903Y532429D01*
X1161023Y532222D01*
X1161137Y532011D01*
X1161247Y531799D01*
X1161351Y531583D01*
X1161450Y531365D01*
X1161544Y531145D01*
X1161632Y530923D01*
X1161714Y530698D01*
X1161792Y530472D01*
X1161863Y530244D01*
X1161930Y530014D01*
X1161990Y529782D01*
X1162045Y529549D01*
X1162094Y529315D01*
X1162138Y529080D01*
X1162175Y528844D01*
X1162207Y528606D01*
X1162233Y528369D01*
X1162254Y528130D01*
X1162268Y527891D01*
X1162277Y527652D01*
X1162280Y527413D01*
X1162280Y517588D01*
X1162280Y529378D02*
X1178000Y537238D01*
X1178000Y552762D02*
X1178000Y562587D01*
X1177997Y562826D01*
X1177988Y563065D01*
X1177974Y563304D01*
X1177953Y563543D01*
X1177927Y563780D01*
X1177895Y564018D01*
X1177858Y564254D01*
X1177814Y564489D01*
X1177765Y564723D01*
X1177710Y564956D01*
X1177650Y565188D01*
X1177583Y565418D01*
X1177512Y565646D01*
X1177434Y565872D01*
X1177352Y566097D01*
X1177264Y566319D01*
X1177170Y566539D01*
X1177071Y566757D01*
X1176967Y566973D01*
X1176857Y567185D01*
X1176743Y567396D01*
X1176623Y567603D01*
X1176499Y567807D01*
X1176369Y568008D01*
X1176235Y568206D01*
X1176095Y568401D01*
X1175951Y568592D01*
X1175803Y568779D01*
X1175650Y568963D01*
X1175492Y569143D01*
X1175331Y569320D01*
X1175164Y569492D01*
X1174994Y569660D01*
X1174820Y569824D01*
X1174642Y569984D01*
X1174460Y570139D01*
X1174274Y570290D01*
X1174085Y570436D01*
X1173892Y570578D01*
X1173695Y570714D01*
X1173496Y570846D01*
X1173293Y570974D01*
X1173088Y571096D01*
X1172879Y571213D01*
X1172667Y571325D01*
X1172453Y571432D01*
X1172237Y571533D01*
X1172018Y571629D01*
X1171796Y571720D01*
X1171573Y571806D01*
X1171347Y571886D01*
X1171120Y571960D01*
X1170891Y572029D01*
X1170660Y572093D01*
X1170428Y572150D01*
X1170194Y572202D01*
X1169960Y572249D01*
X1169724Y572289D01*
X1169487Y572324D01*
X1169250Y572353D01*
X1169011Y572376D01*
X1168773Y572394D01*
X1168534Y572405D01*
X1168295Y572411D01*
X1168055Y572411D01*
X1167816Y572405D01*
X1167577Y572394D01*
X1167339Y572376D01*
X1167100Y572353D01*
X1166863Y572324D01*
X1166626Y572289D01*
X1166390Y572249D01*
X1166156Y572202D01*
X1165922Y572150D01*
X1165690Y572093D01*
X1165459Y572029D01*
X1165230Y571960D01*
X1165003Y571886D01*
X1164777Y571806D01*
X1164554Y571720D01*
X1164332Y571629D01*
X1164113Y571533D01*
X1163897Y571432D01*
X1163683Y571325D01*
X1163471Y571213D01*
X1163263Y571096D01*
X1163057Y570974D01*
X1162854Y570846D01*
X1162655Y570714D01*
X1162458Y570578D01*
X1162265Y570436D01*
X1162076Y570290D01*
X1161890Y570139D01*
X1161708Y569984D01*
X1161530Y569824D01*
X1161356Y569660D01*
X1161186Y569492D01*
X1161019Y569320D01*
X1160858Y569143D01*
X1160700Y568963D01*
X1160547Y568779D01*
X1160399Y568592D01*
X1160255Y568401D01*
X1160115Y568206D01*
X1159981Y568008D01*
X1159851Y567807D01*
X1159727Y567603D01*
X1159607Y567396D01*
X1159493Y567185D01*
X1159383Y566973D01*
X1159279Y566757D01*
X1159180Y566539D01*
X1159086Y566319D01*
X1158998Y566097D01*
X1158916Y565872D01*
X1158838Y565646D01*
X1158767Y565418D01*
X1158700Y565188D01*
X1158640Y564956D01*
X1158585Y564723D01*
X1158536Y564489D01*
X1158492Y564254D01*
X1158455Y564018D01*
X1158423Y563780D01*
X1158397Y563543D01*
X1158376Y563304D01*
X1158362Y563065D01*
X1158353Y562826D01*
X1158350Y562587D01*
X1142630Y564552D02*
X1142630Y552762D01*
X1142630Y564552D02*
X1142632Y564743D01*
X1142639Y564935D01*
X1142651Y565126D01*
X1142667Y565316D01*
X1142688Y565507D01*
X1142714Y565696D01*
X1142744Y565885D01*
X1142779Y566074D01*
X1142818Y566261D01*
X1142862Y566447D01*
X1142910Y566633D01*
X1142963Y566816D01*
X1143021Y566999D01*
X1143082Y567180D01*
X1143149Y567360D01*
X1143219Y567538D01*
X1143294Y567714D01*
X1143373Y567888D01*
X1143457Y568061D01*
X1143544Y568231D01*
X1143636Y568399D01*
X1143731Y568565D01*
X1143831Y568728D01*
X1143935Y568889D01*
X1144042Y569047D01*
X1144154Y569203D01*
X1144269Y569356D01*
X1144388Y569506D01*
X1144510Y569653D01*
X1144636Y569797D01*
X1144766Y569938D01*
X1144898Y570076D01*
X1145035Y570210D01*
X1145174Y570342D01*
X1145317Y570469D01*
X1145462Y570594D01*
X1145611Y570714D01*
X1145762Y570831D01*
X1145917Y570944D01*
X1146074Y571054D01*
X1146233Y571160D01*
X1146395Y571261D01*
X1146560Y571359D01*
X1146727Y571453D01*
X1146896Y571542D01*
X1147067Y571628D01*
X1147241Y571709D01*
X1147416Y571786D01*
X1147593Y571859D01*
X1147772Y571927D01*
X1147952Y571991D01*
X1148134Y572051D01*
X1148317Y572106D01*
X1148502Y572156D01*
X1148688Y572203D01*
X1148875Y572244D01*
X1149062Y572281D01*
X1149251Y572314D01*
X1149440Y572342D01*
X1149630Y572365D01*
X1149821Y572383D01*
X1150012Y572397D01*
X1150203Y572407D01*
X1150394Y572411D01*
X1150586Y572411D01*
X1150777Y572407D01*
X1150968Y572397D01*
X1151159Y572383D01*
X1151350Y572365D01*
X1151540Y572342D01*
X1151729Y572314D01*
X1151918Y572281D01*
X1152105Y572244D01*
X1152292Y572203D01*
X1152478Y572156D01*
X1152663Y572106D01*
X1152846Y572051D01*
X1153028Y571991D01*
X1153208Y571927D01*
X1153387Y571859D01*
X1153564Y571786D01*
X1153739Y571709D01*
X1153913Y571628D01*
X1154084Y571542D01*
X1154253Y571453D01*
X1154420Y571359D01*
X1154585Y571261D01*
X1154747Y571160D01*
X1154906Y571054D01*
X1155063Y570944D01*
X1155218Y570831D01*
X1155369Y570714D01*
X1155518Y570594D01*
X1155663Y570469D01*
X1155806Y570342D01*
X1155945Y570210D01*
X1156082Y570076D01*
X1156214Y569938D01*
X1156344Y569797D01*
X1156470Y569653D01*
X1156592Y569506D01*
X1156711Y569356D01*
X1156826Y569203D01*
X1156938Y569047D01*
X1157045Y568889D01*
X1157149Y568728D01*
X1157249Y568565D01*
X1157344Y568399D01*
X1157436Y568231D01*
X1157523Y568061D01*
X1157607Y567888D01*
X1157686Y567714D01*
X1157761Y567538D01*
X1157831Y567360D01*
X1157898Y567180D01*
X1157959Y566999D01*
X1158017Y566816D01*
X1158070Y566633D01*
X1158118Y566447D01*
X1158162Y566261D01*
X1158201Y566074D01*
X1158236Y565885D01*
X1158266Y565696D01*
X1158292Y565507D01*
X1158313Y565316D01*
X1158329Y565126D01*
X1158341Y564935D01*
X1158348Y564743D01*
X1158350Y564552D01*
X1158350Y556692D01*
D10*
X1035000Y610000D02*
X1035000Y1010000D01*
X835000Y1010000D02*
X835000Y610000D01*
X1035000Y610000D01*
X1035000Y1010000D02*
X975000Y1010000D01*
X895000Y1010000D02*
X835000Y1010000D01*
X895000Y1010000D02*
X895012Y1009026D01*
X895047Y1008052D01*
X895107Y1007080D01*
X895190Y1006110D01*
X895296Y1005141D01*
X895426Y1004176D01*
X895580Y1003214D01*
X895757Y1002256D01*
X895957Y1001303D01*
X896180Y1000355D01*
X896427Y999412D01*
X896696Y998476D01*
X896988Y997547D01*
X897302Y996625D01*
X897639Y995711D01*
X897998Y994805D01*
X898379Y993909D01*
X898782Y993022D01*
X899206Y992145D01*
X899652Y991279D01*
X900118Y990423D01*
X900605Y989580D01*
X901113Y988748D01*
X901640Y987929D01*
X902187Y987123D01*
X902754Y986331D01*
X903340Y985553D01*
X903945Y984789D01*
X904568Y984041D01*
X905209Y983307D01*
X905868Y982590D01*
X906544Y981888D01*
X907237Y981204D01*
X907946Y980536D01*
X908672Y979886D01*
X909413Y979254D01*
X910169Y978640D01*
X910940Y978045D01*
X911726Y977468D01*
X912525Y976911D01*
X913337Y976374D01*
X914162Y975856D01*
X915000Y975359D01*
X915849Y974882D01*
X916710Y974426D01*
X917582Y973991D01*
X918464Y973578D01*
X919356Y973186D01*
X920257Y972816D01*
X921167Y972468D01*
X922085Y972142D01*
X923010Y971839D01*
X923943Y971558D01*
X924883Y971301D01*
X925828Y971066D01*
X926779Y970854D01*
X927735Y970665D01*
X928695Y970500D01*
X929658Y970358D01*
X930625Y970240D01*
X931595Y970145D01*
X932566Y970074D01*
X933539Y970027D01*
X934513Y970003D01*
X935487Y970003D01*
X936461Y970027D01*
X937434Y970074D01*
X938405Y970145D01*
X939375Y970240D01*
X940342Y970358D01*
X941305Y970500D01*
X942265Y970665D01*
X943221Y970854D01*
X944172Y971066D01*
X945117Y971301D01*
X946057Y971558D01*
X946990Y971839D01*
X947915Y972142D01*
X948833Y972468D01*
X949743Y972816D01*
X950644Y973186D01*
X951536Y973578D01*
X952418Y973991D01*
X953290Y974426D01*
X954151Y974882D01*
X955000Y975359D01*
X955838Y975856D01*
X956663Y976374D01*
X957475Y976911D01*
X958274Y977468D01*
X959060Y978045D01*
X959831Y978640D01*
X960587Y979254D01*
X961328Y979886D01*
X962054Y980536D01*
X962763Y981204D01*
X963456Y981888D01*
X964132Y982590D01*
X964791Y983307D01*
X965432Y984041D01*
X966055Y984789D01*
X966660Y985553D01*
X967246Y986331D01*
X967813Y987123D01*
X968360Y987929D01*
X968887Y988748D01*
X969395Y989580D01*
X969882Y990423D01*
X970348Y991279D01*
X970794Y992145D01*
X971218Y993022D01*
X971621Y993909D01*
X972002Y994805D01*
X972361Y995711D01*
X972698Y996625D01*
X973012Y997547D01*
X973304Y998476D01*
X973573Y999412D01*
X973820Y1000355D01*
X974043Y1001303D01*
X974243Y1002256D01*
X974420Y1003214D01*
X974574Y1004176D01*
X974704Y1005141D01*
X974810Y1006110D01*
X974893Y1007080D01*
X974953Y1008052D01*
X974988Y1009026D01*
X975000Y1010000D01*
D11*
X906868Y1046825D02*
X906868Y1072370D01*
X906868Y1046825D02*
X906871Y1046586D01*
X906880Y1046347D01*
X906894Y1046108D01*
X906915Y1045869D01*
X906941Y1045632D01*
X906973Y1045394D01*
X907010Y1045158D01*
X907054Y1044923D01*
X907103Y1044689D01*
X907158Y1044456D01*
X907218Y1044224D01*
X907285Y1043994D01*
X907356Y1043766D01*
X907434Y1043540D01*
X907516Y1043315D01*
X907604Y1043093D01*
X907698Y1042873D01*
X907797Y1042655D01*
X907901Y1042439D01*
X908011Y1042227D01*
X908125Y1042016D01*
X908245Y1041809D01*
X908369Y1041605D01*
X908499Y1041404D01*
X908633Y1041206D01*
X908773Y1041011D01*
X908917Y1040820D01*
X909065Y1040633D01*
X909218Y1040449D01*
X909376Y1040269D01*
X909537Y1040092D01*
X909704Y1039920D01*
X909874Y1039752D01*
X910048Y1039588D01*
X910226Y1039428D01*
X910408Y1039273D01*
X910594Y1039122D01*
X910783Y1038976D01*
X910976Y1038834D01*
X911173Y1038698D01*
X911372Y1038566D01*
X911575Y1038438D01*
X911781Y1038316D01*
X911989Y1038199D01*
X912201Y1038087D01*
X912415Y1037980D01*
X912631Y1037879D01*
X912850Y1037783D01*
X913072Y1037692D01*
X913295Y1037606D01*
X913521Y1037526D01*
X913748Y1037452D01*
X913977Y1037383D01*
X914208Y1037319D01*
X914440Y1037262D01*
X914674Y1037210D01*
X914908Y1037163D01*
X915144Y1037123D01*
X915381Y1037088D01*
X915618Y1037059D01*
X915857Y1037036D01*
X916095Y1037018D01*
X916334Y1037007D01*
X916573Y1037001D01*
X916813Y1037001D01*
X917052Y1037007D01*
X917291Y1037018D01*
X917529Y1037036D01*
X917768Y1037059D01*
X918005Y1037088D01*
X918242Y1037123D01*
X918478Y1037163D01*
X918712Y1037210D01*
X918946Y1037262D01*
X919178Y1037319D01*
X919409Y1037383D01*
X919638Y1037452D01*
X919865Y1037526D01*
X920091Y1037606D01*
X920314Y1037692D01*
X920536Y1037783D01*
X920755Y1037879D01*
X920971Y1037980D01*
X921185Y1038087D01*
X921397Y1038199D01*
X921606Y1038316D01*
X921811Y1038438D01*
X922014Y1038566D01*
X922213Y1038698D01*
X922410Y1038834D01*
X922603Y1038976D01*
X922792Y1039122D01*
X922978Y1039273D01*
X923160Y1039428D01*
X923338Y1039588D01*
X923512Y1039752D01*
X923682Y1039920D01*
X923849Y1040092D01*
X924010Y1040269D01*
X924168Y1040449D01*
X924321Y1040633D01*
X924469Y1040820D01*
X924613Y1041011D01*
X924753Y1041206D01*
X924887Y1041404D01*
X925017Y1041605D01*
X925141Y1041809D01*
X925261Y1042016D01*
X925375Y1042227D01*
X925485Y1042439D01*
X925589Y1042655D01*
X925688Y1042873D01*
X925782Y1043093D01*
X925870Y1043315D01*
X925952Y1043540D01*
X926030Y1043766D01*
X926101Y1043994D01*
X926168Y1044224D01*
X926228Y1044456D01*
X926283Y1044689D01*
X926332Y1044923D01*
X926376Y1045158D01*
X926413Y1045394D01*
X926445Y1045632D01*
X926471Y1045869D01*
X926492Y1046108D01*
X926506Y1046347D01*
X926515Y1046586D01*
X926518Y1046825D01*
X926518Y1072370D01*
X943482Y1064510D02*
X953307Y1072370D01*
X953307Y1037000D01*
X943482Y1037000D02*
X963132Y1037000D01*
D10*
X437520Y182402D02*
X407402Y182402D01*
X752480Y182402D02*
X782598Y182402D01*
X782598Y557598D01*
X407402Y557598D01*
X407402Y182402D01*
X437520Y182402D02*
X437520Y198150D01*
X752480Y198150D01*
X752480Y182402D01*
D11*
X559959Y567000D02*
X548169Y602370D01*
X571749Y602370D02*
X559959Y567000D01*
X587007Y567000D02*
X587007Y602370D01*
X596832Y602370D01*
X597071Y602367D01*
X597310Y602358D01*
X597549Y602344D01*
X597788Y602323D01*
X598025Y602297D01*
X598263Y602265D01*
X598499Y602228D01*
X598734Y602184D01*
X598968Y602135D01*
X599201Y602080D01*
X599433Y602020D01*
X599663Y601953D01*
X599891Y601882D01*
X600117Y601804D01*
X600342Y601722D01*
X600564Y601634D01*
X600784Y601540D01*
X601002Y601441D01*
X601218Y601337D01*
X601430Y601227D01*
X601641Y601113D01*
X601848Y600993D01*
X602052Y600869D01*
X602253Y600739D01*
X602451Y600605D01*
X602646Y600465D01*
X602837Y600321D01*
X603024Y600173D01*
X603208Y600020D01*
X603388Y599862D01*
X603565Y599701D01*
X603737Y599534D01*
X603905Y599364D01*
X604069Y599190D01*
X604229Y599012D01*
X604384Y598830D01*
X604535Y598644D01*
X604681Y598455D01*
X604823Y598262D01*
X604959Y598065D01*
X605091Y597866D01*
X605219Y597663D01*
X605341Y597458D01*
X605458Y597249D01*
X605570Y597037D01*
X605677Y596823D01*
X605778Y596607D01*
X605874Y596388D01*
X605965Y596166D01*
X606051Y595943D01*
X606131Y595717D01*
X606205Y595490D01*
X606274Y595261D01*
X606338Y595030D01*
X606395Y594798D01*
X606447Y594564D01*
X606494Y594330D01*
X606534Y594094D01*
X606569Y593857D01*
X606598Y593620D01*
X606621Y593381D01*
X606639Y593143D01*
X606650Y592904D01*
X606656Y592665D01*
X606656Y592425D01*
X606650Y592186D01*
X606639Y591947D01*
X606621Y591709D01*
X606598Y591470D01*
X606569Y591233D01*
X606534Y590996D01*
X606494Y590760D01*
X606447Y590526D01*
X606395Y590292D01*
X606338Y590060D01*
X606274Y589829D01*
X606205Y589600D01*
X606131Y589373D01*
X606051Y589147D01*
X605965Y588924D01*
X605874Y588702D01*
X605778Y588483D01*
X605677Y588267D01*
X605570Y588053D01*
X605458Y587841D01*
X605341Y587633D01*
X605219Y587427D01*
X605091Y587224D01*
X604959Y587025D01*
X604823Y586828D01*
X604681Y586635D01*
X604535Y586446D01*
X604384Y586260D01*
X604229Y586078D01*
X604069Y585900D01*
X603905Y585726D01*
X603737Y585556D01*
X603565Y585389D01*
X603388Y585228D01*
X603208Y585070D01*
X603024Y584917D01*
X602837Y584769D01*
X602646Y584625D01*
X602451Y584485D01*
X602253Y584351D01*
X602052Y584221D01*
X601848Y584097D01*
X601641Y583977D01*
X601430Y583863D01*
X601218Y583753D01*
X601002Y583649D01*
X600784Y583550D01*
X600564Y583456D01*
X600342Y583368D01*
X600117Y583286D01*
X599891Y583208D01*
X599663Y583137D01*
X599433Y583070D01*
X599201Y583010D01*
X598968Y582955D01*
X598734Y582906D01*
X598499Y582862D01*
X598263Y582825D01*
X598025Y582793D01*
X597788Y582767D01*
X597549Y582746D01*
X597310Y582732D01*
X597071Y582723D01*
X596832Y582720D01*
X587007Y582720D01*
X598797Y582720D02*
X606657Y567000D01*
X622181Y594510D02*
X632006Y602370D01*
X632006Y567000D01*
X622181Y567000D02*
X641831Y567000D01*
D10*
X987480Y1497598D02*
X1017598Y1497598D01*
X672520Y1497598D02*
X642402Y1497598D01*
X642402Y1122402D01*
X1017598Y1122402D01*
X1017598Y1497598D01*
X987480Y1497598D02*
X987480Y1481850D01*
X672520Y1481850D01*
X672520Y1497598D01*
D13*
X802235Y1112500D02*
X808568Y1093500D01*
X814901Y1112500D01*
X825861Y1112500D02*
X825861Y1093500D01*
X825861Y1112500D02*
X831139Y1112500D01*
X831283Y1112498D01*
X831427Y1112492D01*
X831571Y1112482D01*
X831715Y1112469D01*
X831858Y1112451D01*
X832000Y1112429D01*
X832142Y1112404D01*
X832283Y1112374D01*
X832424Y1112341D01*
X832563Y1112304D01*
X832701Y1112263D01*
X832838Y1112219D01*
X832974Y1112171D01*
X833109Y1112119D01*
X833242Y1112063D01*
X833373Y1112004D01*
X833503Y1111941D01*
X833631Y1111875D01*
X833757Y1111805D01*
X833881Y1111732D01*
X834004Y1111655D01*
X834124Y1111575D01*
X834241Y1111492D01*
X834357Y1111406D01*
X834470Y1111316D01*
X834580Y1111224D01*
X834688Y1111128D01*
X834794Y1111030D01*
X834897Y1110929D01*
X834996Y1110825D01*
X835093Y1110718D01*
X835187Y1110608D01*
X835278Y1110497D01*
X835366Y1110382D01*
X835451Y1110266D01*
X835532Y1110147D01*
X835611Y1110026D01*
X835686Y1109903D01*
X835757Y1109777D01*
X835825Y1109650D01*
X835890Y1109521D01*
X835951Y1109391D01*
X836008Y1109258D01*
X836062Y1109125D01*
X836112Y1108989D01*
X836159Y1108853D01*
X836201Y1108715D01*
X836240Y1108576D01*
X836275Y1108437D01*
X836307Y1108296D01*
X836334Y1108154D01*
X836358Y1108012D01*
X836377Y1107869D01*
X836393Y1107726D01*
X836405Y1107582D01*
X836413Y1107438D01*
X836417Y1107294D01*
X836417Y1107150D01*
X836413Y1107006D01*
X836405Y1106862D01*
X836393Y1106718D01*
X836377Y1106575D01*
X836358Y1106432D01*
X836334Y1106290D01*
X836307Y1106148D01*
X836275Y1106007D01*
X836240Y1105868D01*
X836201Y1105729D01*
X836159Y1105591D01*
X836112Y1105455D01*
X836062Y1105319D01*
X836008Y1105186D01*
X835951Y1105053D01*
X835890Y1104923D01*
X835825Y1104794D01*
X835757Y1104667D01*
X835686Y1104541D01*
X835611Y1104418D01*
X835532Y1104297D01*
X835451Y1104178D01*
X835366Y1104062D01*
X835278Y1103947D01*
X835187Y1103836D01*
X835093Y1103726D01*
X834996Y1103619D01*
X834897Y1103515D01*
X834794Y1103414D01*
X834688Y1103316D01*
X834580Y1103220D01*
X834470Y1103128D01*
X834357Y1103038D01*
X834241Y1102952D01*
X834124Y1102869D01*
X834004Y1102789D01*
X833881Y1102712D01*
X833757Y1102639D01*
X833631Y1102569D01*
X833503Y1102503D01*
X833373Y1102440D01*
X833242Y1102381D01*
X833109Y1102325D01*
X832974Y1102273D01*
X832838Y1102225D01*
X832701Y1102181D01*
X832563Y1102140D01*
X832424Y1102103D01*
X832283Y1102070D01*
X832142Y1102040D01*
X832000Y1102015D01*
X831858Y1101993D01*
X831715Y1101975D01*
X831571Y1101962D01*
X831427Y1101952D01*
X831283Y1101946D01*
X831139Y1101944D01*
X825861Y1101944D01*
X832194Y1101944D02*
X836416Y1093500D01*
X853015Y1112500D02*
X853151Y1112498D01*
X853286Y1112492D01*
X853421Y1112483D01*
X853556Y1112469D01*
X853691Y1112452D01*
X853825Y1112430D01*
X853958Y1112405D01*
X854091Y1112377D01*
X854223Y1112344D01*
X854353Y1112308D01*
X854483Y1112268D01*
X854611Y1112224D01*
X854738Y1112176D01*
X854864Y1112125D01*
X854988Y1112071D01*
X855111Y1112013D01*
X855232Y1111951D01*
X855351Y1111886D01*
X855468Y1111818D01*
X855583Y1111746D01*
X855696Y1111671D01*
X855807Y1111593D01*
X855916Y1111512D01*
X856022Y1111427D01*
X856126Y1111340D01*
X856227Y1111250D01*
X856325Y1111156D01*
X856421Y1111060D01*
X856515Y1110962D01*
X856605Y1110861D01*
X856692Y1110757D01*
X856777Y1110651D01*
X856858Y1110542D01*
X856936Y1110431D01*
X857011Y1110318D01*
X857083Y1110203D01*
X857151Y1110086D01*
X857216Y1109967D01*
X857278Y1109846D01*
X857336Y1109723D01*
X857390Y1109599D01*
X857441Y1109473D01*
X857489Y1109346D01*
X857533Y1109218D01*
X857573Y1109088D01*
X857609Y1108958D01*
X857642Y1108826D01*
X857670Y1108693D01*
X857695Y1108560D01*
X857717Y1108426D01*
X857734Y1108291D01*
X857748Y1108156D01*
X857757Y1108021D01*
X857763Y1107886D01*
X857765Y1107750D01*
X853015Y1112500D02*
X852862Y1112498D01*
X852708Y1112492D01*
X852555Y1112483D01*
X852402Y1112469D01*
X852250Y1112452D01*
X852098Y1112431D01*
X851946Y1112406D01*
X851795Y1112377D01*
X851645Y1112344D01*
X851496Y1112308D01*
X851348Y1112268D01*
X851201Y1112224D01*
X851055Y1112177D01*
X850910Y1112126D01*
X850767Y1112071D01*
X850625Y1112013D01*
X850485Y1111951D01*
X850346Y1111885D01*
X850209Y1111816D01*
X850073Y1111744D01*
X849940Y1111668D01*
X849808Y1111589D01*
X849679Y1111507D01*
X849551Y1111422D01*
X849426Y1111333D01*
X849303Y1111241D01*
X849182Y1111146D01*
X849064Y1111048D01*
X848948Y1110947D01*
X848835Y1110844D01*
X848725Y1110737D01*
X848617Y1110628D01*
X848512Y1110516D01*
X848410Y1110401D01*
X848311Y1110284D01*
X848214Y1110165D01*
X848121Y1110043D01*
X848031Y1109919D01*
X847944Y1109792D01*
X847860Y1109664D01*
X847780Y1109533D01*
X847703Y1109400D01*
X847629Y1109266D01*
X847558Y1109129D01*
X847492Y1108991D01*
X847428Y1108852D01*
X847368Y1108710D01*
X847312Y1108568D01*
X847259Y1108423D01*
X847210Y1108278D01*
X856183Y1104056D02*
X856284Y1104155D01*
X856383Y1104258D01*
X856479Y1104363D01*
X856573Y1104471D01*
X856663Y1104581D01*
X856749Y1104694D01*
X856833Y1104809D01*
X856914Y1104927D01*
X856991Y1105047D01*
X857065Y1105168D01*
X857135Y1105292D01*
X857202Y1105418D01*
X857265Y1105546D01*
X857325Y1105675D01*
X857381Y1105806D01*
X857434Y1105938D01*
X857482Y1106072D01*
X857527Y1106207D01*
X857568Y1106344D01*
X857606Y1106481D01*
X857639Y1106620D01*
X857669Y1106759D01*
X857695Y1106899D01*
X857716Y1107040D01*
X857734Y1107181D01*
X857748Y1107323D01*
X857758Y1107465D01*
X857764Y1107608D01*
X857766Y1107750D01*
X856182Y1104055D02*
X847210Y1093500D01*
X857765Y1093500D01*
M02*
