G04 EAGLE Gerber X2 export*
%TF.Part,Single*%
%TF.FileFunction,Copper,L1,Top,Mixed*%
%TF.FilePolarity,Positive*%
%TF.GenerationSoftware,Autodesk,EAGLE,9.6.2*%
%TF.CreationDate,2021-04-24T19:48:18Z*%
G75*
%MOIN*%
%FSLAX36Y36*%
%LPD*%
%INTop Copper Layer*%
%AMOC8*
5,1,8,0,0,1.08239X$1,22.5*%
G01*
%ADD10C,0.004000*%
%ADD11R,0.065000X0.065000*%
%ADD12C,0.065000*%
%ADD13C,0.060000*%
%ADD14C,0.070000*%
%ADD15C,0.074000*%
%ADD16C,0.064000*%
%ADD17R,0.074000X0.074000*%


D10*
X102000Y1292000D02*
X113790Y1327370D01*
X125580Y1292000D01*
X122633Y1300843D02*
X104947Y1300843D01*
X140579Y1301825D02*
X140579Y1327370D01*
X140579Y1301825D02*
X140582Y1301586D01*
X140591Y1301347D01*
X140605Y1301108D01*
X140626Y1300869D01*
X140652Y1300632D01*
X140684Y1300394D01*
X140721Y1300158D01*
X140765Y1299923D01*
X140814Y1299689D01*
X140869Y1299456D01*
X140929Y1299224D01*
X140996Y1298994D01*
X141067Y1298766D01*
X141145Y1298540D01*
X141227Y1298315D01*
X141315Y1298093D01*
X141409Y1297873D01*
X141508Y1297655D01*
X141612Y1297439D01*
X141722Y1297227D01*
X141836Y1297016D01*
X141956Y1296809D01*
X142080Y1296605D01*
X142210Y1296404D01*
X142344Y1296206D01*
X142484Y1296011D01*
X142628Y1295820D01*
X142776Y1295633D01*
X142929Y1295449D01*
X143087Y1295269D01*
X143248Y1295092D01*
X143415Y1294920D01*
X143585Y1294752D01*
X143759Y1294588D01*
X143937Y1294428D01*
X144119Y1294273D01*
X144305Y1294122D01*
X144494Y1293976D01*
X144687Y1293834D01*
X144884Y1293698D01*
X145083Y1293566D01*
X145286Y1293438D01*
X145492Y1293316D01*
X145700Y1293199D01*
X145912Y1293087D01*
X146126Y1292980D01*
X146342Y1292879D01*
X146561Y1292783D01*
X146783Y1292692D01*
X147006Y1292606D01*
X147232Y1292526D01*
X147459Y1292452D01*
X147688Y1292383D01*
X147919Y1292319D01*
X148151Y1292262D01*
X148385Y1292210D01*
X148619Y1292163D01*
X148855Y1292123D01*
X149092Y1292088D01*
X149329Y1292059D01*
X149568Y1292036D01*
X149806Y1292018D01*
X150045Y1292007D01*
X150284Y1292001D01*
X150524Y1292001D01*
X150763Y1292007D01*
X151002Y1292018D01*
X151240Y1292036D01*
X151479Y1292059D01*
X151716Y1292088D01*
X151953Y1292123D01*
X152189Y1292163D01*
X152423Y1292210D01*
X152657Y1292262D01*
X152889Y1292319D01*
X153120Y1292383D01*
X153349Y1292452D01*
X153576Y1292526D01*
X153802Y1292606D01*
X154025Y1292692D01*
X154247Y1292783D01*
X154466Y1292879D01*
X154682Y1292980D01*
X154896Y1293087D01*
X155108Y1293199D01*
X155317Y1293316D01*
X155522Y1293438D01*
X155725Y1293566D01*
X155924Y1293698D01*
X156121Y1293834D01*
X156314Y1293976D01*
X156503Y1294122D01*
X156689Y1294273D01*
X156871Y1294428D01*
X157049Y1294588D01*
X157223Y1294752D01*
X157393Y1294920D01*
X157560Y1295092D01*
X157721Y1295269D01*
X157879Y1295449D01*
X158032Y1295633D01*
X158180Y1295820D01*
X158324Y1296011D01*
X158464Y1296206D01*
X158598Y1296404D01*
X158728Y1296605D01*
X158852Y1296809D01*
X158972Y1297016D01*
X159086Y1297227D01*
X159196Y1297439D01*
X159300Y1297655D01*
X159399Y1297873D01*
X159493Y1298093D01*
X159581Y1298315D01*
X159663Y1298540D01*
X159741Y1298766D01*
X159812Y1298994D01*
X159879Y1299224D01*
X159939Y1299456D01*
X159994Y1299689D01*
X160043Y1299923D01*
X160087Y1300158D01*
X160124Y1300394D01*
X160156Y1300632D01*
X160182Y1300869D01*
X160203Y1301108D01*
X160217Y1301347D01*
X160226Y1301586D01*
X160229Y1301825D01*
X160229Y1327370D01*
X178374Y1327370D02*
X178374Y1292000D01*
X178374Y1327370D02*
X188199Y1327370D01*
X188436Y1327367D01*
X188674Y1327359D01*
X188911Y1327344D01*
X189147Y1327324D01*
X189383Y1327298D01*
X189619Y1327267D01*
X189853Y1327230D01*
X190087Y1327187D01*
X190319Y1327139D01*
X190550Y1327085D01*
X190780Y1327025D01*
X191008Y1326960D01*
X191235Y1326889D01*
X191460Y1326813D01*
X191683Y1326732D01*
X191904Y1326645D01*
X192123Y1326552D01*
X192339Y1326455D01*
X192553Y1326352D01*
X192765Y1326245D01*
X192974Y1326132D01*
X193180Y1326014D01*
X193383Y1325891D01*
X193583Y1325763D01*
X193780Y1325631D01*
X193974Y1325494D01*
X194164Y1325352D01*
X194351Y1325205D01*
X194535Y1325054D01*
X194714Y1324899D01*
X194890Y1324740D01*
X195062Y1324576D01*
X195230Y1324408D01*
X195394Y1324236D01*
X195553Y1324060D01*
X195708Y1323881D01*
X195859Y1323697D01*
X196006Y1323510D01*
X196148Y1323320D01*
X196285Y1323126D01*
X196417Y1322929D01*
X196545Y1322729D01*
X196668Y1322526D01*
X196786Y1322320D01*
X196899Y1322111D01*
X197006Y1321899D01*
X197109Y1321685D01*
X197206Y1321469D01*
X197299Y1321250D01*
X197386Y1321029D01*
X197467Y1320806D01*
X197543Y1320581D01*
X197614Y1320354D01*
X197679Y1320126D01*
X197739Y1319896D01*
X197793Y1319665D01*
X197841Y1319433D01*
X197884Y1319199D01*
X197921Y1318965D01*
X197952Y1318729D01*
X197978Y1318493D01*
X197998Y1318257D01*
X198013Y1318020D01*
X198021Y1317782D01*
X198024Y1317545D01*
X198024Y1301825D01*
X198021Y1301588D01*
X198013Y1301350D01*
X197998Y1301113D01*
X197978Y1300877D01*
X197952Y1300641D01*
X197921Y1300405D01*
X197884Y1300171D01*
X197841Y1299937D01*
X197793Y1299705D01*
X197738Y1299474D01*
X197679Y1299244D01*
X197614Y1299016D01*
X197543Y1298789D01*
X197467Y1298564D01*
X197386Y1298341D01*
X197299Y1298120D01*
X197206Y1297901D01*
X197109Y1297685D01*
X197006Y1297471D01*
X196899Y1297259D01*
X196786Y1297050D01*
X196668Y1296844D01*
X196545Y1296641D01*
X196417Y1296441D01*
X196285Y1296244D01*
X196148Y1296050D01*
X196006Y1295860D01*
X195859Y1295673D01*
X195708Y1295489D01*
X195553Y1295310D01*
X195393Y1295134D01*
X195230Y1294962D01*
X195062Y1294794D01*
X194890Y1294630D01*
X194714Y1294471D01*
X194535Y1294316D01*
X194351Y1294165D01*
X194164Y1294018D01*
X193974Y1293876D01*
X193780Y1293739D01*
X193583Y1293607D01*
X193383Y1293479D01*
X193180Y1293356D01*
X192974Y1293238D01*
X192765Y1293125D01*
X192553Y1293018D01*
X192339Y1292915D01*
X192123Y1292817D01*
X191904Y1292725D01*
X191683Y1292638D01*
X191460Y1292557D01*
X191235Y1292481D01*
X191008Y1292410D01*
X190780Y1292345D01*
X190550Y1292285D01*
X190319Y1292231D01*
X190087Y1292183D01*
X189853Y1292140D01*
X189618Y1292103D01*
X189383Y1292072D01*
X189147Y1292046D01*
X188911Y1292026D01*
X188674Y1292011D01*
X188436Y1292003D01*
X188199Y1292000D01*
X178374Y1292000D01*
X217727Y1292000D02*
X217727Y1327370D01*
X213797Y1292000D02*
X221657Y1292000D01*
X221657Y1327370D02*
X213797Y1327370D01*
X236248Y1317545D02*
X236248Y1301825D01*
X236248Y1317545D02*
X236251Y1317784D01*
X236260Y1318023D01*
X236274Y1318262D01*
X236295Y1318501D01*
X236321Y1318738D01*
X236353Y1318976D01*
X236390Y1319212D01*
X236434Y1319447D01*
X236483Y1319681D01*
X236538Y1319914D01*
X236598Y1320146D01*
X236665Y1320376D01*
X236736Y1320604D01*
X236814Y1320830D01*
X236896Y1321055D01*
X236984Y1321277D01*
X237078Y1321497D01*
X237177Y1321715D01*
X237281Y1321931D01*
X237391Y1322143D01*
X237505Y1322354D01*
X237625Y1322561D01*
X237749Y1322765D01*
X237879Y1322966D01*
X238013Y1323164D01*
X238153Y1323359D01*
X238297Y1323550D01*
X238445Y1323737D01*
X238598Y1323921D01*
X238756Y1324101D01*
X238917Y1324278D01*
X239084Y1324450D01*
X239254Y1324618D01*
X239428Y1324782D01*
X239606Y1324942D01*
X239788Y1325097D01*
X239974Y1325248D01*
X240163Y1325394D01*
X240356Y1325536D01*
X240553Y1325672D01*
X240752Y1325804D01*
X240955Y1325932D01*
X241161Y1326054D01*
X241369Y1326171D01*
X241581Y1326283D01*
X241795Y1326390D01*
X242011Y1326491D01*
X242230Y1326587D01*
X242452Y1326678D01*
X242675Y1326764D01*
X242901Y1326844D01*
X243128Y1326918D01*
X243357Y1326987D01*
X243588Y1327051D01*
X243820Y1327108D01*
X244054Y1327160D01*
X244288Y1327207D01*
X244524Y1327247D01*
X244761Y1327282D01*
X244998Y1327311D01*
X245237Y1327334D01*
X245475Y1327352D01*
X245714Y1327363D01*
X245953Y1327369D01*
X246193Y1327369D01*
X246432Y1327363D01*
X246671Y1327352D01*
X246909Y1327334D01*
X247148Y1327311D01*
X247385Y1327282D01*
X247622Y1327247D01*
X247858Y1327207D01*
X248092Y1327160D01*
X248326Y1327108D01*
X248558Y1327051D01*
X248789Y1326987D01*
X249018Y1326918D01*
X249245Y1326844D01*
X249471Y1326764D01*
X249694Y1326678D01*
X249916Y1326587D01*
X250135Y1326491D01*
X250351Y1326390D01*
X250565Y1326283D01*
X250777Y1326171D01*
X250986Y1326054D01*
X251191Y1325932D01*
X251394Y1325804D01*
X251593Y1325672D01*
X251790Y1325536D01*
X251983Y1325394D01*
X252172Y1325248D01*
X252358Y1325097D01*
X252540Y1324942D01*
X252718Y1324782D01*
X252892Y1324618D01*
X253062Y1324450D01*
X253229Y1324278D01*
X253390Y1324101D01*
X253548Y1323921D01*
X253701Y1323737D01*
X253849Y1323550D01*
X253993Y1323359D01*
X254133Y1323164D01*
X254267Y1322966D01*
X254397Y1322765D01*
X254521Y1322561D01*
X254641Y1322354D01*
X254755Y1322143D01*
X254865Y1321931D01*
X254969Y1321715D01*
X255068Y1321497D01*
X255162Y1321277D01*
X255250Y1321055D01*
X255332Y1320830D01*
X255410Y1320604D01*
X255481Y1320376D01*
X255548Y1320146D01*
X255608Y1319914D01*
X255663Y1319681D01*
X255712Y1319447D01*
X255756Y1319212D01*
X255793Y1318976D01*
X255825Y1318738D01*
X255851Y1318501D01*
X255872Y1318262D01*
X255886Y1318023D01*
X255895Y1317784D01*
X255898Y1317545D01*
X255898Y1301825D01*
X255895Y1301586D01*
X255886Y1301347D01*
X255872Y1301108D01*
X255851Y1300869D01*
X255825Y1300632D01*
X255793Y1300394D01*
X255756Y1300158D01*
X255712Y1299923D01*
X255663Y1299689D01*
X255608Y1299456D01*
X255548Y1299224D01*
X255481Y1298994D01*
X255410Y1298766D01*
X255332Y1298540D01*
X255250Y1298315D01*
X255162Y1298093D01*
X255068Y1297873D01*
X254969Y1297655D01*
X254865Y1297439D01*
X254755Y1297227D01*
X254641Y1297016D01*
X254521Y1296809D01*
X254397Y1296605D01*
X254267Y1296404D01*
X254133Y1296206D01*
X253993Y1296011D01*
X253849Y1295820D01*
X253701Y1295633D01*
X253548Y1295449D01*
X253390Y1295269D01*
X253229Y1295092D01*
X253062Y1294920D01*
X252892Y1294752D01*
X252718Y1294588D01*
X252540Y1294428D01*
X252358Y1294273D01*
X252172Y1294122D01*
X251983Y1293976D01*
X251790Y1293834D01*
X251593Y1293698D01*
X251394Y1293566D01*
X251191Y1293438D01*
X250986Y1293316D01*
X250777Y1293199D01*
X250565Y1293087D01*
X250351Y1292980D01*
X250135Y1292879D01*
X249916Y1292783D01*
X249694Y1292692D01*
X249471Y1292606D01*
X249245Y1292526D01*
X249018Y1292452D01*
X248789Y1292383D01*
X248558Y1292319D01*
X248326Y1292262D01*
X248092Y1292210D01*
X247858Y1292163D01*
X247622Y1292123D01*
X247385Y1292088D01*
X247148Y1292059D01*
X246909Y1292036D01*
X246671Y1292018D01*
X246432Y1292007D01*
X246193Y1292001D01*
X245953Y1292001D01*
X245714Y1292007D01*
X245475Y1292018D01*
X245237Y1292036D01*
X244998Y1292059D01*
X244761Y1292088D01*
X244524Y1292123D01*
X244288Y1292163D01*
X244054Y1292210D01*
X243820Y1292262D01*
X243588Y1292319D01*
X243357Y1292383D01*
X243128Y1292452D01*
X242901Y1292526D01*
X242675Y1292606D01*
X242452Y1292692D01*
X242230Y1292783D01*
X242011Y1292879D01*
X241795Y1292980D01*
X241581Y1293087D01*
X241369Y1293199D01*
X241161Y1293316D01*
X240955Y1293438D01*
X240752Y1293566D01*
X240553Y1293698D01*
X240356Y1293834D01*
X240163Y1293976D01*
X239974Y1294122D01*
X239788Y1294273D01*
X239606Y1294428D01*
X239428Y1294588D01*
X239254Y1294752D01*
X239084Y1294920D01*
X238917Y1295092D01*
X238756Y1295269D01*
X238598Y1295449D01*
X238445Y1295633D01*
X238297Y1295820D01*
X238153Y1296011D01*
X238013Y1296206D01*
X237879Y1296404D01*
X237749Y1296605D01*
X237625Y1296809D01*
X237505Y1297016D01*
X237391Y1297227D01*
X237281Y1297439D01*
X237177Y1297655D01*
X237078Y1297873D01*
X236984Y1298093D01*
X236896Y1298315D01*
X236814Y1298540D01*
X236736Y1298766D01*
X236665Y1298994D01*
X236598Y1299224D01*
X236538Y1299456D01*
X236483Y1299689D01*
X236434Y1299923D01*
X236390Y1300158D01*
X236353Y1300394D01*
X236321Y1300632D01*
X236295Y1300869D01*
X236274Y1301108D01*
X236260Y1301347D01*
X236251Y1301586D01*
X236248Y1301825D01*
X288614Y1292000D02*
X300404Y1327370D01*
X312194Y1292000D01*
X309246Y1300843D02*
X291561Y1300843D01*
X327590Y1292000D02*
X327590Y1327370D01*
X339380Y1307720D01*
X351170Y1327370D01*
X351170Y1292000D01*
X370308Y1292000D02*
X370308Y1327370D01*
X380133Y1327370D01*
X380372Y1327367D01*
X380611Y1327358D01*
X380850Y1327344D01*
X381089Y1327323D01*
X381326Y1327297D01*
X381564Y1327265D01*
X381800Y1327228D01*
X382035Y1327184D01*
X382269Y1327135D01*
X382502Y1327080D01*
X382734Y1327020D01*
X382964Y1326953D01*
X383192Y1326882D01*
X383418Y1326804D01*
X383643Y1326722D01*
X383865Y1326634D01*
X384085Y1326540D01*
X384303Y1326441D01*
X384519Y1326337D01*
X384731Y1326227D01*
X384942Y1326113D01*
X385149Y1325993D01*
X385353Y1325869D01*
X385554Y1325739D01*
X385752Y1325605D01*
X385947Y1325465D01*
X386138Y1325321D01*
X386325Y1325173D01*
X386509Y1325020D01*
X386689Y1324862D01*
X386866Y1324701D01*
X387038Y1324534D01*
X387206Y1324364D01*
X387370Y1324190D01*
X387530Y1324012D01*
X387685Y1323830D01*
X387836Y1323644D01*
X387982Y1323455D01*
X388124Y1323262D01*
X388260Y1323065D01*
X388392Y1322866D01*
X388520Y1322663D01*
X388642Y1322458D01*
X388759Y1322249D01*
X388871Y1322037D01*
X388978Y1321823D01*
X389079Y1321607D01*
X389175Y1321388D01*
X389266Y1321166D01*
X389352Y1320943D01*
X389432Y1320717D01*
X389506Y1320490D01*
X389575Y1320261D01*
X389639Y1320030D01*
X389696Y1319798D01*
X389748Y1319564D01*
X389795Y1319330D01*
X389835Y1319094D01*
X389870Y1318857D01*
X389899Y1318620D01*
X389922Y1318381D01*
X389940Y1318143D01*
X389951Y1317904D01*
X389957Y1317665D01*
X389957Y1317425D01*
X389951Y1317186D01*
X389940Y1316947D01*
X389922Y1316709D01*
X389899Y1316470D01*
X389870Y1316233D01*
X389835Y1315996D01*
X389795Y1315760D01*
X389748Y1315526D01*
X389696Y1315292D01*
X389639Y1315060D01*
X389575Y1314829D01*
X389506Y1314600D01*
X389432Y1314373D01*
X389352Y1314147D01*
X389266Y1313924D01*
X389175Y1313702D01*
X389079Y1313483D01*
X388978Y1313267D01*
X388871Y1313053D01*
X388759Y1312841D01*
X388642Y1312633D01*
X388520Y1312427D01*
X388392Y1312224D01*
X388260Y1312025D01*
X388124Y1311828D01*
X387982Y1311635D01*
X387836Y1311446D01*
X387685Y1311260D01*
X387530Y1311078D01*
X387370Y1310900D01*
X387206Y1310726D01*
X387038Y1310556D01*
X386866Y1310389D01*
X386689Y1310228D01*
X386509Y1310070D01*
X386325Y1309917D01*
X386138Y1309769D01*
X385947Y1309625D01*
X385752Y1309485D01*
X385554Y1309351D01*
X385353Y1309221D01*
X385149Y1309097D01*
X384942Y1308977D01*
X384731Y1308863D01*
X384519Y1308753D01*
X384303Y1308649D01*
X384085Y1308550D01*
X383865Y1308456D01*
X383643Y1308368D01*
X383418Y1308286D01*
X383192Y1308208D01*
X382964Y1308137D01*
X382734Y1308070D01*
X382502Y1308010D01*
X382269Y1307955D01*
X382035Y1307906D01*
X381800Y1307862D01*
X381564Y1307825D01*
X381326Y1307793D01*
X381089Y1307767D01*
X380850Y1307746D01*
X380611Y1307732D01*
X380372Y1307723D01*
X380133Y1307720D01*
X370308Y1307720D01*
X405225Y1292000D02*
X405225Y1327370D01*
X405225Y1292000D02*
X420945Y1292000D01*
X437411Y1292000D02*
X437411Y1327370D01*
X433481Y1292000D02*
X441341Y1292000D01*
X441341Y1327370D02*
X433481Y1327370D01*
X457193Y1327370D02*
X457193Y1292000D01*
X457193Y1327370D02*
X472913Y1327370D01*
X472913Y1311650D02*
X457193Y1311650D01*
X489380Y1327370D02*
X489380Y1292000D01*
X485450Y1292000D02*
X493310Y1292000D01*
X493310Y1327370D02*
X485450Y1327370D01*
X509162Y1292000D02*
X524882Y1292000D01*
X509162Y1292000D02*
X509162Y1327370D01*
X524882Y1327370D01*
X520952Y1311650D02*
X509162Y1311650D01*
X540050Y1327370D02*
X540050Y1292000D01*
X540050Y1327370D02*
X549875Y1327370D01*
X550114Y1327367D01*
X550353Y1327358D01*
X550592Y1327344D01*
X550831Y1327323D01*
X551068Y1327297D01*
X551306Y1327265D01*
X551542Y1327228D01*
X551777Y1327184D01*
X552011Y1327135D01*
X552244Y1327080D01*
X552476Y1327020D01*
X552706Y1326953D01*
X552934Y1326882D01*
X553160Y1326804D01*
X553385Y1326722D01*
X553607Y1326634D01*
X553827Y1326540D01*
X554045Y1326441D01*
X554261Y1326337D01*
X554473Y1326227D01*
X554684Y1326113D01*
X554891Y1325993D01*
X555095Y1325869D01*
X555296Y1325739D01*
X555494Y1325605D01*
X555689Y1325465D01*
X555880Y1325321D01*
X556067Y1325173D01*
X556251Y1325020D01*
X556431Y1324862D01*
X556608Y1324701D01*
X556780Y1324534D01*
X556948Y1324364D01*
X557112Y1324190D01*
X557272Y1324012D01*
X557427Y1323830D01*
X557578Y1323644D01*
X557724Y1323455D01*
X557866Y1323262D01*
X558002Y1323065D01*
X558134Y1322866D01*
X558262Y1322663D01*
X558384Y1322458D01*
X558501Y1322249D01*
X558613Y1322037D01*
X558720Y1321823D01*
X558821Y1321607D01*
X558917Y1321388D01*
X559008Y1321166D01*
X559094Y1320943D01*
X559174Y1320717D01*
X559248Y1320490D01*
X559317Y1320261D01*
X559381Y1320030D01*
X559438Y1319798D01*
X559490Y1319564D01*
X559537Y1319330D01*
X559577Y1319094D01*
X559612Y1318857D01*
X559641Y1318620D01*
X559664Y1318381D01*
X559682Y1318143D01*
X559693Y1317904D01*
X559699Y1317665D01*
X559699Y1317425D01*
X559693Y1317186D01*
X559682Y1316947D01*
X559664Y1316709D01*
X559641Y1316470D01*
X559612Y1316233D01*
X559577Y1315996D01*
X559537Y1315760D01*
X559490Y1315526D01*
X559438Y1315292D01*
X559381Y1315060D01*
X559317Y1314829D01*
X559248Y1314600D01*
X559174Y1314373D01*
X559094Y1314147D01*
X559008Y1313924D01*
X558917Y1313702D01*
X558821Y1313483D01*
X558720Y1313267D01*
X558613Y1313053D01*
X558501Y1312841D01*
X558384Y1312633D01*
X558262Y1312427D01*
X558134Y1312224D01*
X558002Y1312025D01*
X557866Y1311828D01*
X557724Y1311635D01*
X557578Y1311446D01*
X557427Y1311260D01*
X557272Y1311078D01*
X557112Y1310900D01*
X556948Y1310726D01*
X556780Y1310556D01*
X556608Y1310389D01*
X556431Y1310228D01*
X556251Y1310070D01*
X556067Y1309917D01*
X555880Y1309769D01*
X555689Y1309625D01*
X555494Y1309485D01*
X555296Y1309351D01*
X555095Y1309221D01*
X554891Y1309097D01*
X554684Y1308977D01*
X554473Y1308863D01*
X554261Y1308753D01*
X554045Y1308649D01*
X553827Y1308550D01*
X553607Y1308456D01*
X553385Y1308368D01*
X553160Y1308286D01*
X552934Y1308208D01*
X552706Y1308137D01*
X552476Y1308070D01*
X552244Y1308010D01*
X552011Y1307955D01*
X551777Y1307906D01*
X551542Y1307862D01*
X551306Y1307825D01*
X551068Y1307793D01*
X550831Y1307767D01*
X550592Y1307746D01*
X550353Y1307732D01*
X550114Y1307723D01*
X549875Y1307720D01*
X540050Y1307720D01*
X551840Y1307720D02*
X559700Y1292000D01*
D11*
X624213Y960000D03*
D12*
X525787Y960000D03*
D11*
X500000Y650787D03*
D12*
X500000Y749213D03*
D11*
X1335000Y1059213D03*
D12*
X1335000Y960787D03*
D11*
X1180000Y334213D03*
D12*
X1180000Y235787D03*
D11*
X1200000Y1319213D03*
D12*
X1200000Y1220787D03*
D11*
X1300000Y824213D03*
D12*
X1300000Y725787D03*
D13*
X1355000Y525000D02*
X1415000Y525000D01*
X1415000Y425000D02*
X1355000Y425000D01*
D14*
X338740Y903819D03*
X338740Y1006181D03*
D15*
X910000Y225000D03*
X910000Y325000D03*
X1225000Y495000D03*
X1225000Y595000D03*
D16*
X785000Y960000D03*
X785000Y860000D03*
X1085000Y860000D03*
X1085000Y960000D03*
X785000Y760000D03*
X785000Y660000D03*
X1085000Y760000D03*
X1085000Y660000D03*
D17*
X495000Y369409D03*
D15*
X595000Y369409D03*
X695000Y369409D03*
D17*
X930000Y1310591D03*
D15*
X830000Y1310591D03*
X730000Y1310591D03*
M02*
