G04 EAGLE Gerber X2 export*
%TF.Part,Single*%
%TF.FileFunction,Copper,L2,Bot,Mixed*%
%TF.FilePolarity,Positive*%
%TF.GenerationSoftware,Autodesk,EAGLE,9.6.2*%
%TF.CreationDate,2021-04-24T19:48:18Z*%
G75*
%MOIN*%
%FSLAX36Y36*%
%LPD*%
%INBottom Copper Layer*%
%AMOC8*
5,1,8,0,0,1.08239X$1,22.5*%
G01*
%ADD10R,0.065000X0.065000*%
%ADD11C,0.065000*%
%ADD12C,0.060000*%
%ADD13C,0.070000*%
%ADD14C,0.074000*%
%ADD15C,0.064000*%
%ADD16R,0.074000X0.074000*%
%ADD17C,0.020000*%

G36*
X1473462Y145011D02*
X1473462Y145011D01*
X1473554Y145003D01*
X1474143Y145090D01*
X1474734Y145158D01*
X1474820Y145188D01*
X1474912Y145202D01*
X1475466Y145420D01*
X1476026Y145620D01*
X1476104Y145670D01*
X1476189Y145704D01*
X1476678Y146041D01*
X1477179Y146364D01*
X1477243Y146431D01*
X1477319Y146483D01*
X1477718Y146922D01*
X1478133Y147351D01*
X1478180Y147430D01*
X1478242Y147498D01*
X1478531Y148016D01*
X1478838Y148529D01*
X1478866Y148617D01*
X1478910Y148697D01*
X1479074Y149268D01*
X1479256Y149836D01*
X1479263Y149927D01*
X1479289Y150016D01*
X1479370Y150979D01*
X1484053Y1510987D01*
X1484041Y1511099D01*
X1484050Y1511212D01*
X1483965Y1511780D01*
X1483901Y1512351D01*
X1483863Y1512458D01*
X1483846Y1512569D01*
X1483635Y1513102D01*
X1483443Y1513645D01*
X1483382Y1513740D01*
X1483340Y1513844D01*
X1483013Y1514316D01*
X1482702Y1514800D01*
X1482621Y1514879D01*
X1482557Y1514972D01*
X1482131Y1515356D01*
X1481719Y1515757D01*
X1481622Y1515816D01*
X1481539Y1515891D01*
X1481036Y1516169D01*
X1480544Y1516466D01*
X1480436Y1516501D01*
X1480338Y1516555D01*
X1479784Y1516712D01*
X1479238Y1516889D01*
X1479126Y1516898D01*
X1479017Y1516929D01*
X1478054Y1517007D01*
X65842Y1517007D01*
X65750Y1516997D01*
X65658Y1517004D01*
X65069Y1516918D01*
X64478Y1516850D01*
X64392Y1516819D01*
X64301Y1516806D01*
X63747Y1516588D01*
X63186Y1516388D01*
X63109Y1516337D01*
X63023Y1516304D01*
X62534Y1515967D01*
X62033Y1515643D01*
X61969Y1515577D01*
X61893Y1515525D01*
X61494Y1515086D01*
X61079Y1514657D01*
X61032Y1514577D01*
X60970Y1514509D01*
X60682Y1513992D01*
X60375Y1513479D01*
X60347Y1513391D01*
X60302Y1513311D01*
X60138Y1512739D01*
X59956Y1512172D01*
X59949Y1512080D01*
X59924Y1511992D01*
X59842Y1511029D01*
X55159Y151021D01*
X55172Y150908D01*
X55163Y150796D01*
X55248Y150228D01*
X55312Y149657D01*
X55349Y149550D01*
X55366Y149439D01*
X55578Y148906D01*
X55770Y148363D01*
X55831Y148268D01*
X55872Y148163D01*
X56200Y147692D01*
X56510Y147207D01*
X56591Y147129D01*
X56655Y147036D01*
X57081Y146651D01*
X57493Y146250D01*
X57590Y146192D01*
X57674Y146117D01*
X58177Y145838D01*
X58669Y145542D01*
X58776Y145507D01*
X58875Y145452D01*
X59428Y145296D01*
X59974Y145119D01*
X60086Y145109D01*
X60195Y145078D01*
X61159Y145001D01*
X1473371Y145001D01*
X1473462Y145011D01*
G37*
%LPC*%
G36*
X901446Y181999D02*
X901446Y181999D01*
X885642Y188546D01*
X873546Y200642D01*
X866999Y216446D01*
X866999Y219409D01*
X866988Y219511D01*
X866996Y219613D01*
X866909Y220192D01*
X866842Y220773D01*
X866808Y220869D01*
X866793Y220970D01*
X866577Y221513D01*
X866380Y222065D01*
X866324Y222151D01*
X866286Y222246D01*
X865954Y222725D01*
X865635Y223218D01*
X865562Y223289D01*
X865503Y223373D01*
X865071Y223764D01*
X864649Y224172D01*
X864560Y224224D01*
X864485Y224293D01*
X863976Y224574D01*
X863471Y224876D01*
X863373Y224908D01*
X863284Y224957D01*
X862722Y225116D01*
X862164Y225295D01*
X862062Y225303D01*
X861963Y225331D01*
X861000Y225409D01*
X488372Y225409D01*
X478999Y234782D01*
X478999Y320409D01*
X478988Y320511D01*
X478996Y320613D01*
X478909Y321192D01*
X478842Y321773D01*
X478808Y321869D01*
X478793Y321970D01*
X478577Y322513D01*
X478380Y323065D01*
X478324Y323151D01*
X478286Y323246D01*
X477954Y323725D01*
X477635Y324218D01*
X477562Y324289D01*
X477503Y324373D01*
X477071Y324764D01*
X476649Y325172D01*
X476560Y325224D01*
X476485Y325293D01*
X475976Y325574D01*
X475471Y325876D01*
X475373Y325908D01*
X475284Y325957D01*
X474722Y326116D01*
X474164Y326295D01*
X474062Y326303D01*
X473963Y326331D01*
X473000Y326409D01*
X455514Y326409D01*
X451999Y329924D01*
X451999Y387297D01*
X451942Y387790D01*
X451917Y388286D01*
X451864Y388470D01*
X451842Y388660D01*
X451675Y389127D01*
X451538Y389604D01*
X451444Y389771D01*
X451380Y389952D01*
X451110Y390370D01*
X450868Y390803D01*
X450713Y390986D01*
X450635Y391105D01*
X450498Y391238D01*
X450242Y391539D01*
X333870Y507911D01*
X333869Y507912D01*
X322739Y519041D01*
X322739Y862059D01*
X322705Y862357D01*
X322710Y862657D01*
X322627Y863037D01*
X322582Y863422D01*
X322481Y863705D01*
X322418Y863998D01*
X322251Y864349D01*
X322120Y864715D01*
X321957Y864967D01*
X321828Y865237D01*
X321587Y865540D01*
X321376Y865868D01*
X321160Y866076D01*
X320973Y866311D01*
X320669Y866551D01*
X320389Y866821D01*
X320131Y866976D01*
X319896Y867161D01*
X319373Y867429D01*
X319211Y867526D01*
X319139Y867549D01*
X319036Y867602D01*
X315515Y869060D01*
X303981Y880594D01*
X297739Y895663D01*
X297739Y911975D01*
X303981Y927044D01*
X315515Y938578D01*
X330584Y944820D01*
X346896Y944820D01*
X361965Y938578D01*
X373499Y927044D01*
X379741Y911975D01*
X379741Y895663D01*
X373499Y880594D01*
X361965Y869060D01*
X358444Y867602D01*
X358182Y867456D01*
X357903Y867345D01*
X357584Y867124D01*
X357245Y866935D01*
X357023Y866734D01*
X356776Y866563D01*
X356516Y866274D01*
X356228Y866013D01*
X356058Y865767D01*
X355857Y865544D01*
X355669Y865204D01*
X355448Y864884D01*
X355338Y864605D01*
X355193Y864343D01*
X355087Y863969D01*
X354944Y863608D01*
X354900Y863311D01*
X354819Y863023D01*
X354771Y862435D01*
X354744Y862250D01*
X354750Y862175D01*
X354741Y862059D01*
X354741Y534782D01*
X354744Y534751D01*
X354744Y534749D01*
X354746Y534738D01*
X354798Y534289D01*
X354823Y533793D01*
X354876Y533609D01*
X354898Y533419D01*
X355065Y532951D01*
X355202Y532474D01*
X355296Y532307D01*
X355360Y532126D01*
X355630Y531709D01*
X355872Y531276D01*
X356027Y531093D01*
X356105Y530973D01*
X356242Y530840D01*
X356498Y530540D01*
X472870Y414167D01*
X473260Y413859D01*
X473628Y413526D01*
X473796Y413433D01*
X473945Y413314D01*
X474394Y413102D01*
X474829Y412862D01*
X475013Y412810D01*
X475186Y412728D01*
X475672Y412623D01*
X476149Y412488D01*
X476389Y412469D01*
X476528Y412439D01*
X476719Y412442D01*
X477113Y412410D01*
X514887Y412410D01*
X515280Y412455D01*
X515675Y412462D01*
X515959Y412533D01*
X516251Y412567D01*
X516623Y412700D01*
X517006Y412797D01*
X517266Y412930D01*
X517543Y413030D01*
X517875Y413244D01*
X518226Y413425D01*
X518449Y413615D01*
X518696Y413774D01*
X518970Y414058D01*
X519271Y414314D01*
X519446Y414550D01*
X519650Y414761D01*
X519853Y415100D01*
X520087Y415417D01*
X520203Y415686D01*
X520354Y415938D01*
X520475Y416315D01*
X520631Y416677D01*
X520683Y416966D01*
X520773Y417245D01*
X520805Y417639D01*
X520875Y418028D01*
X520860Y418320D01*
X520883Y418613D01*
X520825Y419004D01*
X520805Y419398D01*
X520723Y419680D01*
X520680Y419970D01*
X520534Y420337D01*
X520425Y420717D01*
X520282Y420974D01*
X520174Y421246D01*
X519949Y421570D01*
X519756Y421915D01*
X519500Y422216D01*
X519391Y422373D01*
X519286Y422468D01*
X519130Y422651D01*
X483999Y457782D01*
X483999Y606287D01*
X483988Y606389D01*
X483996Y606491D01*
X483909Y607070D01*
X483842Y607651D01*
X483808Y607747D01*
X483793Y607848D01*
X483577Y608391D01*
X483380Y608943D01*
X483324Y609029D01*
X483286Y609124D01*
X482954Y609603D01*
X482635Y610096D01*
X482562Y610167D01*
X482503Y610251D01*
X482071Y610642D01*
X481649Y611050D01*
X481560Y611102D01*
X481485Y611171D01*
X480976Y611452D01*
X480471Y611754D01*
X480373Y611786D01*
X480284Y611835D01*
X479722Y611994D01*
X479164Y612173D01*
X479062Y612181D01*
X478963Y612209D01*
X478000Y612287D01*
X465014Y612287D01*
X461499Y615802D01*
X461499Y685773D01*
X465014Y689288D01*
X534985Y689288D01*
X538501Y685773D01*
X538501Y615802D01*
X534985Y612287D01*
X522000Y612287D01*
X521898Y612275D01*
X521796Y612283D01*
X521217Y612196D01*
X520637Y612130D01*
X520540Y612095D01*
X520439Y612080D01*
X519896Y611865D01*
X519344Y611667D01*
X519258Y611611D01*
X519163Y611574D01*
X518684Y611241D01*
X518191Y610923D01*
X518120Y610849D01*
X518036Y610791D01*
X517646Y610358D01*
X517238Y609936D01*
X517185Y609848D01*
X517117Y609772D01*
X516835Y609263D01*
X516533Y608758D01*
X516502Y608660D01*
X516452Y608571D01*
X516293Y608009D01*
X516115Y607451D01*
X516106Y607350D01*
X516078Y607251D01*
X516001Y606287D01*
X516001Y473522D01*
X516057Y473029D01*
X516083Y472533D01*
X516136Y472349D01*
X516158Y472159D01*
X516325Y471691D01*
X516462Y471214D01*
X516555Y471047D01*
X516620Y470867D01*
X516890Y470449D01*
X517132Y470016D01*
X517287Y469833D01*
X517364Y469714D01*
X517502Y469580D01*
X517758Y469280D01*
X575255Y411783D01*
X575490Y411597D01*
X575699Y411381D01*
X576026Y411171D01*
X576330Y410930D01*
X576601Y410802D01*
X576853Y410640D01*
X577219Y410509D01*
X577571Y410343D01*
X577864Y410280D01*
X578146Y410180D01*
X578532Y410136D01*
X578912Y410054D01*
X579212Y410059D01*
X579510Y410026D01*
X579896Y410071D01*
X580284Y410078D01*
X580575Y410151D01*
X580873Y410186D01*
X581434Y410367D01*
X581615Y410412D01*
X581682Y410447D01*
X581793Y410482D01*
X586447Y412410D01*
X603554Y412410D01*
X619358Y405864D01*
X631454Y393767D01*
X637649Y378811D01*
X637850Y378449D01*
X638018Y378070D01*
X638183Y377851D01*
X638316Y377611D01*
X638594Y377305D01*
X638843Y376974D01*
X639054Y376798D01*
X639238Y376594D01*
X639578Y376359D01*
X639896Y376094D01*
X640141Y375970D01*
X640367Y375814D01*
X640751Y375662D01*
X641122Y375476D01*
X641388Y375411D01*
X641643Y375311D01*
X642052Y375250D01*
X642455Y375153D01*
X642730Y375150D01*
X643001Y375110D01*
X643413Y375144D01*
X643828Y375141D01*
X644095Y375201D01*
X644369Y375224D01*
X644762Y375351D01*
X645167Y375441D01*
X645414Y375561D01*
X645675Y375645D01*
X646029Y375858D01*
X646402Y376038D01*
X646616Y376211D01*
X646851Y376352D01*
X647148Y376641D01*
X647470Y376901D01*
X647639Y377117D01*
X647836Y377308D01*
X648059Y377656D01*
X648314Y377983D01*
X648429Y378232D01*
X648577Y378463D01*
X648716Y378853D01*
X648890Y379228D01*
X648975Y379582D01*
X649037Y379756D01*
X649054Y379908D01*
X649117Y380168D01*
X649157Y380416D01*
X651443Y387451D01*
X654802Y394043D01*
X659150Y400028D01*
X664381Y405260D01*
X670366Y409608D01*
X676958Y412967D01*
X683993Y415253D01*
X685000Y415412D01*
X685000Y373410D01*
X685012Y373309D01*
X685004Y373206D01*
X685091Y372628D01*
X685157Y372047D01*
X685192Y371950D01*
X685207Y371849D01*
X685422Y371307D01*
X685620Y370755D01*
X685676Y370668D01*
X685713Y370574D01*
X686046Y370095D01*
X686364Y369602D01*
X686438Y369530D01*
X686496Y369446D01*
X686559Y369390D01*
X686238Y369057D01*
X686185Y368969D01*
X686116Y368893D01*
X685835Y368384D01*
X685533Y367880D01*
X685502Y367782D01*
X685452Y367692D01*
X685293Y367130D01*
X685115Y366573D01*
X685106Y366471D01*
X685078Y366372D01*
X685000Y365409D01*
X685000Y323407D01*
X683993Y323566D01*
X676958Y325852D01*
X670366Y329211D01*
X664381Y333559D01*
X659150Y338791D01*
X654802Y344775D01*
X651443Y351368D01*
X649157Y358403D01*
X649117Y358651D01*
X649006Y359050D01*
X648932Y359457D01*
X648823Y359709D01*
X648749Y359973D01*
X648550Y360336D01*
X648385Y360716D01*
X648222Y360936D01*
X648090Y361177D01*
X647813Y361485D01*
X647567Y361817D01*
X647358Y361994D01*
X647174Y362199D01*
X646835Y362437D01*
X646520Y362704D01*
X646276Y362829D01*
X646051Y362987D01*
X645666Y363141D01*
X645298Y363330D01*
X645032Y363396D01*
X644777Y363498D01*
X644368Y363561D01*
X643966Y363661D01*
X643692Y363665D01*
X643421Y363707D01*
X643008Y363676D01*
X642594Y363682D01*
X642327Y363623D01*
X642053Y363602D01*
X641657Y363478D01*
X641253Y363390D01*
X641006Y363272D01*
X640744Y363189D01*
X640388Y362978D01*
X640014Y362801D01*
X639799Y362630D01*
X639563Y362490D01*
X639264Y362203D01*
X638941Y361945D01*
X638771Y361730D01*
X638573Y361540D01*
X638347Y361194D01*
X638090Y360868D01*
X637924Y360544D01*
X637824Y360390D01*
X637771Y360246D01*
X637649Y360008D01*
X631454Y345052D01*
X619358Y332955D01*
X603554Y326409D01*
X586446Y326409D01*
X570642Y332955D01*
X558546Y345052D01*
X551999Y360856D01*
X551999Y377963D01*
X553927Y382617D01*
X554009Y382905D01*
X554128Y383180D01*
X554197Y383562D01*
X554304Y383936D01*
X554318Y384236D01*
X554371Y384531D01*
X554352Y384919D01*
X554371Y385307D01*
X554317Y385602D01*
X554302Y385901D01*
X554194Y386275D01*
X554124Y386657D01*
X554005Y386932D01*
X553922Y387220D01*
X553733Y387559D01*
X553578Y387916D01*
X553399Y388156D01*
X553253Y388418D01*
X552899Y388834D01*
X552829Y388935D01*
X552804Y388958D01*
X552759Y389017D01*
X552701Y389066D01*
X552626Y389155D01*
X548242Y393539D01*
X547933Y393784D01*
X547649Y394059D01*
X547396Y394210D01*
X547167Y394392D01*
X546811Y394560D01*
X546471Y394764D01*
X546191Y394853D01*
X545926Y394978D01*
X545540Y395062D01*
X545164Y395182D01*
X544872Y395206D01*
X544585Y395268D01*
X544190Y395261D01*
X543796Y395293D01*
X543506Y395249D01*
X543213Y395244D01*
X542830Y395148D01*
X542439Y395089D01*
X542166Y394981D01*
X541882Y394910D01*
X541531Y394729D01*
X541163Y394583D01*
X540922Y394416D01*
X540662Y394281D01*
X540360Y394025D01*
X540036Y393800D01*
X539840Y393583D01*
X539616Y393392D01*
X539381Y393074D01*
X539117Y392782D01*
X538975Y392525D01*
X538800Y392289D01*
X538643Y391926D01*
X538452Y391581D01*
X538372Y391298D01*
X538256Y391029D01*
X538186Y390640D01*
X538078Y390260D01*
X538047Y389866D01*
X538013Y389679D01*
X538020Y389537D01*
X538001Y389297D01*
X538001Y329924D01*
X534485Y326409D01*
X517000Y326409D01*
X516898Y326397D01*
X516796Y326405D01*
X516217Y326319D01*
X515637Y326252D01*
X515540Y326217D01*
X515439Y326202D01*
X514896Y325987D01*
X514344Y325789D01*
X514258Y325733D01*
X514163Y325696D01*
X513684Y325363D01*
X513191Y325045D01*
X513120Y324971D01*
X513036Y324913D01*
X512646Y324480D01*
X512238Y324058D01*
X512185Y323970D01*
X512117Y323894D01*
X511835Y323385D01*
X511533Y322881D01*
X511502Y322782D01*
X511452Y322693D01*
X511293Y322131D01*
X511115Y321573D01*
X511106Y321472D01*
X511078Y321373D01*
X511001Y320409D01*
X511001Y263409D01*
X511012Y263308D01*
X511004Y263205D01*
X511091Y262627D01*
X511158Y262046D01*
X511192Y261950D01*
X511207Y261848D01*
X511423Y261306D01*
X511620Y260754D01*
X511676Y260668D01*
X511714Y260573D01*
X512046Y260094D01*
X512364Y259601D01*
X512438Y259529D01*
X512497Y259446D01*
X512929Y259055D01*
X513351Y258647D01*
X513439Y258594D01*
X513515Y258526D01*
X514024Y258244D01*
X514529Y257943D01*
X514627Y257911D01*
X514716Y257862D01*
X515278Y257703D01*
X515836Y257524D01*
X515938Y257516D01*
X516036Y257488D01*
X517000Y257410D01*
X879113Y257410D01*
X879606Y257467D01*
X880102Y257492D01*
X880286Y257545D01*
X880476Y257567D01*
X880944Y257734D01*
X881421Y257872D01*
X881588Y257965D01*
X881768Y258030D01*
X882186Y258299D01*
X882619Y258541D01*
X882802Y258697D01*
X882921Y258774D01*
X883055Y258912D01*
X883355Y259167D01*
X885642Y261454D01*
X901446Y268001D01*
X918554Y268001D01*
X934358Y261454D01*
X946454Y249358D01*
X953001Y233554D01*
X953001Y216446D01*
X946454Y200642D01*
X934358Y188546D01*
X918554Y181999D01*
X901446Y181999D01*
G37*
%LPD*%
%LPC*%
G36*
X821446Y1267590D02*
X821446Y1267590D01*
X805642Y1274136D01*
X793546Y1286233D01*
X786999Y1302037D01*
X786999Y1319144D01*
X793546Y1334948D01*
X805642Y1347045D01*
X821446Y1353591D01*
X838554Y1353591D01*
X854358Y1347045D01*
X866454Y1334948D01*
X868382Y1330295D01*
X868512Y1330061D01*
X868529Y1330018D01*
X868539Y1330003D01*
X868638Y1329754D01*
X868860Y1329435D01*
X869049Y1329095D01*
X869250Y1328873D01*
X869421Y1328627D01*
X869709Y1328367D01*
X869970Y1328078D01*
X870218Y1327908D01*
X870440Y1327707D01*
X870779Y1327519D01*
X871099Y1327298D01*
X871379Y1327188D01*
X871641Y1327043D01*
X872014Y1326937D01*
X872376Y1326794D01*
X872673Y1326751D01*
X872961Y1326669D01*
X873548Y1326622D01*
X873734Y1326594D01*
X873809Y1326601D01*
X873924Y1326591D01*
X881000Y1326591D01*
X881102Y1326603D01*
X881204Y1326595D01*
X881783Y1326681D01*
X882363Y1326748D01*
X882460Y1326783D01*
X882561Y1326798D01*
X883103Y1327013D01*
X883655Y1327211D01*
X883742Y1327266D01*
X883837Y1327304D01*
X884316Y1327637D01*
X884808Y1327955D01*
X884880Y1328029D01*
X884964Y1328087D01*
X885354Y1328520D01*
X885762Y1328942D01*
X885815Y1329030D01*
X885883Y1329106D01*
X886165Y1329615D01*
X886467Y1330119D01*
X886498Y1330217D01*
X886547Y1330307D01*
X886707Y1330868D01*
X886885Y1331426D01*
X886893Y1331528D01*
X886921Y1331627D01*
X886999Y1332590D01*
X886999Y1350076D01*
X890514Y1353591D01*
X969485Y1353591D01*
X973001Y1350076D01*
X973001Y1341212D01*
X973012Y1341111D01*
X973004Y1341009D01*
X973091Y1340430D01*
X973158Y1339849D01*
X973192Y1339753D01*
X973207Y1339651D01*
X973423Y1339109D01*
X973620Y1338557D01*
X973676Y1338471D01*
X973714Y1338376D01*
X974046Y1337897D01*
X974364Y1337404D01*
X974438Y1337333D01*
X974497Y1337249D01*
X974929Y1336858D01*
X975351Y1336450D01*
X975439Y1336398D01*
X975515Y1336329D01*
X976024Y1336047D01*
X976529Y1335746D01*
X976627Y1335714D01*
X976716Y1335665D01*
X977278Y1335506D01*
X977836Y1335327D01*
X977938Y1335319D01*
X978036Y1335291D01*
X979000Y1335213D01*
X1155500Y1335213D01*
X1155602Y1335225D01*
X1155704Y1335217D01*
X1156283Y1335303D01*
X1156863Y1335370D01*
X1156960Y1335405D01*
X1157061Y1335420D01*
X1157603Y1335635D01*
X1158155Y1335833D01*
X1158242Y1335889D01*
X1158337Y1335926D01*
X1158816Y1336259D01*
X1159308Y1336577D01*
X1159380Y1336651D01*
X1159464Y1336709D01*
X1159854Y1337142D01*
X1160262Y1337564D01*
X1160315Y1337652D01*
X1160383Y1337728D01*
X1160665Y1338237D01*
X1160967Y1338741D01*
X1160998Y1338839D01*
X1161047Y1338929D01*
X1161207Y1339491D01*
X1161385Y1340048D01*
X1161393Y1340150D01*
X1161421Y1340249D01*
X1161499Y1341212D01*
X1161499Y1354198D01*
X1165014Y1357713D01*
X1234985Y1357713D01*
X1238501Y1354198D01*
X1238501Y1284227D01*
X1234985Y1280712D01*
X1165014Y1280712D01*
X1161499Y1284227D01*
X1161499Y1297213D01*
X1161488Y1297314D01*
X1161496Y1297416D01*
X1161409Y1297995D01*
X1161342Y1298576D01*
X1161308Y1298672D01*
X1161293Y1298774D01*
X1161077Y1299316D01*
X1160880Y1299868D01*
X1160824Y1299954D01*
X1160786Y1300049D01*
X1160454Y1300528D01*
X1160135Y1301021D01*
X1160062Y1301093D01*
X1160003Y1301176D01*
X1159571Y1301567D01*
X1159149Y1301975D01*
X1159060Y1302028D01*
X1158985Y1302096D01*
X1158476Y1302378D01*
X1157971Y1302679D01*
X1157873Y1302711D01*
X1157784Y1302760D01*
X1157222Y1302919D01*
X1156664Y1303098D01*
X1156562Y1303106D01*
X1156463Y1303134D01*
X1155500Y1303212D01*
X979000Y1303212D01*
X978898Y1303200D01*
X978796Y1303208D01*
X978217Y1303122D01*
X977637Y1303055D01*
X977540Y1303020D01*
X977439Y1303005D01*
X976896Y1302790D01*
X976344Y1302592D01*
X976258Y1302537D01*
X976163Y1302499D01*
X975684Y1302166D01*
X975191Y1301848D01*
X975120Y1301774D01*
X975036Y1301716D01*
X974646Y1301283D01*
X974238Y1300861D01*
X974185Y1300773D01*
X974117Y1300697D01*
X973835Y1300188D01*
X973533Y1299684D01*
X973502Y1299586D01*
X973452Y1299496D01*
X973293Y1298935D01*
X973115Y1298377D01*
X973106Y1298275D01*
X973078Y1298176D01*
X973001Y1297213D01*
X973001Y1271105D01*
X969485Y1267590D01*
X890514Y1267590D01*
X886999Y1271105D01*
X886999Y1288591D01*
X886988Y1288692D01*
X886996Y1288794D01*
X886909Y1289373D01*
X886842Y1289954D01*
X886808Y1290050D01*
X886793Y1290152D01*
X886577Y1290694D01*
X886380Y1291246D01*
X886324Y1291332D01*
X886286Y1291427D01*
X885954Y1291906D01*
X885635Y1292399D01*
X885562Y1292470D01*
X885503Y1292554D01*
X885071Y1292945D01*
X884649Y1293353D01*
X884560Y1293406D01*
X884485Y1293474D01*
X883976Y1293756D01*
X883471Y1294057D01*
X883373Y1294089D01*
X883284Y1294138D01*
X882722Y1294297D01*
X882164Y1294476D01*
X882062Y1294484D01*
X881963Y1294512D01*
X881000Y1294590D01*
X873924Y1294590D01*
X873626Y1294555D01*
X873327Y1294560D01*
X872947Y1294477D01*
X872561Y1294433D01*
X872279Y1294332D01*
X871986Y1294268D01*
X871635Y1294101D01*
X871269Y1293970D01*
X871017Y1293807D01*
X870746Y1293679D01*
X870443Y1293437D01*
X870116Y1293226D01*
X869907Y1293010D01*
X869673Y1292824D01*
X869432Y1292519D01*
X869162Y1292239D01*
X869008Y1291982D01*
X868822Y1291747D01*
X868555Y1291223D01*
X868458Y1291062D01*
X868434Y1290989D01*
X868382Y1290886D01*
X866454Y1286233D01*
X854358Y1274136D01*
X838554Y1267590D01*
X821446Y1267590D01*
G37*
%LPD*%
%LPC*%
G36*
X1216446Y551999D02*
X1216446Y551999D01*
X1200642Y558546D01*
X1188546Y570642D01*
X1186618Y575296D01*
X1186473Y575558D01*
X1186362Y575837D01*
X1186140Y576156D01*
X1185951Y576495D01*
X1185750Y576717D01*
X1185579Y576964D01*
X1185290Y577224D01*
X1185030Y577512D01*
X1184783Y577682D01*
X1184560Y577883D01*
X1184220Y578071D01*
X1183901Y578292D01*
X1183622Y578402D01*
X1183359Y578547D01*
X1182985Y578653D01*
X1182624Y578796D01*
X1182328Y578840D01*
X1182039Y578921D01*
X1181452Y578969D01*
X1181266Y578996D01*
X1181191Y578990D01*
X1181076Y578999D01*
X1143372Y578999D01*
X1100918Y621453D01*
X1100683Y621640D01*
X1100474Y621855D01*
X1100147Y622065D01*
X1099843Y622306D01*
X1099572Y622434D01*
X1099320Y622597D01*
X1098954Y622727D01*
X1098602Y622893D01*
X1098309Y622956D01*
X1098027Y623056D01*
X1097641Y623100D01*
X1097261Y623182D01*
X1096961Y623177D01*
X1096663Y623211D01*
X1096277Y623165D01*
X1095889Y623159D01*
X1095598Y623086D01*
X1095300Y623051D01*
X1094739Y622870D01*
X1094558Y622824D01*
X1094491Y622789D01*
X1094380Y622754D01*
X1092559Y621999D01*
X1077441Y621999D01*
X1063474Y627784D01*
X1052784Y638474D01*
X1046999Y652441D01*
X1046999Y667559D01*
X1052784Y681526D01*
X1063474Y692215D01*
X1077441Y698001D01*
X1092559Y698001D01*
X1106526Y692215D01*
X1117215Y681526D01*
X1117970Y679704D01*
X1118116Y679442D01*
X1118226Y679163D01*
X1118448Y678844D01*
X1118636Y678505D01*
X1118838Y678282D01*
X1119009Y678036D01*
X1119297Y677776D01*
X1119558Y677488D01*
X1119805Y677317D01*
X1120028Y677117D01*
X1120367Y676929D01*
X1120687Y676708D01*
X1120966Y676597D01*
X1121229Y676452D01*
X1121602Y676347D01*
X1121964Y676204D01*
X1122260Y676160D01*
X1122549Y676078D01*
X1123136Y676031D01*
X1123321Y676004D01*
X1123397Y676010D01*
X1123512Y676001D01*
X1126675Y676001D01*
X1127168Y676057D01*
X1127664Y676083D01*
X1127848Y676136D01*
X1128038Y676158D01*
X1128505Y676325D01*
X1128982Y676462D01*
X1129149Y676555D01*
X1129330Y676620D01*
X1129748Y676890D01*
X1130180Y677132D01*
X1130364Y677287D01*
X1130483Y677364D01*
X1130616Y677502D01*
X1130917Y677758D01*
X1259742Y806583D01*
X1260051Y806972D01*
X1260383Y807340D01*
X1260476Y807508D01*
X1260595Y807658D01*
X1260807Y808107D01*
X1261047Y808541D01*
X1261100Y808726D01*
X1261182Y808899D01*
X1261286Y809385D01*
X1261421Y809862D01*
X1261441Y810101D01*
X1261471Y810240D01*
X1261468Y810432D01*
X1261499Y810825D01*
X1261499Y859198D01*
X1265014Y862713D01*
X1334985Y862713D01*
X1338501Y859198D01*
X1338501Y789227D01*
X1334985Y785712D01*
X1286613Y785712D01*
X1286119Y785655D01*
X1285624Y785630D01*
X1285439Y785577D01*
X1285249Y785555D01*
X1284782Y785388D01*
X1284305Y785250D01*
X1284138Y785157D01*
X1283957Y785092D01*
X1283539Y784823D01*
X1283107Y784581D01*
X1282924Y784425D01*
X1282804Y784348D01*
X1282671Y784210D01*
X1282370Y783955D01*
X1153545Y655129D01*
X1142415Y643999D01*
X1138112Y643999D01*
X1137720Y643954D01*
X1137325Y643947D01*
X1137040Y643876D01*
X1136749Y643842D01*
X1136377Y643709D01*
X1135994Y643613D01*
X1135734Y643479D01*
X1135457Y643380D01*
X1135125Y643165D01*
X1134774Y642985D01*
X1134551Y642795D01*
X1134304Y642635D01*
X1134029Y642351D01*
X1133729Y642095D01*
X1133554Y641860D01*
X1133350Y641649D01*
X1133147Y641309D01*
X1132913Y640992D01*
X1132797Y640723D01*
X1132646Y640471D01*
X1132525Y640094D01*
X1132369Y639732D01*
X1132317Y639444D01*
X1132227Y639164D01*
X1132195Y638770D01*
X1132125Y638382D01*
X1132140Y638089D01*
X1132117Y637796D01*
X1132175Y637406D01*
X1132195Y637011D01*
X1132276Y636729D01*
X1132320Y636439D01*
X1132465Y636072D01*
X1132575Y635692D01*
X1132718Y635436D01*
X1132826Y635163D01*
X1133051Y634839D01*
X1133244Y634494D01*
X1133500Y634193D01*
X1133609Y634036D01*
X1133714Y633941D01*
X1133870Y633758D01*
X1154871Y612758D01*
X1155260Y612449D01*
X1155628Y612117D01*
X1155796Y612024D01*
X1155946Y611905D01*
X1156395Y611693D01*
X1156829Y611452D01*
X1157013Y611400D01*
X1157186Y611318D01*
X1157672Y611214D01*
X1158149Y611078D01*
X1158389Y611059D01*
X1158528Y611029D01*
X1158719Y611032D01*
X1159113Y611001D01*
X1181076Y611001D01*
X1181374Y611035D01*
X1181673Y611031D01*
X1182053Y611113D01*
X1182439Y611158D01*
X1182721Y611259D01*
X1183014Y611322D01*
X1183365Y611489D01*
X1183731Y611620D01*
X1183984Y611783D01*
X1184254Y611912D01*
X1184557Y612153D01*
X1184884Y612364D01*
X1185093Y612580D01*
X1185327Y612767D01*
X1185567Y613071D01*
X1185838Y613351D01*
X1185992Y613609D01*
X1186178Y613844D01*
X1186445Y614366D01*
X1186542Y614529D01*
X1186566Y614602D01*
X1186618Y614704D01*
X1188546Y619358D01*
X1200642Y631454D01*
X1216446Y638001D01*
X1233554Y638001D01*
X1249358Y631454D01*
X1261454Y619358D01*
X1268001Y603554D01*
X1268001Y586446D01*
X1261454Y570642D01*
X1249358Y558546D01*
X1233554Y551999D01*
X1216446Y551999D01*
G37*
%LPD*%
%LPC*%
G36*
X901446Y281999D02*
X901446Y281999D01*
X885642Y288546D01*
X873546Y300642D01*
X866999Y316446D01*
X866999Y333554D01*
X873546Y349358D01*
X885642Y361454D01*
X890296Y363382D01*
X890558Y363527D01*
X890837Y363638D01*
X891156Y363860D01*
X891495Y364048D01*
X891717Y364250D01*
X891964Y364421D01*
X892224Y364710D01*
X892512Y364970D01*
X892682Y365217D01*
X892883Y365440D01*
X893071Y365779D01*
X893292Y366099D01*
X893402Y366378D01*
X893547Y366641D01*
X893653Y367014D01*
X893796Y367376D01*
X893840Y367672D01*
X893921Y367961D01*
X893969Y368548D01*
X893996Y368733D01*
X893990Y368809D01*
X893999Y368924D01*
X893999Y575887D01*
X893999Y591627D01*
X1046453Y744082D01*
X1046640Y744317D01*
X1046855Y744526D01*
X1047065Y744852D01*
X1047306Y745157D01*
X1047434Y745427D01*
X1047597Y745680D01*
X1047727Y746047D01*
X1047893Y746398D01*
X1047956Y746691D01*
X1048056Y746973D01*
X1048100Y747359D01*
X1048182Y747739D01*
X1048177Y748039D01*
X1048211Y748337D01*
X1048165Y748723D01*
X1048159Y749111D01*
X1048086Y749402D01*
X1048051Y749700D01*
X1047870Y750261D01*
X1047824Y750442D01*
X1047789Y750509D01*
X1047754Y750620D01*
X1046999Y752441D01*
X1046999Y767559D01*
X1052784Y781526D01*
X1063474Y792215D01*
X1077441Y798001D01*
X1092559Y798001D01*
X1106526Y792215D01*
X1117215Y781526D01*
X1123001Y767559D01*
X1123001Y752441D01*
X1117215Y738474D01*
X1106526Y727784D01*
X1092559Y721999D01*
X1077441Y721999D01*
X1075620Y722754D01*
X1075331Y722836D01*
X1075056Y722955D01*
X1074674Y723024D01*
X1074300Y723131D01*
X1074000Y723145D01*
X1073705Y723198D01*
X1073318Y723179D01*
X1072930Y723198D01*
X1072634Y723144D01*
X1072335Y723128D01*
X1071962Y723021D01*
X1071579Y722951D01*
X1071304Y722832D01*
X1071016Y722749D01*
X1070677Y722559D01*
X1070321Y722405D01*
X1070080Y722226D01*
X1069818Y722080D01*
X1069370Y721698D01*
X1069219Y721586D01*
X1069170Y721528D01*
X1069082Y721453D01*
X927758Y580129D01*
X927449Y579740D01*
X927116Y579372D01*
X927023Y579204D01*
X926905Y579054D01*
X926692Y578605D01*
X926452Y578171D01*
X926400Y577987D01*
X926318Y577813D01*
X926213Y577328D01*
X926078Y576850D01*
X926059Y576611D01*
X926029Y576472D01*
X926032Y576280D01*
X926000Y575887D01*
X926000Y368924D01*
X926035Y368626D01*
X926030Y368327D01*
X926113Y367947D01*
X926157Y367561D01*
X926258Y367279D01*
X926322Y366986D01*
X926489Y366635D01*
X926620Y366269D01*
X926783Y366016D01*
X926912Y365746D01*
X927153Y365443D01*
X927364Y365116D01*
X927580Y364907D01*
X927767Y364673D01*
X928071Y364432D01*
X928351Y364162D01*
X928609Y364008D01*
X928844Y363822D01*
X929367Y363555D01*
X929529Y363458D01*
X929601Y363434D01*
X929704Y363382D01*
X934358Y361454D01*
X946454Y349358D01*
X953001Y333554D01*
X953001Y316446D01*
X946454Y300642D01*
X934358Y288546D01*
X918554Y281999D01*
X901446Y281999D01*
G37*
%LPD*%
%LPC*%
G36*
X777441Y921999D02*
X777441Y921999D01*
X763474Y927784D01*
X752784Y938474D01*
X746999Y952441D01*
X746999Y967559D01*
X747754Y969380D01*
X747836Y969669D01*
X747955Y969944D01*
X748024Y970326D01*
X748131Y970700D01*
X748145Y971000D01*
X748198Y971294D01*
X748179Y971682D01*
X748198Y972070D01*
X748144Y972366D01*
X748128Y972665D01*
X748021Y973038D01*
X747951Y973421D01*
X747832Y973695D01*
X747749Y973984D01*
X747559Y974324D01*
X747405Y974679D01*
X747226Y974920D01*
X747080Y975182D01*
X746698Y975630D01*
X746586Y975781D01*
X746528Y975830D01*
X746453Y975918D01*
X725129Y997242D01*
X713999Y1008372D01*
X713999Y1266666D01*
X713965Y1266964D01*
X713969Y1267264D01*
X713887Y1267643D01*
X713842Y1268029D01*
X713741Y1268312D01*
X713677Y1268605D01*
X713511Y1268955D01*
X713380Y1269321D01*
X713217Y1269574D01*
X713088Y1269844D01*
X712846Y1270148D01*
X712635Y1270474D01*
X712420Y1270683D01*
X712233Y1270917D01*
X711928Y1271158D01*
X711649Y1271428D01*
X711391Y1271582D01*
X711156Y1271768D01*
X710633Y1272036D01*
X710471Y1272133D01*
X710398Y1272156D01*
X710296Y1272209D01*
X705642Y1274136D01*
X693546Y1286233D01*
X686999Y1302037D01*
X686999Y1319144D01*
X693546Y1334948D01*
X705642Y1347045D01*
X721446Y1353591D01*
X738554Y1353591D01*
X754358Y1347045D01*
X766454Y1334948D01*
X773001Y1319144D01*
X773001Y1302037D01*
X766454Y1286233D01*
X754358Y1274136D01*
X749704Y1272209D01*
X749442Y1272063D01*
X749163Y1271952D01*
X748844Y1271731D01*
X748505Y1271542D01*
X748282Y1271340D01*
X748036Y1271169D01*
X747776Y1270881D01*
X747488Y1270620D01*
X747317Y1270373D01*
X747117Y1270151D01*
X746929Y1269811D01*
X746707Y1269491D01*
X746597Y1269212D01*
X746452Y1268950D01*
X746347Y1268577D01*
X746204Y1268215D01*
X746160Y1267917D01*
X746078Y1267629D01*
X746031Y1267042D01*
X746004Y1266857D01*
X746010Y1266781D01*
X746001Y1266666D01*
X746001Y1024113D01*
X746057Y1023620D01*
X746083Y1023124D01*
X746136Y1022939D01*
X746158Y1022749D01*
X746325Y1022282D01*
X746462Y1021805D01*
X746555Y1021638D01*
X746620Y1021457D01*
X746890Y1021040D01*
X747132Y1020607D01*
X747287Y1020424D01*
X747364Y1020304D01*
X747502Y1020171D01*
X747758Y1019871D01*
X769082Y998547D01*
X769317Y998360D01*
X769526Y998145D01*
X769732Y998012D01*
X769733Y998012D01*
X769734Y998011D01*
X769852Y997935D01*
X770157Y997694D01*
X770428Y997566D01*
X770680Y997403D01*
X771046Y997273D01*
X771397Y997107D01*
X771691Y997044D01*
X771973Y996943D01*
X772359Y996900D01*
X772739Y996818D01*
X773039Y996823D01*
X773337Y996789D01*
X773723Y996835D01*
X774111Y996841D01*
X774402Y996914D01*
X774700Y996949D01*
X775261Y997130D01*
X775442Y997176D01*
X775509Y997210D01*
X775620Y997246D01*
X777441Y998001D01*
X792559Y998001D01*
X806526Y992215D01*
X817215Y981526D01*
X823001Y967559D01*
X823001Y952441D01*
X817215Y938474D01*
X806526Y927784D01*
X792559Y921999D01*
X777441Y921999D01*
G37*
%LPD*%
%LPC*%
G36*
X1077441Y821999D02*
X1077441Y821999D01*
X1063474Y827784D01*
X1052784Y838474D01*
X1046999Y852441D01*
X1046999Y867559D01*
X1052784Y881526D01*
X1063474Y892215D01*
X1077441Y898001D01*
X1092559Y898001D01*
X1106526Y892215D01*
X1117215Y881526D01*
X1117970Y879704D01*
X1118116Y879442D01*
X1118226Y879163D01*
X1118448Y878844D01*
X1118636Y878505D01*
X1118838Y878282D01*
X1119009Y878036D01*
X1119297Y877776D01*
X1119558Y877488D01*
X1119805Y877317D01*
X1120028Y877117D01*
X1120367Y876929D01*
X1120687Y876708D01*
X1120966Y876597D01*
X1121229Y876452D01*
X1121602Y876347D01*
X1121964Y876204D01*
X1122260Y876160D01*
X1122549Y876078D01*
X1123136Y876031D01*
X1123321Y876004D01*
X1123397Y876010D01*
X1123512Y876001D01*
X1126675Y876001D01*
X1127168Y876057D01*
X1127664Y876083D01*
X1127848Y876136D01*
X1128038Y876158D01*
X1128505Y876325D01*
X1128982Y876462D01*
X1129149Y876555D01*
X1129330Y876620D01*
X1129748Y876890D01*
X1130180Y877132D01*
X1130364Y877287D01*
X1130483Y877364D01*
X1130616Y877502D01*
X1130917Y877758D01*
X1294742Y1041583D01*
X1295051Y1041972D01*
X1295383Y1042340D01*
X1295476Y1042508D01*
X1295595Y1042658D01*
X1295807Y1043107D01*
X1296047Y1043541D01*
X1296100Y1043726D01*
X1296182Y1043899D01*
X1296286Y1044385D01*
X1296421Y1044862D01*
X1296441Y1045101D01*
X1296471Y1045240D01*
X1296468Y1045432D01*
X1296499Y1045825D01*
X1296499Y1094198D01*
X1300014Y1097713D01*
X1369985Y1097713D01*
X1373501Y1094198D01*
X1373501Y1024227D01*
X1369985Y1020712D01*
X1321613Y1020712D01*
X1321119Y1020655D01*
X1320624Y1020630D01*
X1320439Y1020577D01*
X1320249Y1020555D01*
X1319782Y1020388D01*
X1319305Y1020250D01*
X1319138Y1020157D01*
X1318957Y1020092D01*
X1318539Y1019823D01*
X1318107Y1019581D01*
X1317924Y1019425D01*
X1317804Y1019348D01*
X1317671Y1019210D01*
X1317370Y1018955D01*
X1303830Y1005415D01*
X1303695Y1005245D01*
X1303536Y1005098D01*
X1303270Y1004708D01*
X1302977Y1004340D01*
X1302885Y1004144D01*
X1302762Y1003964D01*
X1302592Y1003524D01*
X1302391Y1003099D01*
X1302345Y1002887D01*
X1302267Y1002684D01*
X1302201Y1002217D01*
X1302102Y1001757D01*
X1302106Y1001540D01*
X1302075Y1001325D01*
X1302117Y1000856D01*
X1302125Y1000385D01*
X1302178Y1000175D01*
X1302197Y999958D01*
X1302345Y999510D01*
X1302460Y999054D01*
X1302559Y998861D01*
X1302627Y998655D01*
X1302873Y998253D01*
X1303088Y997834D01*
X1303229Y997669D01*
X1303342Y997483D01*
X1303671Y997148D01*
X1303977Y996789D01*
X1304152Y996659D01*
X1304304Y996505D01*
X1304701Y996253D01*
X1305080Y995973D01*
X1305280Y995887D01*
X1305463Y995771D01*
X1305908Y995616D01*
X1306340Y995429D01*
X1306554Y995390D01*
X1306759Y995319D01*
X1307227Y995269D01*
X1307691Y995186D01*
X1307908Y995197D01*
X1308124Y995174D01*
X1308591Y995231D01*
X1309062Y995255D01*
X1309270Y995315D01*
X1309486Y995342D01*
X1309929Y995505D01*
X1310380Y995635D01*
X1310570Y995741D01*
X1310774Y995816D01*
X1311534Y996279D01*
X1311578Y996304D01*
X1311588Y996312D01*
X1311599Y996319D01*
X1312725Y997137D01*
X1318685Y1000174D01*
X1325048Y1002242D01*
X1328111Y1002727D01*
X1328111Y967676D01*
X1293061Y967676D01*
X1293546Y970740D01*
X1295613Y977102D01*
X1298650Y983062D01*
X1299468Y984188D01*
X1299575Y984378D01*
X1299710Y984548D01*
X1299911Y984973D01*
X1300142Y985383D01*
X1300203Y985592D01*
X1300296Y985788D01*
X1300396Y986249D01*
X1300528Y986701D01*
X1300539Y986917D01*
X1300585Y987130D01*
X1300577Y987601D01*
X1300603Y988071D01*
X1300566Y988285D01*
X1300562Y988502D01*
X1300447Y988958D01*
X1300366Y989423D01*
X1300280Y989622D01*
X1300227Y989833D01*
X1300012Y990251D01*
X1299827Y990685D01*
X1299699Y990860D01*
X1299599Y991053D01*
X1299294Y991412D01*
X1299016Y991792D01*
X1298851Y991933D01*
X1298710Y992099D01*
X1298331Y992379D01*
X1297974Y992685D01*
X1297781Y992786D01*
X1297607Y992914D01*
X1297175Y993101D01*
X1296757Y993319D01*
X1296546Y993373D01*
X1296347Y993458D01*
X1295884Y993542D01*
X1295427Y993659D01*
X1295210Y993663D01*
X1294996Y993702D01*
X1294526Y993678D01*
X1294055Y993688D01*
X1293843Y993643D01*
X1293626Y993632D01*
X1293173Y993502D01*
X1292712Y993404D01*
X1292515Y993312D01*
X1292307Y993252D01*
X1291896Y993023D01*
X1291469Y992823D01*
X1291298Y992689D01*
X1291109Y992583D01*
X1290433Y992008D01*
X1290391Y991975D01*
X1290382Y991965D01*
X1290373Y991957D01*
X1142415Y843999D01*
X1123512Y843999D01*
X1123214Y843965D01*
X1122915Y843969D01*
X1122535Y843887D01*
X1122149Y843842D01*
X1121867Y843741D01*
X1121574Y843677D01*
X1121223Y843511D01*
X1120857Y843380D01*
X1120604Y843217D01*
X1120334Y843088D01*
X1120031Y842847D01*
X1119704Y842635D01*
X1119495Y842420D01*
X1119261Y842233D01*
X1119021Y841928D01*
X1118750Y841649D01*
X1118596Y841391D01*
X1118410Y841156D01*
X1118143Y840633D01*
X1118046Y840471D01*
X1118022Y840398D01*
X1117970Y840296D01*
X1117215Y838474D01*
X1106526Y827784D01*
X1092559Y821999D01*
X1077441Y821999D01*
G37*
%LPD*%
%LPC*%
G36*
X1347839Y488999D02*
X1347839Y488999D01*
X1334607Y494480D01*
X1324480Y504607D01*
X1318999Y517839D01*
X1318999Y532161D01*
X1324480Y545393D01*
X1334607Y555520D01*
X1347839Y561001D01*
X1363000Y561001D01*
X1363102Y561012D01*
X1363204Y561004D01*
X1363783Y561091D01*
X1364363Y561158D01*
X1364460Y561192D01*
X1364561Y561207D01*
X1365103Y561423D01*
X1365655Y561620D01*
X1365742Y561676D01*
X1365837Y561714D01*
X1366316Y562046D01*
X1366808Y562364D01*
X1366880Y562438D01*
X1366964Y562497D01*
X1367354Y562929D01*
X1367762Y563351D01*
X1367815Y563439D01*
X1367883Y563515D01*
X1368165Y564024D01*
X1368467Y564529D01*
X1368498Y564627D01*
X1368547Y564716D01*
X1368707Y565278D01*
X1368885Y565836D01*
X1368893Y565938D01*
X1368921Y566036D01*
X1368999Y567000D01*
X1368999Y631675D01*
X1368942Y632168D01*
X1368917Y632664D01*
X1368864Y632848D01*
X1368842Y633038D01*
X1368675Y633505D01*
X1368538Y633982D01*
X1368444Y634149D01*
X1368380Y634330D01*
X1368110Y634748D01*
X1367868Y635180D01*
X1367713Y635363D01*
X1367635Y635483D01*
X1367498Y635616D01*
X1367242Y635917D01*
X1316301Y686858D01*
X1316066Y687044D01*
X1315857Y687260D01*
X1315530Y687470D01*
X1315226Y687711D01*
X1314955Y687839D01*
X1314703Y688001D01*
X1314337Y688131D01*
X1313985Y688297D01*
X1313692Y688361D01*
X1313409Y688461D01*
X1313024Y688505D01*
X1312644Y688587D01*
X1312344Y688581D01*
X1312046Y688615D01*
X1311660Y688570D01*
X1311272Y688563D01*
X1310981Y688490D01*
X1310683Y688455D01*
X1310122Y688274D01*
X1309941Y688229D01*
X1309873Y688194D01*
X1309763Y688158D01*
X1307658Y687287D01*
X1292341Y687287D01*
X1278191Y693148D01*
X1267361Y703978D01*
X1261499Y718129D01*
X1261499Y733446D01*
X1267361Y747596D01*
X1278191Y758427D01*
X1292341Y764288D01*
X1307658Y764288D01*
X1321809Y758427D01*
X1332639Y747596D01*
X1338501Y733446D01*
X1338501Y718129D01*
X1337629Y716024D01*
X1337546Y715736D01*
X1337428Y715461D01*
X1337359Y715078D01*
X1337252Y714705D01*
X1337237Y714405D01*
X1337184Y714110D01*
X1337204Y713722D01*
X1337185Y713334D01*
X1337239Y713039D01*
X1337254Y712740D01*
X1337362Y712366D01*
X1337431Y711984D01*
X1337551Y711709D01*
X1337634Y711421D01*
X1337823Y711081D01*
X1337978Y710725D01*
X1338157Y710484D01*
X1338303Y710223D01*
X1338684Y709774D01*
X1338796Y709624D01*
X1338854Y709575D01*
X1338929Y709486D01*
X1389871Y658545D01*
X1401001Y647415D01*
X1401001Y567000D01*
X1401012Y566898D01*
X1401004Y566796D01*
X1401091Y566217D01*
X1401158Y565637D01*
X1401192Y565540D01*
X1401207Y565439D01*
X1401423Y564896D01*
X1401620Y564344D01*
X1401676Y564258D01*
X1401714Y564163D01*
X1402046Y563684D01*
X1402364Y563191D01*
X1402438Y563120D01*
X1402497Y563036D01*
X1402929Y562646D01*
X1403351Y562238D01*
X1403439Y562185D01*
X1403515Y562117D01*
X1404024Y561835D01*
X1404529Y561533D01*
X1404627Y561502D01*
X1404716Y561452D01*
X1405278Y561293D01*
X1405836Y561115D01*
X1405938Y561106D01*
X1406036Y561078D01*
X1407000Y561001D01*
X1422161Y561001D01*
X1435393Y555520D01*
X1445520Y545393D01*
X1451001Y532161D01*
X1451001Y517839D01*
X1445520Y504607D01*
X1435393Y494480D01*
X1422161Y488999D01*
X1347839Y488999D01*
G37*
%LPD*%
%LPC*%
G36*
X1077441Y921999D02*
X1077441Y921999D01*
X1063474Y927784D01*
X1052784Y938474D01*
X1046999Y952441D01*
X1046999Y967559D01*
X1052784Y981526D01*
X1063474Y992215D01*
X1077441Y998001D01*
X1092559Y998001D01*
X1094380Y997246D01*
X1094669Y997164D01*
X1094944Y997045D01*
X1095326Y996976D01*
X1095700Y996869D01*
X1096000Y996855D01*
X1096294Y996802D01*
X1096682Y996821D01*
X1097070Y996802D01*
X1097366Y996856D01*
X1097665Y996871D01*
X1098038Y996979D01*
X1098421Y997049D01*
X1098696Y997168D01*
X1098984Y997251D01*
X1099323Y997441D01*
X1099679Y997595D01*
X1099920Y997774D01*
X1100182Y997920D01*
X1100549Y998233D01*
X1100591Y998260D01*
X1100635Y998305D01*
X1100781Y998414D01*
X1100830Y998471D01*
X1100918Y998547D01*
X1182242Y1079871D01*
X1182551Y1080260D01*
X1182883Y1080628D01*
X1182976Y1080796D01*
X1183095Y1080946D01*
X1183307Y1081395D01*
X1183547Y1081829D01*
X1183600Y1082013D01*
X1183682Y1082186D01*
X1183786Y1082672D01*
X1183921Y1083149D01*
X1183941Y1083389D01*
X1183971Y1083528D01*
X1183968Y1083719D01*
X1183999Y1084113D01*
X1183999Y1181734D01*
X1183965Y1182032D01*
X1183969Y1182331D01*
X1183887Y1182711D01*
X1183842Y1183097D01*
X1183741Y1183379D01*
X1183677Y1183672D01*
X1183511Y1184023D01*
X1183380Y1184389D01*
X1183217Y1184641D01*
X1183088Y1184912D01*
X1182846Y1185215D01*
X1182635Y1185542D01*
X1182419Y1185751D01*
X1182233Y1185985D01*
X1181929Y1186225D01*
X1181649Y1186496D01*
X1181391Y1186650D01*
X1181156Y1186836D01*
X1180633Y1187103D01*
X1180471Y1187200D01*
X1180398Y1187224D01*
X1180296Y1187276D01*
X1178191Y1188148D01*
X1167361Y1198978D01*
X1161499Y1213129D01*
X1161499Y1228446D01*
X1167361Y1242596D01*
X1178191Y1253427D01*
X1192341Y1259288D01*
X1207658Y1259288D01*
X1221809Y1253427D01*
X1232639Y1242596D01*
X1238501Y1228446D01*
X1238501Y1213129D01*
X1232639Y1198978D01*
X1221809Y1188148D01*
X1219704Y1187276D01*
X1219442Y1187131D01*
X1219163Y1187020D01*
X1218844Y1186798D01*
X1218505Y1186609D01*
X1218282Y1186408D01*
X1218036Y1186237D01*
X1217776Y1185949D01*
X1217488Y1185688D01*
X1217317Y1185441D01*
X1217117Y1185218D01*
X1216929Y1184879D01*
X1216707Y1184559D01*
X1216597Y1184279D01*
X1216452Y1184017D01*
X1216347Y1183644D01*
X1216204Y1183282D01*
X1216160Y1182986D01*
X1216078Y1182697D01*
X1216031Y1182110D01*
X1216004Y1181925D01*
X1216010Y1181849D01*
X1216001Y1181734D01*
X1216001Y1068372D01*
X1123547Y975918D01*
X1123360Y975683D01*
X1123145Y975474D01*
X1122935Y975147D01*
X1122694Y974843D01*
X1122566Y974572D01*
X1122403Y974320D01*
X1122273Y973953D01*
X1122107Y973602D01*
X1122044Y973309D01*
X1121943Y973027D01*
X1121900Y972641D01*
X1121818Y972261D01*
X1121823Y971961D01*
X1121789Y971663D01*
X1121835Y971277D01*
X1121841Y970889D01*
X1121914Y970598D01*
X1121949Y970300D01*
X1122130Y969739D01*
X1122176Y969558D01*
X1122210Y969491D01*
X1122246Y969380D01*
X1123001Y967559D01*
X1123001Y952441D01*
X1117215Y938474D01*
X1106526Y927784D01*
X1092559Y921999D01*
X1077441Y921999D01*
G37*
%LPD*%
%LPC*%
G36*
X492341Y710712D02*
X492341Y710712D01*
X478191Y716573D01*
X467361Y727404D01*
X461499Y741554D01*
X461499Y756871D01*
X467361Y771021D01*
X478191Y781852D01*
X492341Y787713D01*
X507658Y787713D01*
X521809Y781852D01*
X525903Y777758D01*
X526292Y777449D01*
X526660Y777117D01*
X526828Y777024D01*
X526978Y776905D01*
X527427Y776693D01*
X527861Y776452D01*
X528045Y776400D01*
X528219Y776318D01*
X528704Y776214D01*
X529182Y776078D01*
X529421Y776059D01*
X529560Y776029D01*
X529752Y776032D01*
X530145Y776001D01*
X746487Y776001D01*
X746786Y776035D01*
X747085Y776031D01*
X747465Y776113D01*
X747851Y776158D01*
X748133Y776259D01*
X748426Y776322D01*
X748777Y776489D01*
X749143Y776620D01*
X749395Y776783D01*
X749666Y776912D01*
X749969Y777153D01*
X750296Y777364D01*
X750505Y777580D01*
X750739Y777767D01*
X750979Y778071D01*
X751250Y778351D01*
X751404Y778609D01*
X751589Y778844D01*
X751857Y779367D01*
X751954Y779529D01*
X751977Y779601D01*
X752030Y779704D01*
X752785Y781526D01*
X763474Y792215D01*
X777441Y798001D01*
X792559Y798001D01*
X806526Y792215D01*
X817215Y781526D01*
X823001Y767559D01*
X823001Y752441D01*
X817215Y738474D01*
X806526Y727784D01*
X792559Y721999D01*
X777441Y721999D01*
X763474Y727784D01*
X752785Y738474D01*
X752030Y740296D01*
X751884Y740558D01*
X751774Y740837D01*
X751552Y741155D01*
X751363Y741495D01*
X751162Y741718D01*
X750991Y741964D01*
X750703Y742224D01*
X750442Y742512D01*
X750195Y742683D01*
X749972Y742883D01*
X749633Y743071D01*
X749313Y743292D01*
X749033Y743402D01*
X748771Y743547D01*
X748398Y743653D01*
X748036Y743796D01*
X747740Y743840D01*
X747451Y743921D01*
X746864Y743969D01*
X746679Y743996D01*
X746603Y743990D01*
X746487Y743999D01*
X543522Y743999D01*
X543224Y743965D01*
X542924Y743969D01*
X542545Y743887D01*
X542159Y743842D01*
X541876Y743741D01*
X541583Y743677D01*
X541233Y743511D01*
X540867Y743380D01*
X540614Y743217D01*
X540344Y743088D01*
X540040Y742846D01*
X539713Y742635D01*
X539505Y742419D01*
X539271Y742233D01*
X539030Y741929D01*
X538760Y741649D01*
X538606Y741391D01*
X538420Y741156D01*
X538152Y740633D01*
X538055Y740471D01*
X538032Y740398D01*
X537979Y740296D01*
X532639Y727404D01*
X521809Y716573D01*
X507658Y710712D01*
X492341Y710712D01*
G37*
%LPD*%
%LPC*%
G36*
X1145014Y295712D02*
X1145014Y295712D01*
X1141499Y299227D01*
X1141499Y369198D01*
X1145014Y372713D01*
X1158000Y372713D01*
X1158102Y372725D01*
X1158204Y372717D01*
X1158783Y372803D01*
X1159363Y372870D01*
X1159460Y372905D01*
X1159561Y372920D01*
X1160103Y373135D01*
X1160655Y373333D01*
X1160742Y373389D01*
X1160837Y373426D01*
X1161316Y373759D01*
X1161808Y374077D01*
X1161880Y374151D01*
X1161964Y374209D01*
X1162354Y374642D01*
X1162762Y375064D01*
X1162815Y375152D01*
X1162883Y375228D01*
X1163165Y375737D01*
X1163467Y376241D01*
X1163498Y376339D01*
X1163547Y376429D01*
X1163707Y376991D01*
X1163885Y377548D01*
X1163893Y377650D01*
X1163921Y377749D01*
X1163999Y378712D01*
X1163999Y456628D01*
X1182626Y475255D01*
X1182813Y475490D01*
X1183028Y475699D01*
X1183238Y476026D01*
X1183479Y476330D01*
X1183607Y476601D01*
X1183770Y476853D01*
X1183900Y477219D01*
X1184066Y477571D01*
X1184129Y477864D01*
X1184230Y478146D01*
X1184273Y478532D01*
X1184355Y478912D01*
X1184350Y479212D01*
X1184384Y479510D01*
X1184338Y479896D01*
X1184332Y480284D01*
X1184259Y480575D01*
X1184224Y480873D01*
X1184043Y481434D01*
X1183997Y481615D01*
X1183962Y481683D01*
X1183927Y481793D01*
X1181999Y486447D01*
X1181999Y503554D01*
X1188546Y519358D01*
X1200642Y531454D01*
X1216446Y538001D01*
X1233554Y538001D01*
X1249358Y531454D01*
X1261454Y519358D01*
X1268001Y503554D01*
X1268001Y486446D01*
X1261454Y470642D01*
X1249358Y458546D01*
X1233554Y451999D01*
X1216447Y451999D01*
X1211793Y453927D01*
X1211504Y454009D01*
X1211229Y454128D01*
X1210847Y454197D01*
X1210473Y454304D01*
X1210174Y454318D01*
X1209879Y454371D01*
X1209490Y454352D01*
X1209103Y454371D01*
X1208808Y454317D01*
X1208508Y454302D01*
X1208135Y454194D01*
X1207753Y454124D01*
X1207477Y454005D01*
X1207189Y453922D01*
X1206850Y453733D01*
X1206494Y453578D01*
X1206253Y453399D01*
X1205991Y453253D01*
X1205543Y452871D01*
X1205392Y452759D01*
X1205343Y452701D01*
X1205255Y452626D01*
X1197758Y445129D01*
X1197449Y444740D01*
X1197117Y444372D01*
X1197024Y444204D01*
X1196905Y444054D01*
X1196693Y443605D01*
X1196452Y443171D01*
X1196400Y442987D01*
X1196318Y442813D01*
X1196214Y442328D01*
X1196078Y441851D01*
X1196059Y441611D01*
X1196029Y441472D01*
X1196032Y441281D01*
X1196001Y440887D01*
X1196001Y378712D01*
X1196012Y378611D01*
X1196004Y378509D01*
X1196091Y377930D01*
X1196158Y377349D01*
X1196192Y377253D01*
X1196207Y377151D01*
X1196423Y376609D01*
X1196620Y376057D01*
X1196676Y375971D01*
X1196714Y375876D01*
X1197046Y375397D01*
X1197364Y374904D01*
X1197438Y374833D01*
X1197497Y374749D01*
X1197929Y374358D01*
X1198351Y373950D01*
X1198439Y373898D01*
X1198515Y373829D01*
X1199024Y373547D01*
X1199529Y373246D01*
X1199627Y373214D01*
X1199716Y373165D01*
X1200278Y373006D01*
X1200836Y372827D01*
X1200938Y372819D01*
X1201036Y372791D01*
X1202000Y372713D01*
X1214985Y372713D01*
X1218501Y369198D01*
X1218501Y299227D01*
X1214985Y295712D01*
X1145014Y295712D01*
G37*
%LPD*%
%LPC*%
G36*
X777441Y821999D02*
X777441Y821999D01*
X763474Y827784D01*
X752784Y838474D01*
X746999Y852441D01*
X746999Y867559D01*
X747754Y869380D01*
X747836Y869669D01*
X747955Y869944D01*
X748024Y870326D01*
X748131Y870700D01*
X748145Y871000D01*
X748198Y871294D01*
X748179Y871682D01*
X748198Y872070D01*
X748144Y872366D01*
X748128Y872665D01*
X748021Y873038D01*
X747951Y873421D01*
X747832Y873696D01*
X747749Y873984D01*
X747559Y874323D01*
X747405Y874679D01*
X747226Y874920D01*
X747080Y875182D01*
X746698Y875630D01*
X746586Y875781D01*
X746528Y875830D01*
X746453Y875918D01*
X680129Y942242D01*
X679740Y942551D01*
X679372Y942883D01*
X679204Y942976D01*
X679054Y943095D01*
X678605Y943307D01*
X678171Y943547D01*
X677987Y943600D01*
X677813Y943682D01*
X677328Y943786D01*
X676851Y943921D01*
X676611Y943941D01*
X676472Y943971D01*
X676281Y943968D01*
X675887Y943999D01*
X668712Y943999D01*
X668611Y943988D01*
X668509Y943996D01*
X667930Y943909D01*
X667349Y943842D01*
X667253Y943808D01*
X667151Y943793D01*
X666609Y943577D01*
X666057Y943380D01*
X665971Y943324D01*
X665876Y943286D01*
X665397Y942954D01*
X664904Y942635D01*
X664833Y942562D01*
X664749Y942503D01*
X664358Y942071D01*
X663950Y941649D01*
X663898Y941560D01*
X663829Y941485D01*
X663547Y940976D01*
X663246Y940471D01*
X663214Y940373D01*
X663165Y940284D01*
X663006Y939722D01*
X662827Y939164D01*
X662819Y939062D01*
X662791Y938963D01*
X662713Y938000D01*
X662713Y925014D01*
X659198Y921499D01*
X589227Y921499D01*
X585712Y925014D01*
X585712Y994985D01*
X589227Y998501D01*
X659198Y998501D01*
X662713Y994985D01*
X662713Y982000D01*
X662725Y981898D01*
X662717Y981796D01*
X662803Y981217D01*
X662870Y980637D01*
X662905Y980540D01*
X662920Y980439D01*
X663135Y979896D01*
X663333Y979344D01*
X663389Y979258D01*
X663426Y979163D01*
X663759Y978684D01*
X664077Y978191D01*
X664151Y978120D01*
X664209Y978036D01*
X664642Y977646D01*
X665064Y977238D01*
X665152Y977185D01*
X665228Y977117D01*
X665737Y976835D01*
X666241Y976533D01*
X666339Y976502D01*
X666429Y976452D01*
X666991Y976293D01*
X667548Y976115D01*
X667650Y976106D01*
X667749Y976078D01*
X668712Y976001D01*
X691628Y976001D01*
X702758Y964871D01*
X769082Y898547D01*
X769317Y898360D01*
X769526Y898145D01*
X769852Y897935D01*
X770157Y897694D01*
X770427Y897566D01*
X770680Y897403D01*
X771047Y897273D01*
X771398Y897107D01*
X771691Y897044D01*
X771973Y896943D01*
X772359Y896900D01*
X772739Y896818D01*
X773039Y896823D01*
X773337Y896789D01*
X773723Y896835D01*
X774111Y896841D01*
X774402Y896914D01*
X774700Y896949D01*
X775261Y897130D01*
X775442Y897176D01*
X775509Y897210D01*
X775620Y897246D01*
X777441Y898001D01*
X792559Y898001D01*
X806526Y892215D01*
X817215Y881526D01*
X823001Y867559D01*
X823001Y852441D01*
X817215Y838474D01*
X806526Y827784D01*
X792559Y821999D01*
X777441Y821999D01*
G37*
%LPD*%
%LPC*%
G36*
X166260Y1376062D02*
X166260Y1376062D01*
X150111Y1382751D01*
X137751Y1395111D01*
X131062Y1411260D01*
X131062Y1428740D01*
X137751Y1444889D01*
X150111Y1457249D01*
X166260Y1463938D01*
X183740Y1463938D01*
X199889Y1457249D01*
X212249Y1444889D01*
X218938Y1428740D01*
X218938Y1411260D01*
X212249Y1395111D01*
X199889Y1382751D01*
X183740Y1376062D01*
X166260Y1376062D01*
G37*
%LPD*%
%LPC*%
G36*
X1391260Y1396062D02*
X1391260Y1396062D01*
X1375111Y1402751D01*
X1362751Y1415111D01*
X1356062Y1431260D01*
X1356062Y1448740D01*
X1362751Y1464889D01*
X1375111Y1477249D01*
X1391260Y1483938D01*
X1408740Y1483938D01*
X1424889Y1477249D01*
X1437249Y1464889D01*
X1443938Y1448740D01*
X1443938Y1431260D01*
X1437249Y1415111D01*
X1424889Y1402751D01*
X1408740Y1396062D01*
X1391260Y1396062D01*
G37*
%LPD*%
%LPC*%
G36*
X1396260Y181062D02*
X1396260Y181062D01*
X1380111Y187751D01*
X1367751Y200111D01*
X1361062Y216260D01*
X1361062Y233740D01*
X1367751Y249889D01*
X1380111Y262249D01*
X1396260Y268938D01*
X1413740Y268938D01*
X1429889Y262249D01*
X1442249Y249889D01*
X1448938Y233740D01*
X1448938Y216260D01*
X1442249Y200111D01*
X1429889Y187751D01*
X1413740Y181062D01*
X1396260Y181062D01*
G37*
%LPD*%
%LPC*%
G36*
X151260Y181062D02*
X151260Y181062D01*
X135111Y187751D01*
X122751Y200111D01*
X116062Y216260D01*
X116062Y233740D01*
X122751Y249889D01*
X135111Y262249D01*
X151260Y268938D01*
X168740Y268938D01*
X184889Y262249D01*
X197249Y249889D01*
X203938Y233740D01*
X203938Y216260D01*
X197249Y200111D01*
X184889Y187751D01*
X168740Y181062D01*
X151260Y181062D01*
G37*
%LPD*%
%LPC*%
G36*
X1394999Y434999D02*
X1394999Y434999D01*
X1394999Y465000D01*
X1418148Y465001D01*
X1424367Y464016D01*
X1430355Y462070D01*
X1435965Y459212D01*
X1441059Y455511D01*
X1445511Y451059D01*
X1449212Y445965D01*
X1452070Y440355D01*
X1453810Y434999D01*
X1394999Y434999D01*
G37*
%LPD*%
%LPC*%
G36*
X1316190Y434999D02*
X1316190Y434999D01*
X1317930Y440355D01*
X1320788Y445965D01*
X1324489Y451059D01*
X1328941Y455511D01*
X1334035Y459212D01*
X1339645Y462070D01*
X1345632Y464016D01*
X1351852Y465001D01*
X1375000Y465001D01*
X1375000Y434999D01*
X1316190Y434999D01*
G37*
%LPD*%
%LPC*%
G36*
X1394999Y384999D02*
X1394999Y384999D01*
X1394999Y415000D01*
X1453810Y415000D01*
X1452070Y409645D01*
X1449212Y404035D01*
X1445511Y398941D01*
X1441059Y394489D01*
X1435965Y390788D01*
X1430355Y387930D01*
X1424367Y385984D01*
X1418148Y384999D01*
X1394999Y384999D01*
G37*
%LPD*%
%LPC*%
G36*
X1351852Y384999D02*
X1351852Y384999D01*
X1345632Y385984D01*
X1339645Y387930D01*
X1334035Y390788D01*
X1328941Y394489D01*
X1324489Y398941D01*
X1320788Y404035D01*
X1317930Y409645D01*
X1316190Y415000D01*
X1375000Y415000D01*
X1375000Y384999D01*
X1351852Y384999D01*
G37*
%LPD*%
%LPC*%
G36*
X344740Y1012181D02*
X344740Y1012181D01*
X344740Y1050792D01*
X349278Y1050074D01*
X356015Y1047885D01*
X362325Y1044669D01*
X368056Y1040506D01*
X373065Y1035497D01*
X377228Y1029766D01*
X380444Y1023456D01*
X382633Y1016719D01*
X383351Y1012181D01*
X344740Y1012181D01*
G37*
%LPD*%
%LPC*%
G36*
X294129Y1012181D02*
X294129Y1012181D01*
X294848Y1016719D01*
X297036Y1023456D01*
X300252Y1029766D01*
X304415Y1035497D01*
X309424Y1040506D01*
X315155Y1044669D01*
X321466Y1047885D01*
X328202Y1050074D01*
X332740Y1050792D01*
X332740Y1012181D01*
X294129Y1012181D01*
G37*
%LPD*%
%LPC*%
G36*
X344740Y1000181D02*
X344740Y1000181D01*
X383351Y1000181D01*
X382633Y995643D01*
X380444Y988906D01*
X377228Y982596D01*
X373065Y976865D01*
X368056Y971856D01*
X362325Y967693D01*
X356015Y964477D01*
X349278Y962289D01*
X344740Y961570D01*
X344740Y1000181D01*
G37*
%LPD*%
%LPC*%
G36*
X328202Y962289D02*
X328202Y962289D01*
X321466Y964477D01*
X315155Y967693D01*
X309424Y971856D01*
X304415Y976865D01*
X300252Y982596D01*
X297036Y988906D01*
X294848Y995643D01*
X294129Y1000181D01*
X332740Y1000181D01*
X332740Y961570D01*
X328202Y962289D01*
G37*
%LPD*%
%LPC*%
G36*
X704999Y379409D02*
X704999Y379409D01*
X704999Y415412D01*
X706006Y415253D01*
X713041Y412967D01*
X719634Y409608D01*
X725619Y405260D01*
X730850Y400028D01*
X735198Y394043D01*
X738557Y387451D01*
X740843Y380416D01*
X741003Y379409D01*
X704999Y379409D01*
G37*
%LPD*%
%LPC*%
G36*
X704999Y359410D02*
X704999Y359410D01*
X741003Y359410D01*
X740843Y358403D01*
X738557Y351368D01*
X735198Y344775D01*
X730850Y338791D01*
X725619Y333559D01*
X719634Y329211D01*
X713041Y325852D01*
X706006Y323566D01*
X704999Y323407D01*
X704999Y359410D01*
G37*
%LPD*%
%LPC*%
G36*
X1341889Y967676D02*
X1341889Y967676D01*
X1341889Y1002727D01*
X1344952Y1002242D01*
X1351315Y1000174D01*
X1357275Y997137D01*
X1362687Y993205D01*
X1367418Y988474D01*
X1371350Y983063D01*
X1374387Y977102D01*
X1376454Y970740D01*
X1376939Y967676D01*
X1341889Y967676D01*
G37*
%LPD*%
%LPC*%
G36*
X532676Y966889D02*
X532676Y966889D01*
X532676Y1001939D01*
X535740Y1001454D01*
X542102Y999387D01*
X548063Y996350D01*
X553474Y992418D01*
X558205Y987687D01*
X562137Y982275D01*
X565174Y976315D01*
X567242Y969952D01*
X567727Y966889D01*
X532676Y966889D01*
G37*
%LPD*%
%LPC*%
G36*
X1186889Y242676D02*
X1186889Y242676D01*
X1186889Y277727D01*
X1189952Y277242D01*
X1196315Y275174D01*
X1202275Y272137D01*
X1207687Y268205D01*
X1212418Y263474D01*
X1216350Y258063D01*
X1219387Y252102D01*
X1221454Y245740D01*
X1221939Y242676D01*
X1186889Y242676D01*
G37*
%LPD*%
%LPC*%
G36*
X483848Y966889D02*
X483848Y966889D01*
X484333Y969952D01*
X486401Y976315D01*
X489438Y982275D01*
X493369Y987687D01*
X498100Y992418D01*
X503512Y996350D01*
X509472Y999387D01*
X515835Y1001454D01*
X518898Y1001939D01*
X518898Y966889D01*
X483848Y966889D01*
G37*
%LPD*%
%LPC*%
G36*
X1341889Y953898D02*
X1341889Y953898D01*
X1376939Y953898D01*
X1376454Y950835D01*
X1374387Y944472D01*
X1371350Y938512D01*
X1367418Y933100D01*
X1362687Y928369D01*
X1357275Y924438D01*
X1351315Y921401D01*
X1344952Y919333D01*
X1341889Y918848D01*
X1341889Y953898D01*
G37*
%LPD*%
%LPC*%
G36*
X532676Y953111D02*
X532676Y953111D01*
X567727Y953111D01*
X567242Y950048D01*
X565174Y943685D01*
X562137Y937724D01*
X558205Y932313D01*
X553474Y927582D01*
X548063Y923650D01*
X542102Y920613D01*
X535740Y918546D01*
X532676Y918061D01*
X532676Y953111D01*
G37*
%LPD*%
%LPC*%
G36*
X1138061Y242676D02*
X1138061Y242676D01*
X1138546Y245740D01*
X1140613Y252102D01*
X1143650Y258063D01*
X1147582Y263474D01*
X1152313Y268205D01*
X1157724Y272137D01*
X1163685Y275174D01*
X1170048Y277242D01*
X1173111Y277727D01*
X1173111Y242676D01*
X1138061Y242676D01*
G37*
%LPD*%
%LPC*%
G36*
X1186889Y228898D02*
X1186889Y228898D01*
X1221939Y228898D01*
X1221454Y225835D01*
X1219387Y219472D01*
X1216350Y213512D01*
X1212418Y208100D01*
X1207687Y203369D01*
X1202275Y199438D01*
X1196315Y196401D01*
X1189952Y194333D01*
X1186889Y193848D01*
X1186889Y228898D01*
G37*
%LPD*%
%LPC*%
G36*
X1325048Y919333D02*
X1325048Y919333D01*
X1318685Y921401D01*
X1312724Y924438D01*
X1307313Y928369D01*
X1302582Y933100D01*
X1298650Y938512D01*
X1295613Y944472D01*
X1293546Y950835D01*
X1293061Y953898D01*
X1328111Y953898D01*
X1328111Y918848D01*
X1325048Y919333D01*
G37*
%LPD*%
%LPC*%
G36*
X515835Y918546D02*
X515835Y918546D01*
X509472Y920613D01*
X503512Y923650D01*
X498100Y927582D01*
X493369Y932313D01*
X489438Y937724D01*
X486401Y943685D01*
X484333Y950048D01*
X483848Y953111D01*
X518898Y953111D01*
X518898Y918061D01*
X515835Y918546D01*
G37*
%LPD*%
%LPC*%
G36*
X1170048Y194333D02*
X1170048Y194333D01*
X1163685Y196401D01*
X1157724Y199438D01*
X1152313Y203369D01*
X1147582Y208100D01*
X1143650Y213512D01*
X1140613Y219472D01*
X1138546Y225835D01*
X1138061Y228898D01*
X1173111Y228898D01*
X1173111Y193848D01*
X1170048Y194333D01*
G37*
%LPD*%
%LPC*%
G36*
X792999Y667999D02*
X792999Y667999D01*
X792999Y701257D01*
X794835Y700966D01*
X801123Y698923D01*
X807013Y695922D01*
X812361Y692036D01*
X817036Y687361D01*
X820922Y682013D01*
X823923Y676123D01*
X825966Y669835D01*
X826257Y667999D01*
X792999Y667999D01*
G37*
%LPD*%
%LPC*%
G36*
X743743Y667999D02*
X743743Y667999D01*
X744033Y669835D01*
X746077Y676123D01*
X749078Y682013D01*
X752964Y687361D01*
X757638Y692036D01*
X762987Y695922D01*
X768877Y698923D01*
X775165Y700966D01*
X777000Y701257D01*
X777000Y667999D01*
X743743Y667999D01*
G37*
%LPD*%
%LPC*%
G36*
X792999Y652000D02*
X792999Y652000D01*
X826257Y652000D01*
X825966Y650165D01*
X823923Y643877D01*
X820922Y637987D01*
X817036Y632638D01*
X812361Y627964D01*
X807013Y624078D01*
X801123Y621077D01*
X794835Y619033D01*
X792999Y618743D01*
X792999Y652000D01*
G37*
%LPD*%
%LPC*%
G36*
X775165Y619033D02*
X775165Y619033D01*
X768877Y621077D01*
X762987Y624078D01*
X757638Y627964D01*
X752964Y632638D01*
X749078Y637987D01*
X746077Y643877D01*
X744033Y650165D01*
X743743Y652000D01*
X777000Y652000D01*
X777000Y618743D01*
X775165Y619033D01*
G37*
%LPD*%
D10*
X624213Y960000D03*
D11*
X525787Y960000D03*
D10*
X500000Y650787D03*
D11*
X500000Y749213D03*
D10*
X1335000Y1059213D03*
D11*
X1335000Y960787D03*
D10*
X1180000Y334213D03*
D11*
X1180000Y235787D03*
D10*
X1200000Y1319213D03*
D11*
X1200000Y1220787D03*
D10*
X1300000Y824213D03*
D11*
X1300000Y725787D03*
D12*
X1355000Y525000D02*
X1415000Y525000D01*
X1415000Y425000D02*
X1355000Y425000D01*
D13*
X338740Y903819D03*
X338740Y1006181D03*
D14*
X910000Y225000D03*
X910000Y325000D03*
X1225000Y495000D03*
X1225000Y595000D03*
D15*
X785000Y960000D03*
X785000Y860000D03*
X1085000Y860000D03*
X1085000Y960000D03*
X785000Y760000D03*
X785000Y660000D03*
X1085000Y760000D03*
X1085000Y660000D03*
D16*
X495000Y369409D03*
D14*
X595000Y369409D03*
X695000Y369409D03*
D16*
X930000Y1310591D03*
D14*
X830000Y1310591D03*
X730000Y1310591D03*
D17*
X910000Y585000D02*
X910000Y325000D01*
X910000Y585000D02*
X1085000Y760000D01*
X338740Y903819D02*
X338740Y525669D01*
X495000Y369409D01*
X495000Y241409D01*
X893591Y241409D02*
X910000Y225000D01*
X893591Y241409D02*
X495000Y241409D01*
X500000Y464409D02*
X500000Y650787D01*
X500000Y464409D02*
X595000Y369409D01*
X500000Y749213D02*
X510787Y760000D01*
X785000Y760000D01*
X1085000Y860000D02*
X1135787Y860000D01*
X1335000Y1059213D01*
X785000Y860000D02*
X685000Y960000D01*
X624213Y960000D01*
X938622Y1319213D02*
X1200000Y1319213D01*
X930000Y1310591D02*
X830000Y1310591D01*
X930000Y1310591D02*
X938622Y1319213D01*
X730000Y1015000D02*
X785000Y960000D01*
X730000Y1015000D02*
X730000Y1310591D01*
X1200000Y1220787D02*
X1200000Y1075000D01*
X1085000Y960000D01*
X1300000Y824213D02*
X1135787Y660000D01*
X1085000Y660000D01*
X1150000Y595000D02*
X1225000Y595000D01*
X1150000Y595000D02*
X1085000Y660000D01*
X1300000Y725787D02*
X1385000Y640787D01*
X1385000Y525000D01*
X1225000Y495000D02*
X1180000Y450000D01*
X1180000Y334213D01*
M02*
