G04 EAGLE Gerber X2 export*
%TF.Part,Single*%
%TF.FileFunction,Soldermask,Top*%
%TF.FilePolarity,Positive*%
%TF.GenerationSoftware,Autodesk,EAGLE,9.6.2*%
%TF.CreationDate,2021-04-24T19:48:18Z*%
G75*
%MOIN*%
%FSLAX36Y36*%
%LPD*%
%INTop Solder Mask*%
%AMOC8*
5,1,8,0,0,1.08239X$1,22.5*%
G01*
%ADD10C,0.015874*%
%ADD11C,0.028000*%
%ADD12C,0.068000*%
%ADD13C,0.078000*%
%ADD14C,0.082000*%
%ADD15C,0.072000*%
%ADD16R,0.082000X0.082000*%


D10*
X175000Y1420000D03*
X1400000Y1440000D03*
X160000Y225000D03*
X1405000Y225000D03*
D11*
X525787Y960000D03*
X624213Y960000D03*
X500000Y749213D03*
X500000Y650787D03*
X1335000Y960787D03*
X1335000Y1059213D03*
X1180000Y235787D03*
X1180000Y334213D03*
X1200000Y1220787D03*
X1200000Y1319213D03*
X1300000Y725787D03*
X1300000Y824213D03*
D12*
X1355000Y525000D02*
X1415000Y525000D01*
X1415000Y425000D02*
X1355000Y425000D01*
D13*
X338740Y903819D03*
X338740Y1006181D03*
D14*
X910000Y225000D03*
X910000Y325000D03*
X1225000Y495000D03*
X1225000Y595000D03*
D15*
X785000Y960000D03*
X785000Y860000D03*
X1085000Y860000D03*
X1085000Y960000D03*
X785000Y760000D03*
X785000Y660000D03*
X1085000Y760000D03*
X1085000Y660000D03*
D16*
X495000Y369409D03*
D14*
X595000Y369409D03*
X695000Y369409D03*
D16*
X930000Y1310591D03*
D14*
X830000Y1310591D03*
X730000Y1310591D03*
M02*
