G04 EAGLE Gerber X2 export*
%TF.Part,Single*%
%TF.FileFunction,Copper,L1,Top,Mixed*%
%TF.FilePolarity,Positive*%
%TF.GenerationSoftware,Autodesk,EAGLE,9.6.2*%
%TF.CreationDate,2021-04-24T04:42:48Z*%
G75*
%MOIN*%
%FSLAX36Y36*%
%LPD*%
%INTop Copper Layer*%
%AMOC8*
5,1,8,0,0,1.08239X$1,22.5*%
G01*
%ADD10C,0.066000*%
%ADD11R,0.065000X0.065000*%
%ADD12C,0.065000*%
%ADD13C,0.074000*%
%ADD14P,0.071438X8X292.500000*%

G36*
X1092882Y65046D02*
X1092882Y65046D01*
X1093163Y65053D01*
X1093356Y65124D01*
X1093559Y65157D01*
X1093808Y65289D01*
X1094073Y65386D01*
X1094234Y65514D01*
X1094415Y65610D01*
X1094609Y65814D01*
X1094830Y65991D01*
X1094941Y66163D01*
X1095083Y66312D01*
X1095202Y66568D01*
X1095354Y66805D01*
X1095405Y67004D01*
X1095491Y67191D01*
X1095523Y67471D01*
X1095592Y67744D01*
X1095576Y67949D01*
X1095599Y68154D01*
X1095539Y68430D01*
X1095517Y68710D01*
X1095437Y68899D01*
X1095393Y69100D01*
X1095249Y69342D01*
X1095139Y69602D01*
X1094962Y69822D01*
X1094897Y69932D01*
X1094826Y69993D01*
X1094724Y70121D01*
X1080999Y83845D01*
X1080999Y116155D01*
X1103845Y139001D01*
X1136155Y139001D01*
X1159001Y116155D01*
X1159001Y83845D01*
X1145276Y70121D01*
X1145111Y69892D01*
X1144917Y69687D01*
X1144830Y69501D01*
X1144711Y69334D01*
X1144628Y69065D01*
X1144509Y68809D01*
X1144486Y68605D01*
X1144425Y68408D01*
X1144433Y68126D01*
X1144401Y67846D01*
X1144445Y67645D01*
X1144450Y67440D01*
X1144547Y67175D01*
X1144607Y66899D01*
X1144712Y66723D01*
X1144782Y66530D01*
X1144959Y66309D01*
X1145103Y66068D01*
X1145259Y65934D01*
X1145387Y65773D01*
X1145624Y65621D01*
X1145838Y65437D01*
X1146029Y65360D01*
X1146202Y65249D01*
X1146475Y65180D01*
X1146737Y65074D01*
X1147017Y65043D01*
X1147141Y65012D01*
X1147234Y65019D01*
X1147397Y65001D01*
X1210787Y65001D01*
X1210878Y65016D01*
X1210970Y65006D01*
X1211354Y65094D01*
X1211743Y65157D01*
X1211824Y65200D01*
X1211914Y65221D01*
X1212252Y65426D01*
X1212599Y65610D01*
X1212662Y65677D01*
X1212741Y65725D01*
X1212994Y66026D01*
X1213266Y66312D01*
X1213305Y66396D01*
X1213365Y66467D01*
X1213509Y66834D01*
X1213675Y67191D01*
X1213685Y67283D01*
X1213719Y67369D01*
X1213786Y68029D01*
X1209630Y489378D01*
X1209622Y489428D01*
X1209628Y489478D01*
X1209539Y489903D01*
X1209465Y490333D01*
X1209440Y490377D01*
X1209430Y490427D01*
X1209210Y490803D01*
X1209003Y491185D01*
X1208966Y491219D01*
X1208941Y491263D01*
X1208612Y491549D01*
X1208294Y491845D01*
X1208248Y491866D01*
X1208210Y491899D01*
X1207809Y492065D01*
X1207412Y492245D01*
X1207361Y492250D01*
X1207315Y492269D01*
X1206655Y492348D01*
X898805Y494822D01*
X898415Y494762D01*
X898021Y494725D01*
X897938Y494688D01*
X897848Y494673D01*
X897497Y494492D01*
X897136Y494331D01*
X897069Y494269D01*
X896988Y494227D01*
X896714Y493943D01*
X896422Y493676D01*
X896378Y493596D01*
X896315Y493530D01*
X896146Y493173D01*
X895955Y492827D01*
X895939Y492738D01*
X895899Y492655D01*
X895852Y492262D01*
X895782Y491874D01*
X895795Y491784D01*
X895785Y491694D01*
X895865Y491306D01*
X895922Y490916D01*
X895964Y490834D01*
X895982Y490745D01*
X896182Y490404D01*
X896361Y490052D01*
X896426Y489988D01*
X896472Y489909D01*
X896770Y489650D01*
X897052Y489373D01*
X897150Y489318D01*
X897202Y489273D01*
X897323Y489223D01*
X897633Y489052D01*
X912092Y483063D01*
X923063Y472092D01*
X929001Y457758D01*
X929001Y442242D01*
X923063Y427908D01*
X912092Y416937D01*
X897758Y410999D01*
X882242Y410999D01*
X867908Y416937D01*
X856937Y427908D01*
X850999Y442242D01*
X850999Y457758D01*
X856937Y472092D01*
X867908Y483063D01*
X882701Y489191D01*
X883016Y489386D01*
X883346Y489557D01*
X883426Y489640D01*
X883524Y489701D01*
X883761Y489987D01*
X884019Y490254D01*
X884069Y490359D01*
X884142Y490447D01*
X884275Y490793D01*
X884435Y491129D01*
X884448Y491244D01*
X884490Y491351D01*
X884506Y491722D01*
X884550Y492091D01*
X884526Y492204D01*
X884531Y492319D01*
X884428Y492676D01*
X884352Y493039D01*
X884294Y493139D01*
X884262Y493250D01*
X884050Y493555D01*
X883862Y493875D01*
X883775Y493951D01*
X883710Y494046D01*
X883412Y494268D01*
X883132Y494512D01*
X883025Y494556D01*
X882933Y494625D01*
X882580Y494740D01*
X882237Y494882D01*
X882093Y494899D01*
X882012Y494925D01*
X881881Y494924D01*
X881577Y494961D01*
X48445Y501657D01*
X48342Y501641D01*
X48238Y501651D01*
X47865Y501567D01*
X47488Y501508D01*
X47395Y501460D01*
X47294Y501437D01*
X46968Y501238D01*
X46628Y501062D01*
X46555Y500987D01*
X46467Y500933D01*
X46221Y500640D01*
X45955Y500365D01*
X45910Y500271D01*
X45843Y500191D01*
X45704Y499836D01*
X45539Y499490D01*
X45527Y499386D01*
X45489Y499289D01*
X45422Y498629D01*
X49587Y67971D01*
X49598Y67909D01*
X49591Y67846D01*
X49680Y67433D01*
X49753Y67016D01*
X49783Y66961D01*
X49796Y66899D01*
X50012Y66537D01*
X50214Y66164D01*
X50260Y66121D01*
X50292Y66068D01*
X50613Y65793D01*
X50923Y65504D01*
X50980Y65478D01*
X51028Y65437D01*
X51420Y65279D01*
X51805Y65104D01*
X51868Y65098D01*
X51926Y65074D01*
X52586Y65001D01*
X1092603Y65001D01*
X1092882Y65046D01*
G37*
%LPC*%
G36*
X186959Y200944D02*
X186959Y200944D01*
X161766Y207695D01*
X139178Y220735D01*
X120735Y239178D01*
X107695Y261766D01*
X100944Y286959D01*
X100944Y313041D01*
X107695Y338234D01*
X120735Y360822D01*
X139178Y379264D01*
X161766Y392305D01*
X186959Y399056D01*
X213041Y399056D01*
X238234Y392305D01*
X260822Y379264D01*
X279264Y360822D01*
X292305Y338234D01*
X299056Y313041D01*
X299056Y286959D01*
X292305Y261766D01*
X279264Y239178D01*
X260822Y220735D01*
X238234Y207695D01*
X213041Y200944D01*
X186959Y200944D01*
G37*
%LPD*%
%LPC*%
G36*
X651260Y246062D02*
X651260Y246062D01*
X635111Y252751D01*
X622751Y265111D01*
X616062Y281260D01*
X616062Y298740D01*
X622751Y314889D01*
X635111Y327249D01*
X651260Y333938D01*
X668740Y333938D01*
X684889Y327249D01*
X697249Y314889D01*
X703938Y298740D01*
X703938Y281260D01*
X697249Y265111D01*
X684889Y252751D01*
X668740Y246062D01*
X651260Y246062D01*
G37*
%LPD*%
%LPC*%
G36*
X865014Y210712D02*
X865014Y210712D01*
X861499Y214227D01*
X861499Y284198D01*
X865014Y287713D01*
X934985Y287713D01*
X938501Y284198D01*
X938501Y214227D01*
X934985Y210712D01*
X865014Y210712D01*
G37*
%LPD*%
%LPC*%
G36*
X1096446Y396999D02*
X1096446Y396999D01*
X1080642Y403546D01*
X1068546Y415642D01*
X1061999Y431446D01*
X1061999Y448554D01*
X1068546Y464358D01*
X1080642Y476454D01*
X1096446Y483001D01*
X1113554Y483001D01*
X1129358Y476454D01*
X1141454Y464358D01*
X1148001Y448554D01*
X1148001Y431446D01*
X1141454Y415642D01*
X1129358Y403546D01*
X1113554Y396999D01*
X1096446Y396999D01*
G37*
%LPD*%
%LPC*%
G36*
X1096446Y296999D02*
X1096446Y296999D01*
X1080642Y303546D01*
X1068546Y315642D01*
X1061999Y331446D01*
X1061999Y348554D01*
X1068546Y364358D01*
X1080642Y376454D01*
X1096446Y383001D01*
X1113554Y383001D01*
X1129358Y376454D01*
X1141454Y364358D01*
X1148001Y348554D01*
X1148001Y331446D01*
X1141454Y315642D01*
X1129358Y303546D01*
X1113554Y296999D01*
X1096446Y296999D01*
G37*
%LPD*%
%LPC*%
G36*
X1103845Y160999D02*
X1103845Y160999D01*
X1080999Y183845D01*
X1080999Y216155D01*
X1103845Y239001D01*
X1136155Y239001D01*
X1159001Y216155D01*
X1159001Y183845D01*
X1136155Y160999D01*
X1103845Y160999D01*
G37*
%LPD*%
%LPC*%
G36*
X482242Y410999D02*
X482242Y410999D01*
X467908Y416937D01*
X456937Y427908D01*
X450999Y442242D01*
X450999Y457758D01*
X456937Y472092D01*
X467908Y483063D01*
X482242Y489001D01*
X497758Y489001D01*
X512092Y483063D01*
X523063Y472092D01*
X529001Y457758D01*
X529001Y442242D01*
X523063Y427908D01*
X512092Y416937D01*
X497758Y410999D01*
X482242Y410999D01*
G37*
%LPD*%
%LPC*%
G36*
X362321Y320054D02*
X362321Y320054D01*
X347987Y325992D01*
X337015Y336963D01*
X331078Y351297D01*
X331078Y366813D01*
X337015Y381147D01*
X347987Y392118D01*
X362321Y398056D01*
X377837Y398056D01*
X392171Y392118D01*
X403142Y381147D01*
X409079Y366813D01*
X409079Y351297D01*
X403142Y336963D01*
X392171Y325992D01*
X377837Y320054D01*
X362321Y320054D01*
G37*
%LPD*%
%LPC*%
G36*
X362321Y201944D02*
X362321Y201944D01*
X347987Y207882D01*
X337015Y218853D01*
X331078Y233187D01*
X331078Y248703D01*
X337015Y263037D01*
X347987Y274008D01*
X362321Y279945D01*
X377837Y279945D01*
X392171Y274008D01*
X403142Y263037D01*
X409079Y248703D01*
X409079Y233187D01*
X403142Y218853D01*
X392171Y207882D01*
X377837Y201944D01*
X362321Y201944D01*
G37*
%LPD*%
%LPC*%
G36*
X892342Y112287D02*
X892342Y112287D01*
X878191Y118148D01*
X867361Y128979D01*
X861499Y143129D01*
X861499Y158446D01*
X867361Y172596D01*
X878191Y183427D01*
X892342Y189288D01*
X907658Y189288D01*
X921809Y183427D01*
X932639Y172596D01*
X938501Y158446D01*
X938501Y143129D01*
X932639Y128979D01*
X921809Y118148D01*
X907658Y112287D01*
X892342Y112287D01*
G37*
%LPD*%
D10*
X490000Y450000D03*
X890000Y450000D03*
X370079Y240945D03*
X370079Y359055D03*
D11*
X900000Y249213D03*
D12*
X900000Y150787D03*
D13*
X1105000Y340000D03*
X1105000Y440000D03*
D14*
X1120000Y200000D03*
X1120000Y100000D03*
M02*
