G04 EAGLE Gerber X2 export*
%TF.Part,Single*%
%TF.FileFunction,Profile,NP*%
%TF.FilePolarity,Positive*%
%TF.GenerationSoftware,Autodesk,EAGLE,9.6.2*%
%TF.CreationDate,2021-04-24T04:42:48Z*%
G75*
%MOIN*%
%FSLAX36Y36*%
%LPD*%
%INBoard Outline*%
%AMOC8*
5,1,8,0,0,1.08239X$1,22.5*%
G01*
%ADD10C,0.000000*%
%ADD11C,0.010000*%


D10*
X10000Y25000D02*
X1254213Y25000D01*
X1249213Y532008D01*
X5000Y542008D01*
X10000Y25000D01*
X656063Y290000D02*
X656065Y290125D01*
X656071Y290250D01*
X656081Y290374D01*
X656095Y290498D01*
X656112Y290622D01*
X656134Y290745D01*
X656160Y290867D01*
X656189Y290989D01*
X656222Y291109D01*
X656260Y291228D01*
X656300Y291347D01*
X656345Y291463D01*
X656393Y291578D01*
X656445Y291692D01*
X656501Y291804D01*
X656560Y291914D01*
X656622Y292022D01*
X656688Y292129D01*
X656757Y292233D01*
X656830Y292334D01*
X656905Y292434D01*
X656984Y292531D01*
X657066Y292625D01*
X657151Y292717D01*
X657238Y292806D01*
X657329Y292892D01*
X657422Y292975D01*
X657518Y293056D01*
X657616Y293133D01*
X657716Y293207D01*
X657819Y293278D01*
X657924Y293345D01*
X658032Y293410D01*
X658141Y293470D01*
X658252Y293528D01*
X658365Y293581D01*
X658479Y293631D01*
X658595Y293678D01*
X658712Y293720D01*
X658831Y293759D01*
X658951Y293795D01*
X659072Y293826D01*
X659194Y293854D01*
X659316Y293877D01*
X659440Y293897D01*
X659564Y293913D01*
X659688Y293925D01*
X659813Y293933D01*
X659938Y293937D01*
X660062Y293937D01*
X660187Y293933D01*
X660312Y293925D01*
X660436Y293913D01*
X660560Y293897D01*
X660684Y293877D01*
X660806Y293854D01*
X660928Y293826D01*
X661049Y293795D01*
X661169Y293759D01*
X661288Y293720D01*
X661405Y293678D01*
X661521Y293631D01*
X661635Y293581D01*
X661748Y293528D01*
X661859Y293470D01*
X661969Y293410D01*
X662076Y293345D01*
X662181Y293278D01*
X662284Y293207D01*
X662384Y293133D01*
X662482Y293056D01*
X662578Y292975D01*
X662671Y292892D01*
X662762Y292806D01*
X662849Y292717D01*
X662934Y292625D01*
X663016Y292531D01*
X663095Y292434D01*
X663170Y292334D01*
X663243Y292233D01*
X663312Y292129D01*
X663378Y292022D01*
X663440Y291914D01*
X663499Y291804D01*
X663555Y291692D01*
X663607Y291578D01*
X663655Y291463D01*
X663700Y291347D01*
X663740Y291228D01*
X663778Y291109D01*
X663811Y290989D01*
X663840Y290867D01*
X663866Y290745D01*
X663888Y290622D01*
X663905Y290498D01*
X663919Y290374D01*
X663929Y290250D01*
X663935Y290125D01*
X663937Y290000D01*
X663935Y289875D01*
X663929Y289750D01*
X663919Y289626D01*
X663905Y289502D01*
X663888Y289378D01*
X663866Y289255D01*
X663840Y289133D01*
X663811Y289011D01*
X663778Y288891D01*
X663740Y288772D01*
X663700Y288653D01*
X663655Y288537D01*
X663607Y288422D01*
X663555Y288308D01*
X663499Y288196D01*
X663440Y288086D01*
X663378Y287978D01*
X663312Y287871D01*
X663243Y287767D01*
X663170Y287666D01*
X663095Y287566D01*
X663016Y287469D01*
X662934Y287375D01*
X662849Y287283D01*
X662762Y287194D01*
X662671Y287108D01*
X662578Y287025D01*
X662482Y286944D01*
X662384Y286867D01*
X662284Y286793D01*
X662181Y286722D01*
X662076Y286655D01*
X661968Y286590D01*
X661859Y286530D01*
X661748Y286472D01*
X661635Y286419D01*
X661521Y286369D01*
X661405Y286322D01*
X661288Y286280D01*
X661169Y286241D01*
X661049Y286205D01*
X660928Y286174D01*
X660806Y286146D01*
X660684Y286123D01*
X660560Y286103D01*
X660436Y286087D01*
X660312Y286075D01*
X660187Y286067D01*
X660062Y286063D01*
X659938Y286063D01*
X659813Y286067D01*
X659688Y286075D01*
X659564Y286087D01*
X659440Y286103D01*
X659316Y286123D01*
X659194Y286146D01*
X659072Y286174D01*
X658951Y286205D01*
X658831Y286241D01*
X658712Y286280D01*
X658595Y286322D01*
X658479Y286369D01*
X658365Y286419D01*
X658252Y286472D01*
X658141Y286530D01*
X658031Y286590D01*
X657924Y286655D01*
X657819Y286722D01*
X657716Y286793D01*
X657616Y286867D01*
X657518Y286944D01*
X657422Y287025D01*
X657329Y287108D01*
X657238Y287194D01*
X657151Y287283D01*
X657066Y287375D01*
X656984Y287469D01*
X656905Y287566D01*
X656830Y287666D01*
X656757Y287767D01*
X656688Y287871D01*
X656622Y287978D01*
X656560Y288086D01*
X656501Y288196D01*
X656445Y288308D01*
X656393Y288422D01*
X656345Y288537D01*
X656300Y288653D01*
X656260Y288772D01*
X656222Y288891D01*
X656189Y289011D01*
X656160Y289133D01*
X656134Y289255D01*
X656112Y289378D01*
X656095Y289502D01*
X656081Y289626D01*
X656071Y289750D01*
X656065Y289875D01*
X656063Y290000D01*
X140945Y300000D02*
X140963Y301449D01*
X141016Y302898D01*
X141105Y304344D01*
X141229Y305788D01*
X141389Y307229D01*
X141584Y308665D01*
X141814Y310096D01*
X142080Y311521D01*
X142380Y312939D01*
X142715Y314349D01*
X143084Y315751D01*
X143488Y317143D01*
X143926Y318524D01*
X144397Y319895D01*
X144902Y321254D01*
X145440Y322599D01*
X146011Y323932D01*
X146615Y325249D01*
X147251Y326552D01*
X147918Y327838D01*
X148617Y329108D01*
X149347Y330360D01*
X150107Y331594D01*
X150898Y332809D01*
X151718Y334004D01*
X152567Y335179D01*
X153444Y336333D01*
X154350Y337464D01*
X155283Y338573D01*
X156243Y339659D01*
X157230Y340721D01*
X158242Y341758D01*
X159279Y342770D01*
X160341Y343757D01*
X161427Y344717D01*
X162536Y345650D01*
X163667Y346556D01*
X164821Y347433D01*
X165996Y348282D01*
X167191Y349102D01*
X168406Y349893D01*
X169640Y350653D01*
X170892Y351383D01*
X172162Y352082D01*
X173448Y352749D01*
X174751Y353385D01*
X176068Y353989D01*
X177401Y354560D01*
X178746Y355098D01*
X180105Y355603D01*
X181476Y356074D01*
X182857Y356512D01*
X184249Y356916D01*
X185651Y357285D01*
X187061Y357620D01*
X188479Y357920D01*
X189904Y358186D01*
X191335Y358416D01*
X192771Y358611D01*
X194212Y358771D01*
X195656Y358895D01*
X197102Y358984D01*
X198551Y359037D01*
X200000Y359055D01*
X201449Y359037D01*
X202898Y358984D01*
X204344Y358895D01*
X205788Y358771D01*
X207229Y358611D01*
X208665Y358416D01*
X210096Y358186D01*
X211521Y357920D01*
X212939Y357620D01*
X214349Y357285D01*
X215751Y356916D01*
X217143Y356512D01*
X218524Y356074D01*
X219895Y355603D01*
X221254Y355098D01*
X222599Y354560D01*
X223932Y353989D01*
X225249Y353385D01*
X226552Y352749D01*
X227838Y352082D01*
X229108Y351383D01*
X230360Y350653D01*
X231594Y349893D01*
X232809Y349102D01*
X234004Y348282D01*
X235179Y347433D01*
X236333Y346556D01*
X237464Y345650D01*
X238573Y344717D01*
X239659Y343757D01*
X240721Y342770D01*
X241758Y341758D01*
X242770Y340721D01*
X243757Y339659D01*
X244717Y338573D01*
X245650Y337464D01*
X246556Y336333D01*
X247433Y335179D01*
X248282Y334004D01*
X249102Y332809D01*
X249893Y331594D01*
X250653Y330360D01*
X251383Y329108D01*
X252082Y327838D01*
X252749Y326552D01*
X253385Y325249D01*
X253989Y323932D01*
X254560Y322599D01*
X255098Y321254D01*
X255603Y319895D01*
X256074Y318524D01*
X256512Y317143D01*
X256916Y315751D01*
X257285Y314349D01*
X257620Y312939D01*
X257920Y311521D01*
X258186Y310096D01*
X258416Y308665D01*
X258611Y307229D01*
X258771Y305788D01*
X258895Y304344D01*
X258984Y302898D01*
X259037Y301449D01*
X259055Y300000D01*
X259037Y298551D01*
X258984Y297102D01*
X258895Y295656D01*
X258771Y294212D01*
X258611Y292771D01*
X258416Y291335D01*
X258186Y289904D01*
X257920Y288479D01*
X257620Y287061D01*
X257285Y285651D01*
X256916Y284249D01*
X256512Y282857D01*
X256074Y281476D01*
X255603Y280105D01*
X255098Y278746D01*
X254560Y277401D01*
X253989Y276068D01*
X253385Y274751D01*
X252749Y273448D01*
X252082Y272162D01*
X251383Y270892D01*
X250653Y269640D01*
X249893Y268406D01*
X249102Y267191D01*
X248282Y265996D01*
X247433Y264821D01*
X246556Y263667D01*
X245650Y262536D01*
X244717Y261427D01*
X243757Y260341D01*
X242770Y259279D01*
X241758Y258242D01*
X240721Y257230D01*
X239659Y256243D01*
X238573Y255283D01*
X237464Y254350D01*
X236333Y253444D01*
X235179Y252567D01*
X234004Y251718D01*
X232809Y250898D01*
X231594Y250107D01*
X230360Y249347D01*
X229108Y248617D01*
X227838Y247918D01*
X226552Y247251D01*
X225249Y246615D01*
X223932Y246011D01*
X222599Y245440D01*
X221254Y244902D01*
X219895Y244397D01*
X218524Y243926D01*
X217143Y243488D01*
X215751Y243084D01*
X214349Y242715D01*
X212939Y242380D01*
X211521Y242080D01*
X210096Y241814D01*
X208665Y241584D01*
X207229Y241389D01*
X205788Y241229D01*
X204344Y241105D01*
X202898Y241016D01*
X201449Y240963D01*
X200000Y240945D01*
X198551Y240963D01*
X197102Y241016D01*
X195656Y241105D01*
X194212Y241229D01*
X192771Y241389D01*
X191335Y241584D01*
X189904Y241814D01*
X188479Y242080D01*
X187061Y242380D01*
X185651Y242715D01*
X184249Y243084D01*
X182857Y243488D01*
X181476Y243926D01*
X180105Y244397D01*
X178746Y244902D01*
X177401Y245440D01*
X176068Y246011D01*
X174751Y246615D01*
X173448Y247251D01*
X172162Y247918D01*
X170892Y248617D01*
X169640Y249347D01*
X168406Y250107D01*
X167191Y250898D01*
X165996Y251718D01*
X164821Y252567D01*
X163667Y253444D01*
X162536Y254350D01*
X161427Y255283D01*
X160341Y256243D01*
X159279Y257230D01*
X158242Y258242D01*
X157230Y259279D01*
X156243Y260341D01*
X155283Y261427D01*
X154350Y262536D01*
X153444Y263667D01*
X152567Y264821D01*
X151718Y265996D01*
X150898Y267191D01*
X150107Y268406D01*
X149347Y269640D01*
X148617Y270892D01*
X147918Y272162D01*
X147251Y273448D01*
X146615Y274751D01*
X146011Y276068D01*
X145440Y277401D01*
X144902Y278746D01*
X144397Y280105D01*
X143926Y281476D01*
X143488Y282857D01*
X143084Y284249D01*
X142715Y285651D01*
X142380Y287061D01*
X142080Y288479D01*
X141814Y289904D01*
X141584Y291335D01*
X141389Y292771D01*
X141229Y294212D01*
X141105Y295656D01*
X141016Y297102D01*
X140963Y298551D01*
X140945Y300000D01*
D11*
X5000Y542008D02*
X10000Y25000D01*
X1254213Y25000D01*
X1249213Y532008D01*
X5000Y542008D01*
X663937Y289482D02*
X663669Y288480D01*
X663150Y287583D01*
X662417Y286850D01*
X661520Y286331D01*
X660518Y286063D01*
X659482Y286063D01*
X658480Y286331D01*
X657583Y286850D01*
X656850Y287583D01*
X656331Y288480D01*
X656063Y289482D01*
X656063Y290518D01*
X656331Y291520D01*
X656850Y292417D01*
X657583Y293150D01*
X658480Y293669D01*
X659482Y293937D01*
X660518Y293937D01*
X661520Y293669D01*
X662417Y293150D01*
X663150Y292417D01*
X663669Y291520D01*
X663937Y290518D01*
X663937Y289482D01*
X197891Y240945D02*
X193683Y241246D01*
X189508Y241846D01*
X185386Y242743D01*
X181339Y243931D01*
X177386Y245405D01*
X173549Y247158D01*
X169847Y249179D01*
X166298Y251460D01*
X162921Y253988D01*
X159733Y256750D01*
X156750Y259733D01*
X153988Y262921D01*
X151460Y266298D01*
X149179Y269847D01*
X147158Y273549D01*
X145405Y277386D01*
X143931Y281339D01*
X142743Y285386D01*
X141846Y289508D01*
X141246Y293683D01*
X140945Y297891D01*
X140945Y302109D01*
X141246Y306317D01*
X141846Y310492D01*
X142743Y314614D01*
X143931Y318661D01*
X145405Y322614D01*
X147158Y326451D01*
X149179Y330153D01*
X151460Y333702D01*
X153988Y337079D01*
X156750Y340267D01*
X159733Y343250D01*
X162921Y346012D01*
X166298Y348540D01*
X169847Y350821D01*
X173549Y352842D01*
X177386Y354595D01*
X181339Y356069D01*
X185386Y357257D01*
X189508Y358154D01*
X193683Y358754D01*
X197891Y359055D01*
X202109Y359055D01*
X206317Y358754D01*
X210492Y358154D01*
X214614Y357257D01*
X218661Y356069D01*
X222614Y354595D01*
X226451Y352842D01*
X230153Y350821D01*
X233702Y348540D01*
X237079Y346012D01*
X240267Y343250D01*
X243250Y340267D01*
X246012Y337079D01*
X248540Y333702D01*
X250821Y330153D01*
X252842Y326451D01*
X254595Y322614D01*
X256069Y318661D01*
X257257Y314614D01*
X258154Y310492D01*
X258754Y306317D01*
X259055Y302109D01*
X259055Y297891D01*
X258754Y293683D01*
X258154Y289508D01*
X257257Y285386D01*
X256069Y281339D01*
X254595Y277386D01*
X252842Y273549D01*
X250821Y269847D01*
X248540Y266298D01*
X246012Y262921D01*
X243250Y259733D01*
X240267Y256750D01*
X237079Y253988D01*
X233702Y251460D01*
X230153Y249179D01*
X226451Y247158D01*
X222614Y245405D01*
X218661Y243931D01*
X214614Y242743D01*
X210492Y241846D01*
X206317Y241246D01*
X202109Y240945D01*
X197891Y240945D01*
M02*
