G04 EAGLE Gerber X2 export*
%TF.Part,Single*%
%TF.FileFunction,Legend,Bot,1*%
%TF.FilePolarity,Positive*%
%TF.GenerationSoftware,Autodesk,EAGLE,9.6.2*%
%TF.CreationDate,2021-04-14T19:10:52Z*%
G75*
%MOIN*%
%FSLAX36Y36*%
%LPD*%
%INBottom Silkscreen*%
%AMOC8*
5,1,8,0,0,1.08239X$1,22.5*%
G01*
%ADD10C,0.006000*%
%ADD11C,0.004000*%


D10*
X1386614Y964567D02*
X1329921Y964567D01*
X1329921Y901575D02*
X1386614Y901575D01*
D11*
X1417291Y986252D02*
X1417291Y1032252D01*
X1396847Y1032252D01*
X1396847Y1011807D02*
X1417291Y1011807D01*
X1379880Y1022030D02*
X1367103Y1032252D01*
X1367103Y986252D01*
X1379880Y986252D02*
X1354325Y986252D01*
X1404514Y878709D02*
X1417291Y868486D01*
X1404514Y878709D02*
X1404514Y832709D01*
X1417291Y832709D02*
X1391736Y832709D01*
X1346736Y867209D02*
X1346739Y867487D01*
X1346749Y867765D01*
X1346766Y868042D01*
X1346790Y868319D01*
X1346820Y868595D01*
X1346857Y868871D01*
X1346900Y869145D01*
X1346950Y869418D01*
X1347007Y869691D01*
X1347070Y869961D01*
X1347140Y870230D01*
X1347216Y870497D01*
X1347299Y870763D01*
X1347388Y871026D01*
X1347483Y871287D01*
X1347585Y871546D01*
X1347693Y871802D01*
X1347807Y872055D01*
X1347927Y872306D01*
X1348053Y872553D01*
X1348185Y872798D01*
X1348323Y873039D01*
X1348467Y873277D01*
X1348617Y873511D01*
X1348772Y873742D01*
X1348932Y873969D01*
X1349098Y874191D01*
X1349270Y874410D01*
X1349446Y874625D01*
X1349628Y874835D01*
X1349815Y875041D01*
X1350007Y875242D01*
X1350203Y875438D01*
X1350404Y875630D01*
X1350610Y875817D01*
X1350820Y875999D01*
X1351035Y876175D01*
X1351254Y876347D01*
X1351476Y876513D01*
X1351703Y876673D01*
X1351934Y876828D01*
X1352168Y876978D01*
X1352406Y877122D01*
X1352647Y877260D01*
X1352892Y877392D01*
X1353139Y877518D01*
X1353390Y877638D01*
X1353643Y877752D01*
X1353899Y877860D01*
X1354158Y877962D01*
X1354419Y878057D01*
X1354682Y878146D01*
X1354948Y878229D01*
X1355215Y878305D01*
X1355484Y878375D01*
X1355754Y878438D01*
X1356027Y878495D01*
X1356300Y878545D01*
X1356574Y878588D01*
X1356850Y878625D01*
X1357126Y878655D01*
X1357403Y878679D01*
X1357680Y878696D01*
X1357958Y878706D01*
X1358236Y878709D01*
X1358593Y878705D01*
X1358950Y878692D01*
X1359307Y878670D01*
X1359663Y878640D01*
X1360018Y878601D01*
X1360372Y878554D01*
X1360725Y878498D01*
X1361077Y878433D01*
X1361426Y878360D01*
X1361774Y878279D01*
X1362120Y878189D01*
X1362464Y878091D01*
X1362805Y877985D01*
X1363143Y877870D01*
X1363479Y877747D01*
X1363811Y877617D01*
X1364141Y877478D01*
X1364466Y877331D01*
X1364788Y877176D01*
X1365107Y877014D01*
X1365421Y876844D01*
X1365731Y876667D01*
X1366037Y876482D01*
X1366338Y876289D01*
X1366634Y876090D01*
X1366926Y875883D01*
X1367212Y875670D01*
X1367493Y875449D01*
X1367769Y875222D01*
X1368039Y874988D01*
X1368304Y874748D01*
X1368562Y874501D01*
X1368815Y874248D01*
X1369061Y873989D01*
X1369301Y873725D01*
X1369534Y873454D01*
X1369761Y873178D01*
X1369981Y872897D01*
X1370195Y872610D01*
X1370401Y872318D01*
X1370600Y872022D01*
X1370792Y871720D01*
X1370977Y871415D01*
X1371154Y871104D01*
X1371324Y870790D01*
X1371485Y870471D01*
X1371640Y870149D01*
X1371786Y869823D01*
X1371924Y869494D01*
X1372055Y869161D01*
X1372177Y868825D01*
X1372291Y868487D01*
X1350569Y858265D02*
X1350352Y858476D01*
X1350141Y858693D01*
X1349934Y858915D01*
X1349734Y859142D01*
X1349539Y859374D01*
X1349349Y859611D01*
X1349166Y859852D01*
X1348988Y860098D01*
X1348817Y860348D01*
X1348652Y860602D01*
X1348493Y860860D01*
X1348340Y861122D01*
X1348194Y861387D01*
X1348054Y861657D01*
X1347921Y861929D01*
X1347795Y862205D01*
X1347676Y862483D01*
X1347563Y862765D01*
X1347458Y863049D01*
X1347359Y863335D01*
X1347268Y863624D01*
X1347183Y863915D01*
X1347106Y864208D01*
X1347036Y864503D01*
X1346973Y864800D01*
X1346918Y865098D01*
X1346870Y865397D01*
X1346829Y865697D01*
X1346795Y865999D01*
X1346769Y866301D01*
X1346751Y866603D01*
X1346740Y866906D01*
X1346736Y867209D01*
X1350569Y858264D02*
X1372291Y832709D01*
X1346736Y832709D01*
X1327291Y855709D02*
X1327280Y856614D01*
X1327248Y857518D01*
X1327194Y858422D01*
X1327118Y859323D01*
X1327021Y860223D01*
X1326903Y861120D01*
X1326763Y862014D01*
X1326602Y862905D01*
X1326419Y863791D01*
X1326216Y864673D01*
X1325991Y865550D01*
X1325746Y866421D01*
X1325480Y867286D01*
X1325193Y868144D01*
X1324886Y868995D01*
X1324559Y869839D01*
X1324212Y870675D01*
X1323845Y871502D01*
X1323458Y872320D01*
X1323459Y872320D02*
X1323382Y872536D01*
X1323299Y872751D01*
X1323211Y872964D01*
X1323119Y873174D01*
X1323021Y873382D01*
X1322918Y873588D01*
X1322810Y873791D01*
X1322697Y873992D01*
X1322579Y874189D01*
X1322457Y874384D01*
X1322330Y874576D01*
X1322198Y874764D01*
X1322062Y874949D01*
X1321921Y875131D01*
X1321776Y875310D01*
X1321626Y875484D01*
X1321473Y875656D01*
X1321315Y875823D01*
X1321153Y875986D01*
X1320987Y876146D01*
X1320818Y876301D01*
X1320645Y876452D01*
X1320468Y876599D01*
X1320287Y876742D01*
X1320103Y876880D01*
X1319916Y877014D01*
X1319726Y877143D01*
X1319532Y877267D01*
X1319336Y877387D01*
X1319137Y877502D01*
X1318935Y877612D01*
X1318730Y877717D01*
X1318523Y877817D01*
X1318314Y877912D01*
X1318102Y878002D01*
X1317888Y878087D01*
X1317672Y878166D01*
X1317454Y878240D01*
X1317235Y878309D01*
X1317014Y878373D01*
X1316791Y878431D01*
X1316568Y878483D01*
X1316342Y878531D01*
X1316116Y878572D01*
X1315889Y878608D01*
X1315661Y878639D01*
X1315433Y878664D01*
X1315203Y878684D01*
X1314974Y878698D01*
X1314744Y878706D01*
X1314514Y878709D01*
X1314284Y878706D01*
X1314054Y878698D01*
X1313825Y878684D01*
X1313595Y878664D01*
X1313367Y878639D01*
X1313139Y878608D01*
X1312912Y878572D01*
X1312686Y878531D01*
X1312461Y878483D01*
X1312237Y878431D01*
X1312014Y878373D01*
X1311793Y878309D01*
X1311574Y878240D01*
X1311356Y878166D01*
X1311140Y878087D01*
X1310926Y878002D01*
X1310714Y877912D01*
X1310505Y877817D01*
X1310298Y877717D01*
X1310093Y877612D01*
X1309891Y877502D01*
X1309692Y877387D01*
X1309496Y877268D01*
X1309302Y877143D01*
X1309112Y877014D01*
X1308925Y876880D01*
X1308741Y876742D01*
X1308560Y876600D01*
X1308384Y876453D01*
X1308210Y876301D01*
X1308041Y876146D01*
X1307875Y875986D01*
X1307713Y875823D01*
X1307555Y875656D01*
X1307402Y875485D01*
X1307252Y875310D01*
X1307107Y875131D01*
X1306966Y874949D01*
X1306830Y874764D01*
X1306698Y874576D01*
X1306571Y874384D01*
X1306449Y874189D01*
X1306331Y873992D01*
X1306218Y873791D01*
X1306110Y873588D01*
X1306007Y873383D01*
X1305909Y873174D01*
X1305817Y872964D01*
X1305729Y872751D01*
X1305646Y872537D01*
X1305569Y872320D01*
X1305182Y871502D01*
X1304815Y870675D01*
X1304468Y869839D01*
X1304141Y868995D01*
X1303834Y868144D01*
X1303547Y867286D01*
X1303281Y866421D01*
X1303036Y865550D01*
X1302811Y864673D01*
X1302608Y863791D01*
X1302425Y862905D01*
X1302264Y862014D01*
X1302124Y861120D01*
X1302006Y860223D01*
X1301909Y859323D01*
X1301833Y858422D01*
X1301779Y857518D01*
X1301747Y856614D01*
X1301736Y855709D01*
X1327291Y855709D02*
X1327280Y854804D01*
X1327248Y853900D01*
X1327194Y852996D01*
X1327118Y852095D01*
X1327021Y851195D01*
X1326903Y850298D01*
X1326763Y849404D01*
X1326602Y848513D01*
X1326419Y847627D01*
X1326216Y846745D01*
X1325991Y845868D01*
X1325746Y844997D01*
X1325480Y844132D01*
X1325193Y843274D01*
X1324886Y842423D01*
X1324559Y841579D01*
X1324212Y840743D01*
X1323845Y839916D01*
X1323458Y839098D01*
X1323459Y839097D02*
X1323382Y838880D01*
X1323299Y838666D01*
X1323211Y838453D01*
X1323119Y838243D01*
X1323021Y838035D01*
X1322918Y837829D01*
X1322810Y837626D01*
X1322697Y837425D01*
X1322579Y837228D01*
X1322457Y837033D01*
X1322330Y836841D01*
X1322198Y836653D01*
X1322062Y836468D01*
X1321921Y836286D01*
X1321776Y836107D01*
X1321626Y835933D01*
X1321473Y835761D01*
X1321315Y835594D01*
X1321153Y835431D01*
X1320987Y835271D01*
X1320818Y835116D01*
X1320644Y834964D01*
X1320468Y834818D01*
X1320287Y834675D01*
X1320103Y834537D01*
X1319916Y834403D01*
X1319726Y834274D01*
X1319532Y834150D01*
X1319336Y834030D01*
X1319137Y833915D01*
X1318935Y833805D01*
X1318730Y833700D01*
X1318523Y833600D01*
X1318314Y833505D01*
X1318102Y833415D01*
X1317888Y833330D01*
X1317672Y833251D01*
X1317454Y833177D01*
X1317235Y833108D01*
X1317014Y833044D01*
X1316791Y832986D01*
X1316568Y832934D01*
X1316342Y832886D01*
X1316116Y832845D01*
X1315889Y832809D01*
X1315661Y832778D01*
X1315433Y832753D01*
X1315203Y832733D01*
X1314974Y832719D01*
X1314744Y832711D01*
X1314514Y832708D01*
X1305569Y839098D02*
X1305182Y839916D01*
X1304815Y840743D01*
X1304468Y841579D01*
X1304141Y842423D01*
X1303834Y843274D01*
X1303547Y844132D01*
X1303281Y844997D01*
X1303036Y845868D01*
X1302811Y846745D01*
X1302608Y847627D01*
X1302425Y848513D01*
X1302264Y849404D01*
X1302124Y850298D01*
X1302006Y851195D01*
X1301909Y852095D01*
X1301833Y852996D01*
X1301779Y853900D01*
X1301747Y854804D01*
X1301736Y855709D01*
X1305569Y839097D02*
X1305646Y838880D01*
X1305729Y838666D01*
X1305817Y838453D01*
X1305909Y838242D01*
X1306007Y838034D01*
X1306110Y837829D01*
X1306218Y837626D01*
X1306331Y837425D01*
X1306449Y837228D01*
X1306571Y837033D01*
X1306698Y836841D01*
X1306830Y836653D01*
X1306966Y836468D01*
X1307107Y836286D01*
X1307252Y836107D01*
X1307402Y835932D01*
X1307555Y835761D01*
X1307713Y835594D01*
X1307875Y835431D01*
X1308041Y835271D01*
X1308210Y835116D01*
X1308384Y834964D01*
X1308561Y834817D01*
X1308741Y834675D01*
X1308925Y834537D01*
X1309112Y834403D01*
X1309302Y834274D01*
X1309496Y834149D01*
X1309692Y834030D01*
X1309891Y833915D01*
X1310093Y833805D01*
X1310298Y833700D01*
X1310505Y833600D01*
X1310715Y833505D01*
X1310926Y833415D01*
X1311140Y833330D01*
X1311356Y833251D01*
X1311574Y833177D01*
X1311793Y833108D01*
X1312014Y833044D01*
X1312237Y832986D01*
X1312461Y832934D01*
X1312686Y832886D01*
X1312912Y832845D01*
X1313139Y832809D01*
X1313367Y832778D01*
X1313595Y832753D01*
X1313825Y832733D01*
X1314054Y832719D01*
X1314284Y832711D01*
X1314514Y832708D01*
X1324736Y842931D02*
X1304292Y868486D01*
X1282292Y858264D02*
X1266958Y858264D01*
X1266711Y858261D01*
X1266464Y858252D01*
X1266218Y858237D01*
X1265971Y858216D01*
X1265726Y858189D01*
X1265481Y858157D01*
X1265237Y858118D01*
X1264994Y858074D01*
X1264752Y858023D01*
X1264512Y857967D01*
X1264273Y857905D01*
X1264035Y857837D01*
X1263799Y857764D01*
X1263565Y857685D01*
X1263333Y857600D01*
X1263103Y857509D01*
X1262876Y857413D01*
X1262650Y857312D01*
X1262428Y857205D01*
X1262208Y857093D01*
X1261990Y856976D01*
X1261776Y856853D01*
X1261564Y856725D01*
X1261356Y856592D01*
X1261151Y856455D01*
X1260950Y856312D01*
X1260752Y856164D01*
X1260557Y856012D01*
X1260366Y855855D01*
X1260180Y855693D01*
X1259997Y855527D01*
X1259818Y855357D01*
X1259643Y855182D01*
X1259473Y855003D01*
X1259307Y854820D01*
X1259145Y854634D01*
X1258988Y854443D01*
X1258836Y854248D01*
X1258688Y854050D01*
X1258545Y853849D01*
X1258408Y853644D01*
X1258275Y853436D01*
X1258147Y853224D01*
X1258024Y853010D01*
X1257907Y852792D01*
X1257795Y852572D01*
X1257688Y852350D01*
X1257587Y852124D01*
X1257491Y851897D01*
X1257400Y851667D01*
X1257315Y851435D01*
X1257236Y851201D01*
X1257163Y850965D01*
X1257095Y850727D01*
X1257033Y850488D01*
X1256977Y850248D01*
X1256926Y850006D01*
X1256882Y849763D01*
X1256843Y849519D01*
X1256811Y849274D01*
X1256784Y849029D01*
X1256763Y848782D01*
X1256748Y848536D01*
X1256739Y848289D01*
X1256736Y848042D01*
X1256736Y845486D01*
X1256740Y845175D01*
X1256751Y844864D01*
X1256770Y844553D01*
X1256797Y844243D01*
X1256831Y843934D01*
X1256872Y843626D01*
X1256921Y843318D01*
X1256978Y843012D01*
X1257042Y842708D01*
X1257113Y842405D01*
X1257192Y842104D01*
X1257278Y841805D01*
X1257371Y841508D01*
X1257472Y841213D01*
X1257579Y840921D01*
X1257694Y840632D01*
X1257816Y840346D01*
X1257944Y840062D01*
X1258080Y839782D01*
X1258222Y839505D01*
X1258371Y839232D01*
X1258527Y838963D01*
X1258689Y838697D01*
X1258857Y838436D01*
X1259032Y838178D01*
X1259213Y837925D01*
X1259400Y837676D01*
X1259593Y837432D01*
X1259792Y837193D01*
X1259997Y836959D01*
X1260208Y836730D01*
X1260424Y836506D01*
X1260645Y836287D01*
X1260872Y836074D01*
X1261104Y835866D01*
X1261340Y835664D01*
X1261582Y835468D01*
X1261828Y835278D01*
X1262079Y835094D01*
X1262334Y834916D01*
X1262594Y834744D01*
X1262857Y834579D01*
X1263125Y834420D01*
X1263396Y834268D01*
X1263671Y834122D01*
X1263950Y833983D01*
X1264232Y833851D01*
X1264516Y833726D01*
X1264804Y833608D01*
X1265095Y833496D01*
X1265388Y833392D01*
X1265684Y833296D01*
X1265982Y833206D01*
X1266282Y833123D01*
X1266584Y833048D01*
X1266888Y832981D01*
X1267193Y832921D01*
X1267500Y832868D01*
X1267808Y832822D01*
X1268116Y832785D01*
X1268426Y832754D01*
X1268737Y832732D01*
X1269047Y832717D01*
X1269358Y832709D01*
X1269670Y832709D01*
X1269981Y832717D01*
X1270291Y832732D01*
X1270602Y832754D01*
X1270912Y832785D01*
X1271220Y832822D01*
X1271528Y832868D01*
X1271835Y832921D01*
X1272140Y832981D01*
X1272444Y833048D01*
X1272746Y833123D01*
X1273046Y833206D01*
X1273344Y833296D01*
X1273640Y833392D01*
X1273933Y833496D01*
X1274224Y833608D01*
X1274512Y833726D01*
X1274796Y833851D01*
X1275078Y833983D01*
X1275357Y834122D01*
X1275632Y834268D01*
X1275903Y834420D01*
X1276171Y834579D01*
X1276434Y834744D01*
X1276694Y834916D01*
X1276949Y835094D01*
X1277200Y835278D01*
X1277446Y835468D01*
X1277688Y835664D01*
X1277924Y835866D01*
X1278156Y836074D01*
X1278383Y836287D01*
X1278604Y836506D01*
X1278820Y836730D01*
X1279031Y836959D01*
X1279236Y837193D01*
X1279435Y837432D01*
X1279628Y837676D01*
X1279815Y837925D01*
X1279996Y838178D01*
X1280171Y838436D01*
X1280339Y838697D01*
X1280501Y838963D01*
X1280657Y839232D01*
X1280806Y839505D01*
X1280948Y839782D01*
X1281084Y840062D01*
X1281212Y840346D01*
X1281334Y840632D01*
X1281449Y840921D01*
X1281556Y841213D01*
X1281657Y841508D01*
X1281750Y841805D01*
X1281836Y842104D01*
X1281915Y842405D01*
X1281986Y842708D01*
X1282050Y843012D01*
X1282107Y843318D01*
X1282156Y843626D01*
X1282197Y843934D01*
X1282231Y844243D01*
X1282258Y844553D01*
X1282277Y844864D01*
X1282288Y845175D01*
X1282292Y845486D01*
X1282292Y858264D01*
X1282291Y858264D02*
X1282285Y858758D01*
X1282267Y859252D01*
X1282237Y859745D01*
X1282196Y860237D01*
X1282142Y860728D01*
X1282076Y861218D01*
X1281999Y861706D01*
X1281910Y862192D01*
X1281809Y862675D01*
X1281697Y863157D01*
X1281573Y863635D01*
X1281437Y864110D01*
X1281290Y864582D01*
X1281132Y865050D01*
X1280962Y865514D01*
X1280782Y865973D01*
X1280590Y866429D01*
X1280387Y866879D01*
X1280174Y867325D01*
X1279949Y867765D01*
X1279714Y868199D01*
X1279469Y868628D01*
X1279214Y869051D01*
X1278948Y869468D01*
X1278672Y869878D01*
X1278387Y870281D01*
X1278091Y870677D01*
X1277787Y871066D01*
X1277473Y871447D01*
X1277150Y871821D01*
X1276818Y872187D01*
X1276477Y872544D01*
X1276127Y872894D01*
X1275770Y873235D01*
X1275404Y873567D01*
X1275030Y873890D01*
X1274649Y874204D01*
X1274260Y874508D01*
X1273864Y874804D01*
X1273461Y875089D01*
X1273051Y875365D01*
X1272634Y875631D01*
X1272211Y875886D01*
X1271782Y876131D01*
X1271348Y876366D01*
X1270908Y876591D01*
X1270462Y876804D01*
X1270012Y877007D01*
X1269556Y877199D01*
X1269097Y877379D01*
X1268633Y877549D01*
X1268165Y877707D01*
X1267693Y877854D01*
X1267218Y877990D01*
X1266740Y878114D01*
X1266258Y878226D01*
X1265775Y878327D01*
X1265289Y878416D01*
X1264801Y878493D01*
X1264311Y878559D01*
X1263820Y878613D01*
X1263328Y878654D01*
X1262835Y878684D01*
X1262341Y878702D01*
X1261847Y878708D01*
X1235703Y878709D02*
X1235703Y832709D01*
X1215258Y832709D01*
X1198291Y855709D02*
X1198280Y856614D01*
X1198248Y857518D01*
X1198194Y858422D01*
X1198118Y859323D01*
X1198021Y860223D01*
X1197903Y861120D01*
X1197763Y862014D01*
X1197602Y862905D01*
X1197419Y863791D01*
X1197216Y864673D01*
X1196991Y865550D01*
X1196746Y866421D01*
X1196480Y867286D01*
X1196193Y868144D01*
X1195886Y868995D01*
X1195559Y869839D01*
X1195212Y870675D01*
X1194845Y871502D01*
X1194458Y872320D01*
X1194459Y872320D02*
X1194382Y872536D01*
X1194299Y872751D01*
X1194211Y872964D01*
X1194119Y873174D01*
X1194021Y873382D01*
X1193918Y873588D01*
X1193810Y873791D01*
X1193697Y873992D01*
X1193579Y874189D01*
X1193457Y874384D01*
X1193330Y874576D01*
X1193198Y874764D01*
X1193062Y874949D01*
X1192921Y875131D01*
X1192776Y875310D01*
X1192626Y875484D01*
X1192473Y875656D01*
X1192315Y875823D01*
X1192153Y875986D01*
X1191987Y876146D01*
X1191818Y876301D01*
X1191645Y876452D01*
X1191468Y876599D01*
X1191287Y876742D01*
X1191103Y876880D01*
X1190916Y877014D01*
X1190726Y877143D01*
X1190532Y877267D01*
X1190336Y877387D01*
X1190137Y877502D01*
X1189935Y877612D01*
X1189730Y877717D01*
X1189523Y877817D01*
X1189314Y877912D01*
X1189102Y878002D01*
X1188888Y878087D01*
X1188672Y878166D01*
X1188454Y878240D01*
X1188235Y878309D01*
X1188014Y878373D01*
X1187791Y878431D01*
X1187568Y878483D01*
X1187342Y878531D01*
X1187116Y878572D01*
X1186889Y878608D01*
X1186661Y878639D01*
X1186433Y878664D01*
X1186203Y878684D01*
X1185974Y878698D01*
X1185744Y878706D01*
X1185514Y878709D01*
X1185284Y878706D01*
X1185054Y878698D01*
X1184825Y878684D01*
X1184595Y878664D01*
X1184367Y878639D01*
X1184139Y878608D01*
X1183912Y878572D01*
X1183686Y878531D01*
X1183461Y878483D01*
X1183237Y878431D01*
X1183014Y878373D01*
X1182793Y878309D01*
X1182574Y878240D01*
X1182356Y878166D01*
X1182140Y878087D01*
X1181926Y878002D01*
X1181714Y877912D01*
X1181505Y877817D01*
X1181298Y877717D01*
X1181093Y877612D01*
X1180891Y877502D01*
X1180692Y877387D01*
X1180496Y877268D01*
X1180302Y877143D01*
X1180112Y877014D01*
X1179925Y876880D01*
X1179741Y876742D01*
X1179560Y876600D01*
X1179384Y876453D01*
X1179210Y876301D01*
X1179041Y876146D01*
X1178875Y875986D01*
X1178713Y875823D01*
X1178555Y875656D01*
X1178402Y875485D01*
X1178252Y875310D01*
X1178107Y875131D01*
X1177966Y874949D01*
X1177830Y874764D01*
X1177698Y874576D01*
X1177571Y874384D01*
X1177449Y874189D01*
X1177331Y873992D01*
X1177218Y873791D01*
X1177110Y873588D01*
X1177007Y873383D01*
X1176909Y873174D01*
X1176817Y872964D01*
X1176729Y872751D01*
X1176646Y872537D01*
X1176569Y872320D01*
X1176570Y872320D02*
X1176183Y871502D01*
X1175816Y870675D01*
X1175469Y869839D01*
X1175142Y868995D01*
X1174835Y868144D01*
X1174548Y867286D01*
X1174282Y866421D01*
X1174037Y865550D01*
X1173812Y864673D01*
X1173609Y863791D01*
X1173426Y862905D01*
X1173265Y862014D01*
X1173125Y861120D01*
X1173007Y860223D01*
X1172910Y859323D01*
X1172834Y858422D01*
X1172780Y857518D01*
X1172748Y856614D01*
X1172737Y855709D01*
X1198291Y855709D02*
X1198280Y854804D01*
X1198248Y853900D01*
X1198194Y852996D01*
X1198118Y852095D01*
X1198021Y851195D01*
X1197903Y850298D01*
X1197763Y849404D01*
X1197602Y848513D01*
X1197419Y847627D01*
X1197216Y846745D01*
X1196991Y845868D01*
X1196746Y844997D01*
X1196480Y844132D01*
X1196193Y843274D01*
X1195886Y842423D01*
X1195559Y841579D01*
X1195212Y840743D01*
X1194845Y839916D01*
X1194458Y839098D01*
X1194459Y839097D02*
X1194382Y838880D01*
X1194299Y838666D01*
X1194211Y838453D01*
X1194119Y838243D01*
X1194021Y838035D01*
X1193918Y837829D01*
X1193810Y837626D01*
X1193697Y837425D01*
X1193579Y837228D01*
X1193457Y837033D01*
X1193330Y836841D01*
X1193198Y836653D01*
X1193062Y836468D01*
X1192921Y836286D01*
X1192776Y836107D01*
X1192626Y835933D01*
X1192473Y835761D01*
X1192315Y835594D01*
X1192153Y835431D01*
X1191987Y835271D01*
X1191818Y835116D01*
X1191644Y834964D01*
X1191468Y834818D01*
X1191287Y834675D01*
X1191103Y834537D01*
X1190916Y834403D01*
X1190726Y834274D01*
X1190532Y834150D01*
X1190336Y834030D01*
X1190137Y833915D01*
X1189935Y833805D01*
X1189730Y833700D01*
X1189523Y833600D01*
X1189314Y833505D01*
X1189102Y833415D01*
X1188888Y833330D01*
X1188672Y833251D01*
X1188454Y833177D01*
X1188235Y833108D01*
X1188014Y833044D01*
X1187791Y832986D01*
X1187568Y832934D01*
X1187342Y832886D01*
X1187116Y832845D01*
X1186889Y832809D01*
X1186661Y832778D01*
X1186433Y832753D01*
X1186203Y832733D01*
X1185974Y832719D01*
X1185744Y832711D01*
X1185514Y832708D01*
X1176570Y839098D02*
X1176183Y839916D01*
X1175816Y840743D01*
X1175469Y841579D01*
X1175142Y842423D01*
X1174835Y843274D01*
X1174548Y844132D01*
X1174282Y844997D01*
X1174037Y845868D01*
X1173812Y846745D01*
X1173609Y847627D01*
X1173426Y848513D01*
X1173265Y849404D01*
X1173125Y850298D01*
X1173007Y851195D01*
X1172910Y852095D01*
X1172834Y852996D01*
X1172780Y853900D01*
X1172748Y854804D01*
X1172737Y855709D01*
X1176569Y839097D02*
X1176646Y838880D01*
X1176729Y838666D01*
X1176817Y838453D01*
X1176909Y838242D01*
X1177007Y838034D01*
X1177110Y837829D01*
X1177218Y837626D01*
X1177331Y837425D01*
X1177449Y837228D01*
X1177571Y837033D01*
X1177698Y836841D01*
X1177830Y836653D01*
X1177966Y836468D01*
X1178107Y836286D01*
X1178252Y836107D01*
X1178402Y835932D01*
X1178555Y835761D01*
X1178713Y835594D01*
X1178875Y835431D01*
X1179041Y835271D01*
X1179210Y835116D01*
X1179384Y834964D01*
X1179561Y834817D01*
X1179741Y834675D01*
X1179925Y834537D01*
X1180112Y834403D01*
X1180302Y834274D01*
X1180496Y834149D01*
X1180692Y834030D01*
X1180891Y833915D01*
X1181093Y833805D01*
X1181298Y833700D01*
X1181505Y833600D01*
X1181715Y833505D01*
X1181926Y833415D01*
X1182140Y833330D01*
X1182356Y833251D01*
X1182574Y833177D01*
X1182793Y833108D01*
X1183014Y833044D01*
X1183237Y832986D01*
X1183461Y832934D01*
X1183686Y832886D01*
X1183912Y832845D01*
X1184139Y832809D01*
X1184367Y832778D01*
X1184595Y832753D01*
X1184825Y832733D01*
X1185054Y832719D01*
X1185284Y832711D01*
X1185514Y832708D01*
X1195736Y842931D02*
X1175292Y868486D01*
X1153292Y873597D02*
X1153292Y878709D01*
X1127736Y878709D01*
X1140514Y832709D01*
X1108292Y832709D02*
X1092959Y832709D01*
X1092712Y832712D01*
X1092465Y832721D01*
X1092219Y832736D01*
X1091972Y832757D01*
X1091727Y832784D01*
X1091482Y832816D01*
X1091238Y832855D01*
X1090995Y832899D01*
X1090753Y832950D01*
X1090513Y833006D01*
X1090274Y833068D01*
X1090036Y833136D01*
X1089800Y833209D01*
X1089566Y833288D01*
X1089334Y833373D01*
X1089104Y833464D01*
X1088877Y833560D01*
X1088651Y833661D01*
X1088429Y833768D01*
X1088209Y833880D01*
X1087991Y833997D01*
X1087777Y834120D01*
X1087565Y834248D01*
X1087357Y834381D01*
X1087152Y834518D01*
X1086951Y834661D01*
X1086753Y834809D01*
X1086558Y834961D01*
X1086367Y835118D01*
X1086181Y835280D01*
X1085998Y835446D01*
X1085819Y835616D01*
X1085644Y835791D01*
X1085474Y835970D01*
X1085308Y836153D01*
X1085146Y836339D01*
X1084989Y836530D01*
X1084837Y836725D01*
X1084689Y836923D01*
X1084546Y837124D01*
X1084409Y837329D01*
X1084276Y837537D01*
X1084148Y837749D01*
X1084025Y837963D01*
X1083908Y838181D01*
X1083796Y838401D01*
X1083689Y838623D01*
X1083588Y838849D01*
X1083492Y839076D01*
X1083401Y839306D01*
X1083316Y839538D01*
X1083237Y839772D01*
X1083164Y840008D01*
X1083096Y840246D01*
X1083034Y840485D01*
X1082978Y840725D01*
X1082927Y840967D01*
X1082883Y841210D01*
X1082844Y841454D01*
X1082812Y841699D01*
X1082785Y841944D01*
X1082764Y842191D01*
X1082749Y842437D01*
X1082740Y842684D01*
X1082737Y842931D01*
X1082737Y848042D01*
X1082740Y848289D01*
X1082749Y848536D01*
X1082764Y848782D01*
X1082785Y849029D01*
X1082812Y849274D01*
X1082844Y849519D01*
X1082883Y849763D01*
X1082927Y850006D01*
X1082978Y850248D01*
X1083034Y850488D01*
X1083096Y850727D01*
X1083164Y850965D01*
X1083237Y851201D01*
X1083316Y851435D01*
X1083401Y851667D01*
X1083492Y851897D01*
X1083588Y852124D01*
X1083689Y852350D01*
X1083796Y852572D01*
X1083908Y852792D01*
X1084025Y853010D01*
X1084148Y853224D01*
X1084276Y853436D01*
X1084409Y853644D01*
X1084546Y853849D01*
X1084689Y854050D01*
X1084837Y854248D01*
X1084989Y854443D01*
X1085146Y854634D01*
X1085308Y854820D01*
X1085474Y855003D01*
X1085644Y855182D01*
X1085819Y855357D01*
X1085998Y855527D01*
X1086181Y855693D01*
X1086367Y855855D01*
X1086558Y856012D01*
X1086753Y856164D01*
X1086951Y856312D01*
X1087152Y856455D01*
X1087357Y856592D01*
X1087565Y856725D01*
X1087777Y856853D01*
X1087991Y856976D01*
X1088209Y857093D01*
X1088429Y857205D01*
X1088651Y857312D01*
X1088877Y857413D01*
X1089104Y857509D01*
X1089334Y857600D01*
X1089566Y857685D01*
X1089800Y857764D01*
X1090036Y857837D01*
X1090274Y857905D01*
X1090513Y857967D01*
X1090753Y858023D01*
X1090995Y858074D01*
X1091238Y858118D01*
X1091482Y858157D01*
X1091727Y858189D01*
X1091972Y858216D01*
X1092219Y858237D01*
X1092465Y858252D01*
X1092712Y858261D01*
X1092959Y858264D01*
X1108292Y858264D01*
X1108292Y878709D01*
X1082737Y878709D01*
X1044792Y883820D02*
X1065237Y827598D01*
X1027292Y868486D02*
X1014515Y878709D01*
X1014515Y832709D01*
X1027292Y832709D02*
X1001737Y832709D01*
X982292Y858264D02*
X966959Y858264D01*
X966712Y858261D01*
X966465Y858252D01*
X966219Y858237D01*
X965972Y858216D01*
X965727Y858189D01*
X965482Y858157D01*
X965238Y858118D01*
X964995Y858074D01*
X964753Y858023D01*
X964513Y857967D01*
X964274Y857905D01*
X964036Y857837D01*
X963800Y857764D01*
X963566Y857685D01*
X963334Y857600D01*
X963104Y857509D01*
X962877Y857413D01*
X962651Y857312D01*
X962429Y857205D01*
X962209Y857093D01*
X961991Y856976D01*
X961777Y856853D01*
X961565Y856725D01*
X961357Y856592D01*
X961152Y856455D01*
X960951Y856312D01*
X960753Y856164D01*
X960558Y856012D01*
X960367Y855855D01*
X960181Y855693D01*
X959998Y855527D01*
X959819Y855357D01*
X959644Y855182D01*
X959474Y855003D01*
X959308Y854820D01*
X959146Y854634D01*
X958989Y854443D01*
X958837Y854248D01*
X958689Y854050D01*
X958546Y853849D01*
X958409Y853644D01*
X958276Y853436D01*
X958148Y853224D01*
X958025Y853010D01*
X957908Y852792D01*
X957796Y852572D01*
X957689Y852350D01*
X957588Y852124D01*
X957492Y851897D01*
X957401Y851667D01*
X957316Y851435D01*
X957237Y851201D01*
X957164Y850965D01*
X957096Y850727D01*
X957034Y850488D01*
X956978Y850248D01*
X956927Y850006D01*
X956883Y849763D01*
X956844Y849519D01*
X956812Y849274D01*
X956785Y849029D01*
X956764Y848782D01*
X956749Y848536D01*
X956740Y848289D01*
X956737Y848042D01*
X956737Y845486D01*
X956741Y845175D01*
X956752Y844864D01*
X956771Y844553D01*
X956798Y844243D01*
X956832Y843934D01*
X956873Y843626D01*
X956922Y843318D01*
X956979Y843012D01*
X957043Y842708D01*
X957114Y842405D01*
X957193Y842104D01*
X957279Y841805D01*
X957372Y841508D01*
X957473Y841213D01*
X957580Y840921D01*
X957695Y840632D01*
X957817Y840346D01*
X957945Y840062D01*
X958081Y839782D01*
X958223Y839505D01*
X958372Y839232D01*
X958528Y838963D01*
X958690Y838697D01*
X958858Y838436D01*
X959033Y838178D01*
X959214Y837925D01*
X959401Y837676D01*
X959594Y837432D01*
X959793Y837193D01*
X959998Y836959D01*
X960209Y836730D01*
X960425Y836506D01*
X960646Y836287D01*
X960873Y836074D01*
X961105Y835866D01*
X961341Y835664D01*
X961583Y835468D01*
X961829Y835278D01*
X962080Y835094D01*
X962335Y834916D01*
X962595Y834744D01*
X962858Y834579D01*
X963126Y834420D01*
X963397Y834268D01*
X963672Y834122D01*
X963951Y833983D01*
X964233Y833851D01*
X964517Y833726D01*
X964805Y833608D01*
X965096Y833496D01*
X965389Y833392D01*
X965685Y833296D01*
X965983Y833206D01*
X966283Y833123D01*
X966585Y833048D01*
X966889Y832981D01*
X967194Y832921D01*
X967501Y832868D01*
X967809Y832822D01*
X968117Y832785D01*
X968427Y832754D01*
X968738Y832732D01*
X969048Y832717D01*
X969359Y832709D01*
X969671Y832709D01*
X969982Y832717D01*
X970292Y832732D01*
X970603Y832754D01*
X970913Y832785D01*
X971221Y832822D01*
X971529Y832868D01*
X971836Y832921D01*
X972141Y832981D01*
X972445Y833048D01*
X972747Y833123D01*
X973047Y833206D01*
X973345Y833296D01*
X973641Y833392D01*
X973934Y833496D01*
X974225Y833608D01*
X974513Y833726D01*
X974797Y833851D01*
X975079Y833983D01*
X975358Y834122D01*
X975633Y834268D01*
X975904Y834420D01*
X976172Y834579D01*
X976435Y834744D01*
X976695Y834916D01*
X976950Y835094D01*
X977201Y835278D01*
X977447Y835468D01*
X977689Y835664D01*
X977925Y835866D01*
X978157Y836074D01*
X978384Y836287D01*
X978605Y836506D01*
X978821Y836730D01*
X979032Y836959D01*
X979237Y837193D01*
X979436Y837432D01*
X979629Y837676D01*
X979816Y837925D01*
X979997Y838178D01*
X980172Y838436D01*
X980340Y838697D01*
X980502Y838963D01*
X980658Y839232D01*
X980807Y839505D01*
X980949Y839782D01*
X981085Y840062D01*
X981213Y840346D01*
X981335Y840632D01*
X981450Y840921D01*
X981557Y841213D01*
X981658Y841508D01*
X981751Y841805D01*
X981837Y842104D01*
X981916Y842405D01*
X981987Y842708D01*
X982051Y843012D01*
X982108Y843318D01*
X982157Y843626D01*
X982198Y843934D01*
X982232Y844243D01*
X982259Y844553D01*
X982278Y844864D01*
X982289Y845175D01*
X982293Y845486D01*
X982292Y845486D02*
X982292Y858264D01*
X982286Y858758D01*
X982268Y859252D01*
X982238Y859745D01*
X982197Y860237D01*
X982143Y860728D01*
X982077Y861218D01*
X982000Y861706D01*
X981911Y862192D01*
X981810Y862675D01*
X981698Y863157D01*
X981574Y863635D01*
X981438Y864110D01*
X981291Y864582D01*
X981133Y865050D01*
X980963Y865514D01*
X980783Y865973D01*
X980591Y866429D01*
X980388Y866879D01*
X980175Y867325D01*
X979950Y867765D01*
X979715Y868199D01*
X979470Y868628D01*
X979215Y869051D01*
X978949Y869468D01*
X978673Y869878D01*
X978388Y870281D01*
X978092Y870677D01*
X977788Y871066D01*
X977474Y871447D01*
X977151Y871821D01*
X976819Y872187D01*
X976478Y872544D01*
X976128Y872894D01*
X975771Y873235D01*
X975405Y873567D01*
X975031Y873890D01*
X974650Y874204D01*
X974261Y874508D01*
X973865Y874804D01*
X973462Y875089D01*
X973052Y875365D01*
X972635Y875631D01*
X972212Y875886D01*
X971783Y876131D01*
X971349Y876366D01*
X970909Y876591D01*
X970463Y876804D01*
X970013Y877007D01*
X969557Y877199D01*
X969098Y877379D01*
X968634Y877549D01*
X968166Y877707D01*
X967694Y877854D01*
X967219Y877990D01*
X966741Y878114D01*
X966259Y878226D01*
X965776Y878327D01*
X965290Y878416D01*
X964802Y878493D01*
X964312Y878559D01*
X963821Y878613D01*
X963329Y878654D01*
X962836Y878684D01*
X962342Y878702D01*
X961848Y878708D01*
M02*
