G04 EAGLE Gerber X2 export*
%TF.Part,Single*%
%TF.FileFunction,Profile,NP*%
%TF.FilePolarity,Positive*%
%TF.GenerationSoftware,Autodesk,EAGLE,9.6.2*%
%TF.CreationDate,2021-04-14T19:10:52Z*%
G75*
%MOIN*%
%FSLAX36Y36*%
%LPD*%
%INBoard Outline*%
%AMOC8*
5,1,8,0,0,1.08239X$1,22.5*%
G01*
%ADD10C,0.010000*%


D10*
X409449Y562992D02*
X2551181Y555118D01*
X2551181Y2834646D01*
X409449Y2842520D01*
X409449Y562992D01*
X2317913Y656802D02*
X2317649Y655471D01*
X2317129Y654217D01*
X2316375Y653088D01*
X2315416Y652129D01*
X2314287Y651375D01*
X2313033Y650855D01*
X2311702Y650591D01*
X2310345Y650591D01*
X2309014Y650855D01*
X2307760Y651375D01*
X2306632Y652129D01*
X2305672Y653088D01*
X2304918Y654217D01*
X2304399Y655471D01*
X2304134Y656802D01*
X2304134Y658159D01*
X2304399Y659490D01*
X2304918Y660744D01*
X2305672Y661872D01*
X2306632Y662832D01*
X2307760Y663586D01*
X2309014Y664105D01*
X2310345Y664370D01*
X2311702Y664370D01*
X2313033Y664105D01*
X2314287Y663586D01*
X2315416Y662832D01*
X2316375Y661872D01*
X2317129Y660744D01*
X2317649Y659490D01*
X2317913Y658159D01*
X2317913Y656802D01*
X2317913Y656802D02*
X2317649Y655471D01*
X2317129Y654217D01*
X2316375Y653088D01*
X2315416Y652129D01*
X2314287Y651375D01*
X2313033Y650855D01*
X2311702Y650591D01*
X2310345Y650591D01*
X2309014Y650855D01*
X2307760Y651375D01*
X2306632Y652129D01*
X2305672Y653088D01*
X2304918Y654217D01*
X2304399Y655471D01*
X2304134Y656802D01*
X2304134Y658159D01*
X2304399Y659490D01*
X2304918Y660744D01*
X2305672Y661872D01*
X2306632Y662832D01*
X2307760Y663586D01*
X2309014Y664105D01*
X2310345Y664370D01*
X2311702Y664370D01*
X2313033Y664105D01*
X2314287Y663586D01*
X2315416Y662832D01*
X2316375Y661872D01*
X2317129Y660744D01*
X2317649Y659490D01*
X2317913Y658159D01*
X2317913Y656802D01*
X2290354Y2448140D02*
X2290090Y2446809D01*
X2289570Y2445555D01*
X2288816Y2444427D01*
X2287857Y2443467D01*
X2286728Y2442713D01*
X2285474Y2442194D01*
X2284143Y2441929D01*
X2282786Y2441929D01*
X2281455Y2442194D01*
X2280201Y2442713D01*
X2279073Y2443467D01*
X2278113Y2444427D01*
X2277359Y2445555D01*
X2276840Y2446809D01*
X2276575Y2448140D01*
X2276575Y2449498D01*
X2276840Y2450829D01*
X2277359Y2452082D01*
X2278113Y2453211D01*
X2279073Y2454171D01*
X2280201Y2454925D01*
X2281455Y2455444D01*
X2282786Y2455709D01*
X2284143Y2455709D01*
X2285474Y2455444D01*
X2286728Y2454925D01*
X2287857Y2454171D01*
X2288816Y2453211D01*
X2289570Y2452082D01*
X2290090Y2450829D01*
X2290354Y2449498D01*
X2290354Y2448140D01*
X554134Y2704046D02*
X553869Y2702715D01*
X553350Y2701461D01*
X552596Y2700332D01*
X551636Y2699373D01*
X550508Y2698619D01*
X549254Y2698099D01*
X547923Y2697835D01*
X546565Y2697835D01*
X545234Y2698099D01*
X543981Y2698619D01*
X542852Y2699373D01*
X541892Y2700332D01*
X541138Y2701461D01*
X540619Y2702715D01*
X540354Y2704046D01*
X540354Y2705403D01*
X540619Y2706734D01*
X541138Y2707988D01*
X541892Y2709116D01*
X542852Y2710076D01*
X543981Y2710830D01*
X545234Y2711349D01*
X546565Y2711614D01*
X547923Y2711614D01*
X549254Y2711349D01*
X550508Y2710830D01*
X551636Y2710076D01*
X552596Y2709116D01*
X553350Y2707988D01*
X553869Y2706734D01*
X554134Y2705403D01*
X554134Y2704046D01*
X530512Y680424D02*
X530247Y679093D01*
X529728Y677839D01*
X528974Y676710D01*
X528014Y675751D01*
X526886Y674997D01*
X525632Y674477D01*
X524301Y674213D01*
X522943Y674213D01*
X521612Y674477D01*
X520359Y674997D01*
X519230Y675751D01*
X518270Y676710D01*
X517516Y677839D01*
X516997Y679093D01*
X516732Y680424D01*
X516732Y681781D01*
X516997Y683112D01*
X517516Y684366D01*
X518270Y685494D01*
X519230Y686454D01*
X520359Y687208D01*
X521612Y687727D01*
X522943Y687992D01*
X524301Y687992D01*
X525632Y687727D01*
X526886Y687208D01*
X528014Y686454D01*
X528974Y685494D01*
X529728Y684366D01*
X530247Y683112D01*
X530512Y681781D01*
X530512Y680424D01*
M02*
