G04 EAGLE Gerber X2 export*
%TF.Part,Single*%
%TF.FileFunction,Soldermask,Bot*%
%TF.FilePolarity,Positive*%
%TF.GenerationSoftware,Autodesk,EAGLE,9.6.2*%
%TF.CreationDate,2021-04-14T19:10:52Z*%
G75*
%MOIN*%
%FSLAX36Y36*%
%LPD*%
%INBottom Solder Mask*%
%AMOC8*
5,1,8,0,0,1.08239X$1,22.5*%
G01*
%ADD10C,0.021780*%
%ADD11P,0.069273X8X22.500000*%
%ADD12C,0.064000*%
%ADD13P,0.064943X8X22.500000*%
%ADD14P,0.080097X8X292.500000*%
%ADD15C,0.178000*%
%ADD16C,0.068000*%
%ADD17P,0.080097X8X22.500000*%
%ADD18P,0.064943X8X202.500000*%
%ADD19C,0.082000*%
%ADD20C,0.072000*%
%ADD21C,0.073000*%
%ADD22R,0.047370X0.078866*%


D10*
X2311024Y657480D03*
X2311024Y657480D03*
X2283465Y2448819D03*
X547244Y2704724D03*
X523622Y681102D03*
D11*
X1032126Y753150D03*
D12*
X952126Y753150D03*
D11*
X1034488Y985433D03*
D12*
X954488Y985433D03*
D13*
X1926772Y2155906D03*
X2026772Y2155906D03*
X1929528Y2362992D03*
X2029528Y2362992D03*
X1900000Y1449606D03*
X2000000Y1449606D03*
D14*
X594488Y930709D03*
X669488Y880709D03*
X594488Y830709D03*
D15*
X1670472Y798819D03*
X1906693Y798819D03*
X1788583Y983858D03*
D16*
X2388110Y1684252D02*
X2448110Y1684252D01*
X2448110Y1584252D02*
X2388110Y1584252D01*
X2388110Y1484252D02*
X2448110Y1484252D01*
X2448110Y1384252D02*
X2388110Y1384252D01*
X2388110Y1284252D02*
X2448110Y1284252D01*
X717795Y1918110D02*
X657795Y1918110D01*
X657795Y1818110D02*
X717795Y1818110D01*
X717795Y1718110D02*
X657795Y1718110D01*
X657795Y1618110D02*
X717795Y1618110D01*
X717795Y1518110D02*
X657795Y1518110D01*
X657795Y1418110D02*
X717795Y1418110D01*
X2384173Y2048819D02*
X2444173Y2048819D01*
X2444173Y2148819D02*
X2384173Y2148819D01*
X2384173Y2248819D02*
X2444173Y2248819D01*
X2444173Y2348819D02*
X2384173Y2348819D01*
X2384173Y2448819D02*
X2444173Y2448819D01*
X2444173Y2548819D02*
X2384173Y2548819D01*
X2384173Y2648819D02*
X2444173Y2648819D01*
X2444173Y2748819D02*
X2384173Y2748819D01*
X757165Y2725591D02*
X697165Y2725591D01*
X697165Y2625591D02*
X757165Y2625591D01*
X757165Y2525591D02*
X697165Y2525591D01*
X697165Y2425591D02*
X757165Y2425591D01*
X757165Y2325591D02*
X697165Y2325591D01*
X697165Y2225591D02*
X757165Y2225591D01*
D17*
X1016929Y2147638D03*
X1116929Y2147638D03*
D13*
X1771260Y1155512D03*
X2071260Y1155512D03*
D18*
X1140551Y2009843D03*
X840551Y2009843D03*
D19*
X1552016Y1085803D03*
X1296016Y1085803D03*
X1552016Y1263803D03*
X1296016Y1263803D03*
D20*
X1556693Y1420866D03*
X1556693Y1520866D03*
X1556693Y1620866D03*
X1556693Y1720866D03*
X1556693Y1820866D03*
X1556693Y1920866D03*
X1556693Y2020866D03*
X1556693Y2120866D03*
X1556693Y2220866D03*
X1556693Y2320866D03*
X1556693Y2420866D03*
X1556693Y2520866D03*
X1556693Y2620866D03*
X1556693Y2720866D03*
X1256693Y2720866D03*
X1256693Y2620866D03*
X1256693Y2520866D03*
X1256693Y2420866D03*
X1256693Y2320866D03*
X1256693Y2220866D03*
X1256693Y2120866D03*
X1256693Y2020866D03*
X1256693Y1920866D03*
X1256693Y1820866D03*
X1256693Y1720866D03*
X1256693Y1620866D03*
X1256693Y1520866D03*
X1256693Y1420866D03*
D21*
X1737008Y2314961D03*
X1737008Y2114961D03*
D13*
X771260Y1307087D03*
X1071260Y1307087D03*
D14*
X685039Y1238976D03*
X685039Y1138976D03*
D22*
X1413386Y933071D03*
X1303150Y933071D03*
M02*
